<svg width="1910" height="879" viewBox="0 0 1910 879" fill="none" xmlns="http://www.w3.org/2000/svg">
<path d="M469.001 94.9665C468.44 105.623 454.579 119.812 458.872 129.586C466.775 147.574 462.233 169.079 451.978 185.84C441.726 202.6 426.439 215.569 411.42 228.235C412.186 202.053 409.897 175.777 404.609 150.119C402.953 142.083 400.253 133.119 392.901 129.473C383.396 124.759 371.307 131.576 361.563 127.37C351.179 122.881 349.075 108.685 340.317 101.519C332.397 95.0395 320.739 95.7295 311.042 98.9874C301.341 102.249 292.387 107.696 282.401 109.922C272.411 112.152 260.365 110.161 254.838 101.552C251.424 96.2337 253.883 99.485 250.625 94.074C250.625 94.074 231.14 94.7376 224.455 72.0815C224.455 72.0815 215.296 46.9106 235.546 35.7767C235.546 35.7767 240.151 -9.71791 285.934 10.7518C299.079 16.6273 314.642 -2.32956 327.477 4.19289C338.157 9.62384 341.338 24.4636 352.015 29.8978C364.27 36.135 378.549 26.8722 392.291 26.2817C409.904 25.5252 426.293 42.0138 425.427 59.6238C425.427 59.6238 427.587 50.5368 442.466 54.5445C457.349 58.5489 470.092 74.2081 469.001 94.9665Z" fill="#17282F"/>
<path d="M449.61 168.223C449.736 163.087 449.082 157.832 446.809 153.227C444.895 149.349 437.713 140.524 429.787 139.99L430.951 93.1051C431.144 83.4309 423.898 75.2165 414.277 74.198L322.332 64.474C290.652 61.1232 262.605 84.8542 260.604 116.647C258.378 151.973 257.055 195.185 261.238 221.544C269.655 274.539 310.273 281.284 310.273 281.284L309.281 318.309C307.721 357.762 337.245 381.506 367.711 381.506C398.555 381.506 426.293 355.217 425.404 316.159L428.373 196.831C433.37 196.446 438.34 194.004 441.797 190.292C447.237 184.453 449.417 176.202 449.61 168.223Z" fill="#F8A58D"/>
<path d="M281.157 145.404C281.027 148.994 283.963 152.06 287.709 152.265C291.448 152.464 294.586 149.724 294.716 146.134C294.842 142.548 291.909 139.476 288.167 139.273C284.421 139.071 281.283 141.815 281.157 145.404Z" fill="#17282F"/>
<path d="M269.977 139.131C270.819 140.013 275.971 136.205 283.284 136.224C290.589 136.138 295.957 139.9 296.75 139.008C297.141 138.607 296.282 137.011 293.946 135.305C291.644 133.614 287.719 131.968 283.164 131.985C278.609 132.008 274.777 133.687 272.574 135.405C270.325 137.127 269.562 138.733 269.977 139.131Z" fill="#17282F"/>
<path d="M351.756 146.768C351.627 150.358 354.563 153.426 358.309 153.629C362.048 153.828 365.189 151.087 365.315 147.501C365.442 143.911 362.509 140.839 358.766 140.64C355.021 140.435 351.882 143.182 351.756 146.768Z" fill="#17282F"/>
<path d="M341.87 140.494C342.716 141.38 347.868 137.571 355.18 137.591C362.482 137.502 367.853 141.267 368.646 140.371C369.034 139.977 368.185 138.374 365.84 136.672C363.54 134.977 359.616 133.331 355.057 133.351C350.502 133.375 346.67 135.05 344.467 136.768C342.225 138.494 341.458 140.099 341.87 140.494Z" fill="#17282F"/>
<path d="M315.325 194.734C315.362 194.316 310.817 193.533 303.448 192.591C301.58 192.398 299.812 192.027 299.497 190.753C299.059 189.403 299.839 187.392 300.744 185.216C302.499 180.697 304.337 175.96 306.268 170.996C313.939 150.749 319.489 134.098 318.673 133.796C317.853 133.494 310.973 149.664 303.302 169.912C301.458 174.905 299.693 179.662 298.011 184.217C297.304 186.337 296.09 188.746 297.045 191.549C297.546 192.939 298.916 193.954 300.114 194.28C301.312 194.641 302.363 194.661 303.286 194.721C310.701 195.119 315.299 195.149 315.325 194.734Z" fill="#17282F"/>
<path d="M310.273 281.284C310.273 281.284 345.93 283.584 381.253 262.351C381.253 262.351 362.887 302.229 309.848 297.269L310.273 281.284Z" fill="#F68260"/>
<path d="M338.582 127.688C339.302 129.675 346.604 128.733 355.187 129.768C363.786 130.631 370.706 133.142 371.844 131.357C372.352 130.505 371.148 128.637 368.348 126.709C365.574 124.785 361.148 122.96 355.999 122.387C350.847 121.823 346.133 122.639 343.008 123.913C339.856 125.183 338.27 126.743 338.582 127.688Z" fill="#17282F"/>
<path d="M268.792 122.108C270.079 123.77 275.119 122.045 281.177 121.965C287.232 121.673 292.367 123.08 293.545 121.345C294.066 120.499 293.256 118.837 291.014 117.264C288.807 115.698 285.112 114.414 280.948 114.541C276.784 114.673 273.178 116.179 271.071 117.881C268.928 119.59 268.225 121.298 268.792 122.108Z" fill="#17282F"/>
<path d="M316.921 236.122C316.785 235.959 317.432 235.076 318.915 234.148C320.384 233.222 322.743 232.386 325.434 232.369C328.124 232.363 330.49 233.175 331.97 234.091C333.459 235.003 334.116 235.883 333.977 236.045C333.691 236.457 330.304 234.011 325.44 234.101C320.58 234.055 317.213 236.53 316.921 236.122Z" fill="#F68260"/>
<path d="M424.939 182.329C424.88 182.031 427.129 181.785 429.959 179.878C432.729 178.063 436.077 174.132 436.1 168.973C436.189 163.827 433.32 159.574 430.613 157.676C427.866 155.623 425.55 155.971 425.55 155.715C425.394 155.513 427.998 154.637 431.286 156.658C434.478 158.486 437.928 163.164 437.828 168.999C437.805 171.876 436.797 174.563 435.383 176.577C433.97 178.604 432.208 180.034 430.603 180.919C427.325 182.711 424.919 182.499 424.939 182.329Z" fill="#F68260"/>
<path d="M250.625 51.8307C242.059 74.7256 262.399 91.3336 278.247 95.0328C300.403 100.202 323.984 86.2145 339.133 92.1663C350.436 96.6086 361.122 105.354 373.138 103.586C378.977 102.73 384.74 99.3689 390.44 100.918C397.699 102.889 400.651 111.737 400.479 119.258C400.266 128.547 397.138 137.761 398.312 146.977C399.487 156.193 407.718 165.725 416.685 163.286C425.407 160.911 431.011 152.338 431.754 143.331C432.806 130.575 430.48 115.363 431.107 102.577C431.658 91.2971 431.688 78.8859 424.508 70.1639C417.299 61.412 405.047 59.0763 393.814 57.5337C346.408 51.0278 298.452 48.5031 250.625 49.9993" fill="#17282F"/>
<path d="M222.715 56.7208C222.715 56.7208 222.347 55.9379 222.244 54.3288C222.138 52.743 222.302 50.268 223.639 47.4746C224.962 44.7442 227.478 41.5626 231.635 39.8739C233.692 39.0313 236.163 38.7824 238.619 39.0843C241.08 39.3431 243.585 39.9901 246.196 40.136C248.797 40.3251 251.494 39.6882 254.022 38.391C256.574 37.117 258.916 35.1795 261.298 33.1259C263.677 31.059 266.095 28.8064 268.892 26.7892C271.702 24.8053 275.026 23.163 278.659 22.5227C285.938 21.0895 293.777 22.8811 300.837 26.2949C307.954 29.805 314.191 35.0832 320.494 40.3251C326.804 45.5304 333.022 50.7425 340.088 53.5492C343.598 54.9194 347.304 55.6061 350.867 55.1881C354.44 54.7866 357.811 53.4696 360.956 51.9169C367.21 48.7519 373.098 44.9598 379.419 43.4105C385.639 41.745 391.83 41.5725 397.184 42.8498C402.566 44.0641 406.985 46.758 410.093 49.7936C413.222 52.8458 415.136 56.1668 416.231 59.0133C417.293 61.883 417.588 64.2783 417.581 65.8741C417.641 66.6737 417.525 67.2842 417.508 67.6889C417.472 68.1003 417.435 68.306 417.405 68.3026C417.133 68.3425 417.843 64.8291 415.604 59.2588C414.446 56.535 412.509 53.3734 409.426 50.4937C406.354 47.6272 402.108 45.139 396.919 44.0442C391.76 42.8897 385.798 43.1219 379.8 44.794C373.712 46.3433 368.069 50.0424 361.663 53.3434C358.451 54.9492 354.918 56.3758 351.05 56.8303C347.181 57.3014 343.17 56.5616 339.474 55.125C332.023 52.179 325.719 46.8608 319.389 41.6521C313.086 36.4036 306.935 31.2049 300.094 27.8143C293.286 24.4934 285.775 22.7782 278.958 24.0853C272.01 25.2266 267.011 30.1068 262.233 34.2107C259.805 36.261 257.366 38.2483 254.623 39.5819C251.916 40.9388 248.906 41.6057 246.12 41.3569C243.343 41.1512 240.855 40.4578 238.489 40.1791C236.13 39.8507 233.914 40.0431 231.98 40.7763C228.088 42.2527 225.592 45.2054 224.241 47.7765C222.869 50.4041 222.598 52.7662 222.591 54.3156C222.58 55.8848 222.822 56.7009 222.715 56.7208Z" fill="#33535F"/>
<path d="M248.362 93.6029C248.362 93.6029 247.592 93.9878 246.043 93.7588C244.543 93.52 242.241 92.4849 240.672 89.8972C239.106 87.3293 238.731 83.5273 239.421 79.4764C240.055 75.3925 241.757 70.8539 244.835 66.624C247.904 62.4139 252.519 58.5821 258.338 56.4754C264.098 54.3455 271.045 53.8644 277.693 55.9877C284.348 58.0845 290.357 62.2547 296.308 66.551C302.267 70.8075 308.471 75.3991 315.829 77.4958C323.171 79.6622 330.901 78.5542 337.749 76.2883C344.659 73.9891 350.883 70.6018 356.742 67.2344C362.608 63.8803 368.221 60.639 373.818 58.2536C379.405 55.8815 384.935 54.2592 390.171 54.0203C400.658 53.5127 408.849 57.5569 412.9 61.6641C415.006 63.6912 416.078 65.7249 416.805 67.0453C417.378 68.4586 417.651 69.2018 417.594 69.2217C417.375 69.361 416.586 66.0567 412.435 62.1518C408.378 58.3233 400.369 54.5976 390.244 55.2413C385.227 55.5398 379.836 57.1853 374.389 59.5674C368.921 61.966 363.391 65.2173 357.535 68.6145C351.693 72.0217 345.373 75.5119 338.28 77.8973C331.26 80.2461 323.145 81.4471 315.358 79.1613C307.585 76.9352 301.265 72.1877 295.32 67.9245C289.388 63.6083 283.539 59.5408 277.215 57.5071C270.925 55.4535 264.343 55.8516 258.823 57.8223C253.259 59.7764 248.826 63.3562 245.817 67.3539C242.798 71.3649 241.077 75.7109 240.37 79.639C239.617 83.5604 239.892 87.1369 241.256 89.5654C242.613 92.0005 244.719 93.0887 246.113 93.4171C247.553 93.7456 248.352 93.51 248.362 93.6029Z" fill="#33535F"/>
<path d="M451.527 182.024C451.394 181.915 452.741 180.448 454.473 177.37C456.195 174.321 458.159 169.45 458.441 163.177C458.56 160.055 458.282 156.595 457.184 153.101C456.152 149.588 454.218 146.131 451.866 142.677C449.547 139.2 446.793 135.71 444.368 131.729C441.999 127.788 439.813 123.087 440.032 117.914C440.118 112.722 442.533 108.257 444.451 104.166C446.455 100.066 448.14 96.0181 448.173 91.9407C448.369 83.713 443.678 76.7892 438.379 73.727C432.992 70.5255 427.571 70.4525 424.167 70.9368C420.677 71.4511 418.905 72.4199 418.839 72.2507C418.812 72.1976 419.24 71.952 420.093 71.524C420.962 71.1624 422.269 70.6117 424.051 70.2733C427.534 69.5733 433.191 69.4173 438.993 72.6686C444.726 75.8071 449.882 83.0993 449.762 91.9706C449.772 96.4162 447.964 100.782 445.98 104.893C444.053 109.027 441.813 113.29 441.757 117.961C441.551 122.639 443.532 127.015 445.818 130.856C448.146 134.731 450.864 138.232 453.189 141.795C455.541 145.325 457.529 148.971 458.56 152.696C459.649 156.386 459.864 160.005 459.662 163.24C459.207 169.752 456.991 174.699 455.054 177.715C454.102 179.247 453.212 180.336 452.572 181.029C451.925 181.722 451.57 182.064 451.527 182.024Z" fill="#33535F"/>
<path d="M312.422 143.304C312.197 143.317 312.379 140.262 311.029 135.053C309.692 129.947 306.262 122.453 298.575 116.667C294.769 113.844 289.982 111.445 284.468 110.493C278.991 109.574 272.82 109.76 266.951 112.006C263.998 113.037 261.148 114.593 258.534 116.557C255.887 118.482 253.488 120.87 251.507 123.637C247.417 129.085 245.114 136.085 245.048 143.298C245.111 150.513 247.414 157.517 251.507 162.964C253.485 165.731 255.887 168.12 258.534 170.048C261.148 172.012 263.998 173.568 266.951 174.599C272.82 176.845 278.994 177.034 284.471 176.112C289.982 175.157 294.773 172.761 298.578 169.935C306.262 164.152 309.692 156.654 311.029 151.552C312.379 146.346 312.197 143.288 312.422 143.304C312.422 143.304 312.854 146.35 311.683 151.714C310.518 156.969 307.184 164.779 299.318 170.907C295.423 173.899 290.473 176.46 284.733 177.522C279.034 178.547 272.581 178.405 266.407 176.096C263.305 175.034 260.306 173.422 257.552 171.371C254.765 169.364 252.231 166.866 250.141 163.97C245.828 158.253 243.383 150.885 243.32 143.298C243.386 135.713 245.831 128.345 250.144 122.635C252.234 119.736 254.769 117.238 257.552 115.23C260.309 113.183 263.305 111.571 266.407 110.509C272.578 108.2 279.03 108.058 284.73 109.083C290.47 110.141 295.42 112.702 299.318 115.695C307.181 121.823 310.518 129.636 311.679 134.887C312.854 140.255 312.422 143.304 312.422 143.304Z" fill="#17282F"/>
<path d="M390.34 143.304C390.111 143.317 390.297 140.262 388.947 135.053C387.61 129.947 384.176 122.453 376.492 116.667C372.684 113.844 367.9 111.445 362.383 110.493C356.908 109.574 350.734 109.76 344.869 112.006C341.916 113.037 339.066 114.593 336.452 116.557C333.804 118.482 331.406 120.87 329.425 123.637C325.335 129.085 323.032 136.085 322.966 143.298C323.029 150.513 325.331 157.517 329.422 162.964C331.402 165.731 333.804 168.12 336.452 170.048C339.066 172.012 341.916 173.568 344.869 174.599C350.738 176.845 356.912 177.034 362.386 176.112C367.9 175.157 372.687 172.761 376.496 169.935C384.179 164.152 387.61 156.654 388.947 151.552C390.297 146.346 390.111 143.288 390.34 143.304C390.34 143.304 390.771 146.35 389.597 151.714C388.436 156.969 385.102 164.779 377.235 170.907C373.341 173.899 368.391 176.46 362.651 177.522C356.948 178.547 350.495 178.405 344.325 176.096C341.223 175.034 338.224 173.422 335.47 171.371C332.68 169.364 330.148 166.866 328.058 163.97C323.745 158.253 321.3 150.885 321.237 143.298C321.304 135.713 323.749 128.345 328.062 122.635C330.152 119.736 332.683 117.238 335.47 115.23C338.224 113.183 341.223 111.571 344.325 110.509C350.495 108.2 356.948 108.058 362.648 109.083C368.387 110.141 373.337 112.702 377.232 115.695C385.098 121.823 388.436 129.636 389.597 134.887C390.771 140.255 390.34 143.304 390.34 143.304Z" fill="#17282F"/>
<path d="M323.971 137.601L324.007 137.508L324.047 137.465L324.073 137.445L324.087 137.432L324.093 137.425H324.097V137.422V137.777H324.093L323.937 137.863L323.888 137.883L323.861 137.893L323.848 137.9V137.299H323.851L323.858 137.296L323.971 137.256V137.943C323.042 138.248 320.898 138.464 318.4 138.464C315.043 138.464 312.326 138.076 312.326 137.601C312.326 137.124 315.043 136.735 318.4 136.735C320.898 136.735 323.042 136.948 323.971 137.256V137.943L323.858 137.903H323.851L323.848 137.9V137.299V137.303L323.861 137.306L323.888 137.316L323.937 137.339L324.093 137.422H324.097V137.777L324.093 137.774L324.087 137.767L324.073 137.757L324.047 137.734L324.007 137.691L323.971 137.601Z" fill="#17282F"/>
<path d="M431.299 145.109C431.266 145.587 421.91 145.305 410.408 144.482C398.899 143.656 389.6 142.604 389.633 142.126C389.67 141.649 399.022 141.931 410.531 142.757C422.033 143.583 431.336 144.635 431.299 145.109Z" fill="#17282F"/>
<path d="M345.818 192.893C346.003 192.856 346.591 194.91 346.063 198.257C345.572 201.545 343.661 206.15 339.59 209.497C335.503 212.825 330.61 213.79 327.292 213.621C323.908 213.475 322.01 212.493 322.083 212.317C322.156 212.042 324.12 212.57 327.279 212.4C330.397 212.254 334.803 211.169 338.496 208.157C342.175 205.135 344.109 201.031 344.869 198.005C345.662 194.943 345.532 192.909 345.818 192.893Z" fill="#17282F"/>
<path d="M214.321 431.095C214.349 431.095 214.379 431.453 214.407 432.157C214.431 432.953 214.458 433.981 214.493 435.272C214.533 438.128 214.587 442.146 214.656 447.262C214.716 457.789 214.797 472.821 214.903 491.346C215.016 528.58 213.757 580.023 210.871 636.754C207.785 693.436 204.993 744.74 202.964 782.007C202.038 800.509 201.286 815.521 200.76 826.032C200.498 831.141 200.292 835.152 200.146 838.002C200.061 839.293 199.995 840.317 199.944 841.113C199.889 841.81 199.845 842.172 199.815 842.172C199.784 842.168 199.768 841.807 199.767 841.107C199.775 840.311 199.784 839.282 199.798 837.989C199.867 835.135 199.963 831.122 200.087 826.005C200.38 815.601 200.918 800.546 201.745 781.947C203.313 744.753 206.312 693.406 209.146 636.669C212.029 579.956 213.483 528.56 213.68 491.343C213.809 472.817 213.911 457.789 213.984 447.262C214.052 442.146 214.107 438.128 214.146 435.272C214.181 433.981 214.211 432.953 214.231 432.157C214.26 431.453 214.29 431.095 214.321 431.095Z" fill="#17282F"/>
<path d="M534.8 373.942C516.944 353.34 482.076 350.314 466.622 361.498C451.169 372.678 442.566 391.678 441.017 410.692C439.468 429.705 444.311 448.751 451.574 466.388C463.209 494.661 480.43 517.529 506.145 546.657L572.421 633.67L444.52 758.538L497.519 842.172L606.235 754.583L696.142 659.288" fill="#F03D5F"/>
<path d="M72.3965 642.145C72.3096 641.983 74.7911 640.38 79.2819 638.821C83.7487 637.251 90.3117 635.971 97.5869 636.356C104.864 636.76 111.248 638.742 115.52 640.786C119.816 642.819 122.109 644.68 122.004 644.833C121.851 645.086 119.349 643.606 115.04 641.907C110.744 640.199 104.533 638.474 97.4923 638.079C90.4527 637.713 84.0935 638.752 79.6382 639.986C75.171 641.209 72.5232 642.408 72.3965 642.145Z" fill="#17282F"/>
<path d="M491.335 714.878L488.993 666.653L501.487 540.033C526.363 568.574 572.421 625.183 572.421 633.666L491.335 714.878ZM205.514 709.699L118.219 644.554L212.509 546.999L205.514 709.699ZM552.068 393.493L552.005 393.616C507.359 334.439 459.323 339.316 434.836 338.613V312.629C416.752 312.629 392.049 328.922 379.266 340.577L366.649 357.918C359.964 338.719 344.759 323.524 325.368 317.42C313.666 313.741 304.218 312.629 304.218 312.629V335.869C244.255 337.541 212.169 353.94 172.104 400.327C170.031 402.729 165.957 406.797 161.288 411.408L42.6931 550.653C18.4721 577.451 -3.59011 614.351 1.45732 650.122C7.14805 690.437 30.6551 716.998 75.6673 747.411L200.413 828.268L199.815 842.172H497.519C497.519 842.172 699.397 693.247 704.344 638.081C708.255 594.498 638.721 502.122 552.068 393.493Z" fill="#778B92"/>
<path d="M434.836 338.613C434.936 338.676 434.126 340.079 432.58 342.561C431.011 345.026 428.712 348.579 425.703 352.859C419.715 361.422 410.9 372.974 399.587 384.3C396.77 387.163 393.9 389.837 391.117 392.398L389.723 393.676L389.7 391.785C389.614 385.345 387.995 379.377 385.669 374.457C383.343 369.517 380.324 365.622 377.485 362.739C374.645 359.842 372.007 357.795 369.874 357.367C368.706 357.135 367.88 357.371 367.356 357.606C366.908 357.805 366.679 358.004 366.649 357.918C366.609 357.951 366.789 357.643 367.25 357.334C367.767 356.989 368.643 356.644 369.973 356.78C372.399 357.079 375.262 359.122 378.251 361.952C381.277 364.806 384.498 368.747 386.999 373.816C389.498 378.866 391.259 385.043 391.392 391.761L389.975 391.148C392.726 388.586 395.566 385.922 398.362 383.082C409.586 371.842 418.49 360.496 424.714 352.142C427.647 348.148 430.099 344.804 432.026 342.183C433.742 339.821 434.737 338.543 434.836 338.613Z" fill="#17282F"/>
<path d="M304.218 335.869C304.314 335.8 305.239 336.898 306.829 338.941C308.607 341.294 310.816 344.22 313.434 347.687C318.948 355.118 326.469 365.449 334.69 376.925C336.525 379.496 338.319 382.011 340.048 384.433L338.555 384.652C340.496 379.018 342.493 373.667 345.257 369.308C347.951 364.908 351.484 361.69 354.851 359.866C358.225 357.991 361.357 357.444 363.45 357.454C365.564 357.46 366.669 357.849 366.649 357.918C366.632 358.054 365.501 357.878 363.484 358.058C361.473 358.23 358.544 358.92 355.412 360.828C352.267 362.706 349.039 365.808 346.527 370.087C343.956 374.324 342.065 379.562 340.161 385.206L339.633 386.765L338.668 385.421C336.929 383.003 335.128 380.498 333.287 377.93C325.062 366.458 317.7 356.011 312.439 348.4C309.997 344.804 307.937 341.771 306.284 339.33C304.861 337.17 304.118 335.939 304.218 335.869Z" fill="#17282F"/>
<path d="M384.916 412.098C384.262 412.098 383.608 411.985 382.968 411.733C378.426 409.935 378.984 403.486 379.621 398.645C381.475 384.545 376.615 368.103 366.669 357.938C366.672 357.938 366.675 357.938 366.682 357.938C366.762 357.938 366.981 357.772 367.355 357.606C367.727 357.44 368.251 357.271 368.941 357.271C369.227 357.271 369.535 357.301 369.874 357.367C372.007 357.795 374.644 359.842 377.484 362.739C380.324 365.622 383.343 369.516 385.669 374.456C387.994 379.376 389.613 385.345 389.7 391.784L389.723 393.675L391.116 392.398C393.9 389.837 396.77 387.163 399.586 384.3C410.488 373.385 419.071 362.261 425.039 353.804C427.839 350.636 430.606 347.484 433.316 344.356C434.259 343.267 435.344 342.103 436.777 341.95C436.876 341.937 436.976 341.934 437.075 341.934C438.973 341.934 440.519 343.891 440.665 345.825C440.824 347.869 439.882 349.813 438.94 351.624C427.494 373.597 411.45 393.161 392.148 408.691C390.048 410.383 387.47 412.098 384.916 412.098Z" fill="#566A72"/>
<path d="M389.723 393.676L389.7 391.785C389.613 385.345 387.994 379.377 385.669 374.457C383.343 369.517 380.324 365.622 377.484 362.739C374.644 359.842 372.007 357.795 369.873 357.367C369.535 357.301 369.226 357.271 368.941 357.271C368.251 357.271 367.727 357.44 367.355 357.606C366.98 357.772 366.761 357.938 366.682 357.938C366.675 357.938 366.672 357.938 366.669 357.938C366.662 357.931 366.655 357.925 366.649 357.918C367.478 357.351 368.344 357.095 369.243 357.095C373.433 357.095 378.29 362.666 382.799 368.219C388.273 374.967 390.99 383.5 390.466 392.74C401.547 379.951 413.583 366.753 425.039 353.804C419.07 362.261 410.488 373.385 399.586 384.3C396.769 387.163 393.9 389.837 391.116 392.398L389.723 393.676Z" fill="#142228"/>
<path d="M493.923 836.628C493.883 836.655 493.531 836.177 492.888 835.235C492.181 834.167 491.265 832.787 490.117 831.058C487.659 827.236 484.229 821.901 479.949 815.256C471.263 801.527 459.164 782.398 445.071 760.12L444.726 759.574L445.187 759.112C454.824 749.5 465.348 739.007 476.303 728.082C502.698 701.96 526.585 678.321 544.019 661.066C552.648 652.64 559.675 645.782 564.678 640.899C567.053 638.629 568.944 636.822 570.357 635.474C571.668 634.25 572.378 633.626 572.421 633.67C572.461 633.712 571.834 634.416 570.603 635.72C569.249 637.126 567.431 639.01 565.155 641.369C560.245 646.349 553.351 653.342 544.881 661.932C527.54 679.277 503.779 703.044 477.527 729.303C466.546 740.204 455.999 750.678 446.341 760.267L446.457 759.257C460.335 781.665 472.252 800.908 480.805 814.715C484.915 821.473 488.213 826.888 490.578 830.773C491.63 832.554 492.473 833.984 493.123 835.089C493.69 836.077 493.966 836.602 493.923 836.628Z" fill="#17282F"/>
<path d="M457.333 372.254C457.353 372.273 457.187 372.496 456.849 372.907C456.434 373.385 455.926 373.972 455.306 374.695C453.879 376.198 451.982 378.587 449.603 381.712C445.074 388.026 439.112 398.118 436.916 411.995C434.647 425.79 436.837 442.919 444.291 459.882C447.997 468.335 452.692 476.994 458.892 484.86C465.315 492.697 471.944 500.845 478.615 509.285C505.365 543.012 528.393 574.436 545.277 596.999C553.634 608.207 560.428 617.314 565.232 623.756C567.511 626.835 569.313 629.27 570.633 631.052C571.184 631.824 571.632 632.458 572 632.976C572.302 633.417 572.445 633.649 572.421 633.67C572.395 633.685 572.209 633.487 571.861 633.083C571.456 632.594 570.962 631.997 570.354 631.267C568.974 629.529 567.087 627.16 564.698 624.164C559.834 617.964 552.841 608.95 544.301 597.736C527.159 575.352 503.985 544.05 477.262 510.356C470.597 501.926 463.985 493.781 457.575 485.922C451.235 477.834 446.557 469.112 442.832 460.512C435.354 443.287 433.24 425.82 435.709 411.796C438.104 397.69 444.334 387.551 449.062 381.311C451.544 378.222 453.538 375.89 455.054 374.456C455.724 373.78 456.271 373.232 456.722 372.781C457.104 372.413 457.31 372.23 457.333 372.254Z" fill="#17282F"/>
<path d="M569.24 415.101C569.293 415.26 567.412 415.877 564.293 417.529C561.191 419.198 556.918 422.078 552.512 426.596C548.08 431.085 543.601 437.173 539.235 444.322C534.816 451.442 530.403 459.637 524.422 467.426C518.526 475.279 510.985 481.37 503.235 484.947C495.522 488.626 487.828 490.116 481.422 490.394C474.989 490.693 469.8 489.853 466.337 488.984C464.588 488.596 463.281 488.115 462.392 487.8C461.506 487.485 461.052 487.292 461.072 487.233C461.138 486.765 468.689 490.003 481.349 489.17C487.609 488.749 495.087 487.166 502.549 483.51C510.05 479.937 517.269 474.068 523.055 466.368C528.92 458.737 533.366 450.599 537.885 443.48C542.357 436.32 547.018 430.196 551.649 425.73C556.258 421.232 560.74 418.438 563.991 416.929C565.627 416.189 566.924 415.681 567.836 415.433C568.739 415.16 569.22 415.048 569.24 415.101Z" fill="#FAFAF9"/>
<path d="M490.121 706.817C490.111 706.845 489.846 706.803 489.338 706.7C488.731 706.56 487.994 706.395 487.092 706.192C486.117 705.92 484.879 705.737 483.419 705.516C481.97 705.241 480.274 705.095 478.363 704.958C470.733 704.331 459.526 705.287 446.345 709.076C439.756 710.967 432.666 713.491 425.295 716.77C417.933 720.03 410.296 724.128 402.038 728.01C393.78 731.861 384.926 735.713 375.222 738.161C370.378 739.385 365.335 740.262 360.16 740.553C354.984 740.789 349.686 740.468 344.467 739.409C334.007 737.269 324.498 732.786 315.975 727.671C307.416 722.552 299.742 716.776 292.42 711.385C277.906 700.493 264.055 691.423 250.874 687.554C244.348 685.531 238.161 684.711 232.746 684.585C227.322 684.515 222.661 685.221 218.972 686.201C211.547 688.171 208.073 690.882 207.955 690.633C207.939 690.606 208.155 690.45 208.593 690.165C209.124 689.84 209.771 689.438 210.559 688.945C212.356 688.002 215.048 686.599 218.792 685.553C222.507 684.462 227.236 683.643 232.756 683.619C238.26 683.656 244.564 684.4 251.222 686.386C264.688 690.172 278.782 699.272 293.363 710.101C300.721 715.462 308.368 721.179 316.841 726.217C325.278 731.253 334.624 735.634 344.809 737.714C349.888 738.741 355.027 739.06 360.07 738.835C365.116 738.556 370.049 737.714 374.807 736.519C384.342 734.141 393.127 730.362 401.365 726.566C409.602 722.744 417.253 718.697 424.721 715.458C432.172 712.211 439.348 709.733 446.016 707.898C459.357 704.225 470.723 703.446 478.416 704.289C486.14 705.074 490.121 706.817 490.121 706.817Z" fill="#FAFAF9"/>
<path d="M162.177 677.358C162.235 677.352 162.327 677.743 162.45 678.5C162.566 679.257 162.751 680.372 162.837 681.824C163.062 684.717 163.172 688.97 162.304 694.146C161.473 699.291 159.435 705.396 155.406 711.115C151.445 716.934 145.177 721.666 138.392 725.7C131.584 729.774 124.89 733.175 119.413 737.156C113.937 741.117 109.414 745.317 106.6 749.538C103.719 753.741 102.815 757.874 102.775 760.697C102.753 763.544 103.206 765.107 103.025 765.144C102.968 765.16 102.832 764.782 102.626 764.038C102.386 763.302 102.21 762.177 102.101 760.708C101.928 757.785 102.697 753.342 105.574 748.874C108.383 744.375 112.946 739.979 118.475 735.865C124.035 731.725 130.774 728.248 137.502 724.22C144.229 720.213 150.25 715.711 154.112 710.186C158.047 704.75 160.141 698.917 161.103 693.921C162.102 688.91 162.185 684.723 162.165 681.854C162.147 678.975 162.029 677.375 162.177 677.358Z" fill="#FAFAF9"/>
<path d="M662.826 540.036C662.946 540.484 654.662 540.53 643.146 546.187C637.447 548.99 631.087 553.362 625.46 559.604C622.677 562.732 620.089 566.328 617.972 570.359C615.786 574.353 614.28 578.908 612.143 583.408C610.08 587.929 607.114 592.089 603.398 595.069C599.735 598.112 595.611 600.224 591.534 601.657C583.33 604.554 575.4 604.779 568.971 604.461C562.495 604.12 557.339 603.246 553.786 602.656C550.24 602.036 548.292 601.611 548.309 601.498C548.325 601.376 550.309 601.574 553.882 601.989C557.455 602.378 562.621 603.061 569.017 603.24C575.381 603.403 583.107 603.038 590.997 600.162C598.849 597.411 606.775 591.672 610.584 582.668C612.661 578.298 614.193 573.704 616.473 569.57C618.685 565.412 621.379 561.727 624.282 558.535C630.135 552.175 636.727 547.805 642.612 545.085C648.511 542.325 653.667 541.074 657.236 540.507C659.018 540.179 660.421 540.099 661.373 540.039C662.322 539.98 662.823 539.976 662.826 540.036Z" fill="#FAFAF9"/>
<path d="M497.951 568.037C497.957 568.066 497.698 568.143 497.191 568.262C496.577 568.392 495.834 568.553 494.922 568.753C492.931 569.191 489.968 569.723 486.14 570.322C478.486 571.494 467.299 572.821 453.408 572.641C439.57 572.39 422.869 570.654 405.468 564.521C396.756 561.518 388.081 557.148 379.398 552.284C370.683 547.494 361.739 542.332 351.872 538.848C346.945 537.123 341.906 535.909 336.867 535.451C331.827 535.175 326.804 535.232 321.977 536.191C312.286 537.899 303.418 541.678 295.323 545.792C279.223 554.325 265.667 563.817 253.451 570.416C241.339 577.194 230.6 581.039 222.928 582.322C219.135 583.225 216.091 583.188 214.055 583.304C213.122 583.338 212.36 583.367 211.735 583.387C211.213 583.397 210.946 583.387 210.946 583.357C210.946 583.327 211.213 583.281 211.731 583.212C212.353 583.145 213.11 583.059 214.035 582.959C216.053 582.73 219.059 582.661 222.796 581.662C230.351 580.188 240.891 576.221 252.858 569.344C264.93 562.656 278.38 553.075 294.587 544.379C302.745 540.185 311.742 536.303 321.685 534.525C326.638 533.53 331.824 533.454 337.022 533.739C342.228 534.21 347.41 535.454 352.439 537.219C362.522 540.776 371.526 546.001 380.215 550.804C388.887 555.682 397.41 560.012 405.999 563.02C423.158 569.161 439.686 571.016 453.431 571.418C467.229 571.756 478.386 570.621 486.047 569.655C489.879 569.161 492.851 568.736 494.862 568.408C495.784 568.279 496.537 568.176 497.158 568.09C497.675 568.026 497.944 568.007 497.951 568.037Z" fill="#FAFAF9"/>
<path d="M173.64 587.215C173.397 587.196 174.439 585.301 173.466 582.104C172.513 578.965 168.81 575.156 163.036 573.577C160.159 572.717 156.867 572.226 153.33 571.418C149.828 570.611 145.906 569.323 142.702 566.53C139.486 563.81 137.081 560.025 135.342 555.91C133.595 551.763 132.563 547.259 131.53 542.73C130.505 538.188 129.436 533.819 127.748 529.841C126.072 525.863 123.935 522.25 121.533 519.095C116.744 512.742 110.852 508.356 105.52 505.599C100.174 502.795 95.3799 501.535 92.0663 500.881C88.7433 500.208 86.8513 500.078 86.8656 499.906C86.8695 499.843 87.3423 499.833 88.2444 499.866C89.1451 499.916 90.4838 499.929 92.1791 500.221C95.573 500.675 100.513 501.774 106.072 504.511C111.61 507.191 117.773 511.61 122.794 518.123C125.311 521.361 127.553 525.077 129.308 529.187C131.081 533.301 132.19 537.806 133.215 542.345C134.248 546.88 135.251 551.286 136.903 555.253C138.549 559.215 140.802 562.781 143.74 565.327C146.648 567.917 150.239 569.172 153.667 570.024C157.106 570.877 160.437 571.443 163.395 572.409C169.43 574.225 173.286 578.447 174.11 581.915C174.554 583.636 174.39 585.043 174.162 585.926C173.906 586.808 173.685 587.232 173.64 587.215Z" fill="#FAFAF9"/>
<path d="M435.662 417.052C435.553 417.297 432.51 414.752 425.915 413.1C422.627 412.367 418.43 412.035 413.699 412.921C408.959 413.707 403.766 415.622 398.226 418.126C392.682 420.635 386.837 423.879 380.46 427.24C374.08 430.554 367.097 434.044 359.134 436.085C351.185 438.172 342.394 438.344 333.622 436.917C324.84 435.418 316.075 432.376 307.612 428.318C290.665 420.054 276.572 408.97 262.956 400.354C249.447 391.572 236.24 385.182 224.312 382.671C212.442 379.907 202.388 380.747 195.814 382.333C189.205 383.962 185.85 385.829 185.766 385.627C185.766 385.627 189.002 383.537 195.651 381.682C202.256 379.871 212.485 378.826 224.573 381.477C236.714 383.869 250.19 390.255 263.812 399.01C277.547 407.606 291.654 418.624 308.358 426.762C316.712 430.767 325.321 433.759 333.901 435.252C342.477 436.662 351.013 436.526 358.746 434.542C366.503 432.605 373.42 429.214 379.8 425.966C386.176 422.678 392.095 419.477 397.728 417.008C403.352 414.553 408.667 412.686 413.544 411.969C418.407 411.153 422.733 411.594 426.074 412.447C429.435 413.316 431.807 414.633 433.39 415.489C434.916 416.464 435.695 417.005 435.662 417.052Z" fill="#FAFAF9"/>
<path d="M416.938 838.268C420.292 839.946 416.573 838.098 426.167 842.861L479.389 842.759L490.121 834.017L451.328 770.22C446.6 772.283 425.743 775.547 419.031 777.919C413.225 779.969 407.097 780.968 400.937 780.958C394.431 780.949 386.06 780.626 380.467 779.276C380.009 779.11 379.428 778.978 379.027 778.795C378.062 778.363 377.106 778.231 376.171 778.218C370.414 777.708 365.856 783.716 369.077 788.467C372.379 793.337 388.008 799.537 408.053 798.971C408.371 798.973 408.667 799.013 408.985 799.009C426.595 798.99 410.445 813.747 400.011 822.488C396.332 825.571 394.248 830.314 394.972 835.056C395.25 836.881 395.93 838.506 397.32 839.382C401.769 842.172 416.938 838.268 416.938 838.268Z" fill="#F8A58D"/>
<path d="M200.326 830.324C200.295 830.322 200.282 830.003 200.286 829.38C200.299 828.666 200.317 827.757 200.339 826.629C200.43 824.087 200.556 820.55 200.715 816.065C201.107 806.756 201.664 793.518 202.352 777.213C203.722 744.296 205.611 699.033 207.693 649.04C209.648 598.963 211.147 553.632 211.949 520.81C212.292 504.497 212.571 491.25 212.767 481.941C212.863 477.449 212.939 473.915 212.994 471.371C213.037 470.243 213.07 469.34 213.096 468.621C213.128 468.003 213.161 467.685 213.19 467.685C213.219 467.685 213.246 468.003 213.272 468.621C213.29 469.34 213.313 470.243 213.342 471.371C213.364 473.915 213.397 477.452 213.439 481.944C213.53 491.127 213.381 504.414 213.17 520.833C212.681 553.671 211.374 599.026 209.419 649.106C207.478 699.169 205.302 744.481 203.571 777.27C202.653 793.565 201.911 806.799 201.387 816.095C201.089 820.58 200.856 824.11 200.687 826.649C200.595 827.773 200.52 828.672 200.46 829.389C200.401 830.006 200.356 830.324 200.326 830.324Z" fill="#17282F"/>
<path d="M344.733 836.628C344.703 836.628 344.65 836.213 344.573 835.397C344.5 834.495 344.404 833.297 344.282 831.774C344.056 828.483 343.731 823.806 343.319 817.827C342.908 811.769 342.407 804.355 342.135 795.738C341.86 787.116 341.259 777.309 341.186 766.454C341.017 755.599 340.732 743.708 340.888 730.938C340.934 724.558 340.888 717.953 341.027 711.16C341.176 704.357 341.335 697.362 341.498 690.188C342.331 661.494 343.82 629.963 346.126 596.92C350.784 530.813 356.689 471.129 360.472 427.893C362.336 406.349 363.849 388.878 364.904 376.686C365.421 370.717 365.826 366.046 366.112 362.762C366.261 361.242 366.38 360.048 366.47 359.146C366.559 358.329 366.619 357.915 366.649 357.918C366.679 357.918 366.676 358.339 366.646 359.159C366.599 360.061 366.536 361.262 366.46 362.788C366.251 366.079 365.952 370.757 365.574 376.739C364.801 388.852 363.447 406.365 361.689 427.996C358.219 471.268 352.506 530.972 347.851 597.04C345.546 630.063 344.009 661.564 343.087 690.235C342.901 697.4 342.722 704.391 342.546 711.181C342.384 717.976 342.4 724.573 342.317 730.948C342.102 743.705 342.317 755.582 342.407 766.43C342.404 777.279 342.918 787.083 343.1 795.698C343.28 804.317 343.684 811.729 343.99 817.787C344.265 823.772 344.481 828.457 344.627 831.751C344.68 833.278 344.719 834.478 344.753 835.384C344.769 836.203 344.763 836.625 344.733 836.628Z" fill="#17282F"/>
<path d="M369.15 509.789C368.988 509.626 370.859 508.834 372.902 510.618C373.821 511.464 374.754 512.931 374.528 514.809C374.332 516.726 372.504 518.325 370.507 518.614C368.526 518.989 366.277 518.07 365.468 516.318C364.645 514.616 365.05 512.931 365.643 511.833C366.997 509.481 369.024 509.62 368.928 509.829C369.017 510.084 367.498 510.419 366.748 512.357C366.4 513.269 366.28 514.553 366.874 515.568C367.418 516.594 368.795 517.148 370.225 516.912C371.648 516.673 372.773 515.701 372.955 514.553C373.184 513.402 372.657 512.228 372.03 511.474C370.693 509.889 369.147 510.061 369.15 509.789Z" fill="#17282F"/>
<path d="M359.844 658.697C359.685 658.531 361.556 657.742 363.6 659.527C364.519 660.373 365.451 661.836 365.222 663.716C365.026 665.634 363.202 667.231 361.204 667.523C359.221 667.897 356.975 666.978 356.165 665.226C355.339 663.525 355.747 661.836 356.341 660.738C357.694 658.386 359.721 658.525 359.622 658.733C359.712 658.993 358.195 659.328 357.446 661.266C357.094 662.178 356.978 663.461 357.568 664.473C358.112 665.502 359.493 666.056 360.919 665.821C362.346 665.575 363.47 664.607 363.653 663.461C363.882 662.31 363.354 661.132 362.727 660.383C361.39 658.794 359.844 658.969 359.844 658.697Z" fill="#17282F"/>
<path d="M597.814 761.073C597.801 761.176 596.209 761.026 593.356 760.509C590.526 759.915 586.442 758.843 581.671 756.763C572.209 752.699 559.818 744.011 551.802 730.079C547.732 723.172 545.661 715.811 543.541 709.395C541.465 702.934 539.109 697.318 536.186 693.154C533.34 688.945 530.158 686.24 527.773 684.724C525.361 683.218 523.831 682.714 523.888 682.564C523.908 682.508 524.296 682.594 525.032 682.813C525.766 683.035 526.821 683.458 528.114 684.143C530.679 685.523 534.116 688.194 537.185 692.451C540.333 696.654 542.881 702.42 545.048 708.887C547.27 715.337 549.351 722.525 553.298 729.214C561.088 742.752 573.015 751.378 582.178 755.652C591.451 759.989 597.907 760.705 597.814 761.073Z" fill="#FAFAF9"/>
<path d="M937.721 842.759L881.385 679.081L907.475 522.008C915.072 479.658 919.315 442.302 907.936 421.042C877.526 364.225 840.803 359.136 790.631 346.094C780.283 343.403 701.559 340.753 692.9 342.876C624.597 350.53 580.851 386.742 556.974 445.593L530.944 550.397L495.226 660.015C488.435 673.405 477.275 682.65 463.735 685.636L325.838 732.65L326.99 759.633L325.838 796.023L509.277 761.594C546.066 754.689 583.445 741.127 593.976 705.639L613.732 647.204C623.393 671.944 633.887 694.623 633.887 694.623L620.483 842.032L937.721 842.759Z" fill="#4B5255"/>
<path d="M890.482 551.943L838.057 727.203C829.935 754.355 808.742 775.634 781.624 783.871L563.46 842.017L534.554 766.69L731.75 693.387L780.151 517.858C780.151 517.858 791.328 419.749 880.071 424.788L890.482 551.943Z" fill="#4B5255"/>
<path d="M880.071 424.788C880.071 424.788 879.172 424.825 877.424 424.815C876.767 424.838 875.991 424.815 875.095 424.792C873.605 424.755 871.787 424.715 869.657 424.894C862.873 425.133 852.634 426.102 840.502 430.856C834.467 433.235 827.994 436.599 821.681 441.39C815.368 446.164 809.247 452.338 803.743 459.786C792.838 474.722 784.245 494.78 780.738 517.924L780.732 517.984L780.722 518.017C767.318 566.829 750.899 626.633 732.513 693.598L732.407 693.987L732.026 694.13C671.515 716.647 604.904 741.436 534.856 767.498L535.36 766.381C536.982 770.611 538.741 775.182 540.499 779.774C548.64 800.991 556.666 821.907 564.26 841.708L563.241 841.187C630.287 823.351 693.524 806.531 750.674 791.329C757.817 789.428 764.867 787.561 771.817 785.713C775.281 784.771 778.761 783.921 782.142 782.919C785.479 781.858 788.737 780.614 791.892 779.19C804.499 773.457 815.208 764.755 823.181 754.553C827.165 749.444 830.476 743.964 833.104 738.307C835.778 732.654 837.546 726.795 839.261 720.983C842.741 709.408 846.076 698.32 849.257 687.75C862.01 645.51 872.258 611.557 879.335 588.115C882.891 576.454 885.648 567.416 887.529 561.246C888.471 558.22 889.191 555.904 889.692 554.292C890.187 552.733 890.482 551.944 890.482 551.944C890.482 551.944 890.293 552.765 889.848 554.341C889.384 555.961 888.717 558.29 887.838 561.339C886.023 567.532 883.366 576.596 879.935 588.291C872.975 611.774 862.899 645.775 850.359 688.079C847.213 698.658 843.912 709.759 840.469 721.345C838.78 727.121 836.992 733.118 834.295 738.858C831.641 744.617 828.29 750.187 824.252 755.393C816.177 765.78 805.309 774.648 792.496 780.511C789.291 781.961 785.977 783.238 782.56 784.329C779.149 785.347 775.695 786.198 772.222 787.146C765.275 789.004 758.231 790.888 751.089 792.799C693.949 808.06 630.719 824.94 563.683 842.842L562.936 843.044L562.661 842.321C555.06 822.526 547.031 801.608 538.887 780.394C537.125 775.807 535.373 771.231 533.748 767.001L533.436 766.186L534.252 765.88C604.32 739.864 670.948 715.12 731.475 692.643L730.987 693.177C749.519 626.254 766.074 566.484 779.584 517.702L779.567 517.791C783.19 494.375 791.909 474.281 802.993 459.235C808.586 451.741 814.8 445.537 821.207 440.759C827.606 435.955 834.165 432.605 840.266 430.256C852.535 425.555 862.836 424.692 869.644 424.563C871.784 424.413 873.605 424.49 875.101 424.563C875.994 424.606 876.774 424.649 877.43 424.646C879.179 424.712 880.071 424.788 880.071 424.788Z" fill="#17282F"/>
<path d="M742.615 653.986C742.615 654.105 741.696 654.169 740.008 654.182C738.322 654.252 735.884 653.969 732.924 653.366C727.029 652.125 719.1 648.682 712.222 642.447C705.312 636.264 700.87 628.928 698.759 623.288C698.172 621.895 697.768 620.591 697.472 619.427C697.137 618.279 696.888 617.28 696.792 616.437C696.53 614.772 696.447 613.853 696.563 613.833C696.885 613.77 697.482 617.439 699.884 622.818C702.23 628.196 706.689 635.172 713.374 641.16C720.035 647.191 727.56 650.665 733.216 652.179C738.899 653.688 742.628 653.638 742.615 653.986Z" fill="#17282F"/>
<path d="M613.078 520.674C613.191 520.721 612.521 522.555 611.231 525.833C609.96 529.118 608.026 533.832 605.823 539.724C601.52 551.452 595.455 568.06 594.822 587.183C594.556 596.708 595.89 605.775 598.431 613.63C600.903 621.51 604.254 628.222 607.415 633.619C610.607 639.01 613.596 643.131 615.699 645.941C617.806 648.754 619.04 650.264 618.934 650.356C618.888 650.397 618.529 650.069 617.886 649.391C617.239 648.721 616.31 647.716 615.175 646.36C612.896 643.665 609.734 639.625 606.367 634.25C603.039 628.872 599.516 622.12 596.915 614.115C594.241 606.136 592.821 596.847 593.093 587.136C593.75 567.626 600.08 550.934 604.685 539.283C607.04 533.424 609.15 528.779 610.61 525.568C612.096 522.369 612.969 520.624 613.078 520.674Z" fill="#17282F"/>
<path d="M750.946 716.746C750.432 716.921 748.69 709.769 742.911 703.17C737.234 696.485 730.417 693.711 730.662 693.227C730.735 693.034 732.537 693.453 735.184 694.812C737.822 696.163 741.229 698.591 744.218 702.045C747.194 705.505 749.092 709.238 750.04 712.041C750.999 714.861 751.145 716.702 750.946 716.746Z" fill="#17282F"/>
<path d="M538.578 777.177C538.578 777.177 476.17 782.744 477.049 823.279L554.762 819.35L538.578 777.177Z" fill="#C0776A"/>
<path d="M639.192 97.8296C633.476 125.419 628.031 153.065 622.859 180.76C616.304 215.877 610.242 252.557 620.165 286.875C625.61 305.705 635.622 322.834 645.535 339.738C651.112 349.249 657.223 359.268 667.106 364.152C680.536 370.787 697.549 365.542 708.235 355.042C718.918 344.538 724.389 329.868 728.071 315.343C735.264 287.001 736.843 257.57 737.964 228.348C739.099 198.861 739.729 168.797 731.501 140.458C723.274 112.122 704.732 85.3055 677.374 74.2479" fill="#17282F"/>
<path d="M643.68 75.6578C651.45 69.5865 661.134 66.0002 670.984 65.5423C678.94 49.412 697.824 42.037 715.481 38.6032C741.481 33.5439 738.657 32.8306 762.903 43.5034C787.148 54.1795 821.509 84.3931 825.878 110.519C829.935 134.808 837.118 154.229 847.661 176.484C854.18 190.242 867.239 199.83 874.909 212.978C883.246 227.27 884.444 245.497 878.057 260.761C871.8 275.707 858.576 288.905 859.824 305.058C860.547 314.424 860.209 321.149 863.911 329.781C876.492 359.112 870.619 398.214 843.554 415.134C816.486 432.054 777.457 426.152 756.602 401.989C738.488 381.005 734.978 351.077 736.78 323.418C738.584 295.756 744.858 268.263 743.05 240.604L643.68 75.6578Z" fill="#17282F"/>
<path d="M674.668 841.99L674.296 832.445L533.605 817.611L471.961 640.407L207.98 634.452L287.842 841.99C418.368 843.004 547.34 843.027 674.668 841.99Z" fill="#17282F"/>
<path d="M354.457 741.074C358.259 747.683 366.702 749.961 373.311 746.16C379.923 742.358 382.199 733.918 378.397 727.31C374.595 720.698 366.155 718.418 359.546 722.223C352.934 726.021 350.655 734.466 354.457 741.074Z" fill="white"/>
<path d="M738.741 414.64C770.387 414.64 798.856 387.664 797.94 347.587L803.633 118.714C803.829 108.788 796.394 100.358 786.521 99.3159L692.178 89.3365C659.672 85.8962 630.898 110.247 628.841 142.873C626.555 179.115 625.198 223.458 629.491 250.5C638.127 304.883 679.806 311.803 679.806 311.803L678.788 349.79C677.189 390.272 707.482 414.64 738.741 414.64Z" fill="#C0776A"/>
<path d="M649.927 172.377C649.798 176.062 652.81 179.208 656.652 179.413C660.487 179.622 663.712 176.809 663.841 173.126C663.971 169.444 660.962 166.292 657.123 166.086C653.281 165.877 650.057 168.697 649.927 172.377Z" fill="#17282F"/>
<path d="M638.459 165.941C639.325 166.846 644.606 162.935 652.114 162.955C659.609 162.872 665.116 166.73 665.932 165.811C666.33 165.406 665.451 163.761 663.052 162.016C660.69 160.281 656.666 158.589 651.988 158.609C647.313 158.635 643.382 160.354 641.123 162.112C638.814 163.887 638.034 165.532 638.459 165.941Z" fill="#17282F"/>
<path d="M722.371 173.78C722.238 177.459 725.251 180.611 729.092 180.813C732.931 181.022 736.152 178.209 736.282 174.53C736.414 170.844 733.402 167.692 729.564 167.486C725.722 167.281 722.5 170.097 722.371 173.78Z" fill="#17282F"/>
<path d="M712.226 167.34C713.092 168.246 718.384 164.338 725.881 164.358C733.379 164.272 738.887 168.133 739.699 167.214C740.101 166.803 739.228 165.164 736.82 163.419C734.461 161.681 730.433 159.989 725.759 160.008C721.088 160.032 717.153 161.754 714.89 163.515C712.591 165.284 711.805 166.932 712.226 167.34Z" fill="#17282F"/>
<path d="M684.992 222.994C685.025 222.566 680.36 221.763 672.803 220.794C670.885 220.595 669.071 220.217 668.749 218.91C668.298 217.526 669.1 215.459 670.029 213.23C671.831 208.588 673.715 203.728 675.696 198.636C683.569 177.861 689.262 160.775 688.422 160.466C687.583 160.158 680.523 176.746 672.654 197.521C670.759 202.643 668.948 207.53 667.226 212.201C666.499 214.378 665.252 216.849 666.231 219.722C666.748 221.152 668.155 222.194 669.382 222.522C670.61 222.901 671.688 222.921 672.637 222.977C680.244 223.385 684.962 223.422 684.992 222.994Z" fill="#17282F"/>
<path d="M679.806 311.803C679.806 311.803 716.392 314.162 752.634 292.372C752.634 292.372 734.964 329.732 680.539 324.642L679.806 311.803Z" fill="#B85549"/>
<path d="M688.164 241.081C690.864 237.511 695.595 235.551 700.289 236.058C703.544 236.41 706.835 237.979 708.812 240.63C710.793 243.281 711.208 247.046 709.41 249.578C707.383 252.424 703.149 253.081 699.569 252.066C695.986 251.047 692.904 248.689 689.978 246.34C689.169 245.689 688.339 245.013 687.835 244.12C687.331 243.231 687.221 242.063 687.845 241.327" fill="#B85549"/>
<path d="M707.077 228.182C705.856 228.116 705.839 236.261 698.869 242.04C691.909 247.843 683.223 246.927 683.16 248.068C683.047 248.579 685.094 249.647 688.76 249.747C692.353 249.873 697.605 248.718 701.871 245.182C706.125 241.635 707.956 236.901 708.231 233.564C708.543 230.156 707.634 228.139 707.077 228.182Z" fill="#17282F"/>
<path d="M708.852 154.199C709.592 156.24 717.086 155.271 725.888 156.333C734.716 157.218 741.816 159.796 742.984 157.965C743.505 157.089 742.267 155.171 739.397 153.194C736.551 151.22 732.012 149.349 726.724 148.758C721.439 148.181 716.599 149.02 713.394 150.324C710.159 151.625 708.534 153.231 708.852 154.199Z" fill="#17282F"/>
<path d="M641.219 144.22C642.539 145.925 647.708 144.154 653.925 144.071C660.139 143.769 665.404 145.219 666.619 143.434C667.15 142.568 666.32 140.859 664.018 139.247C661.755 137.638 657.963 136.324 653.69 136.453C649.42 136.589 645.718 138.135 643.555 139.877C641.358 141.632 640.635 143.387 641.219 144.22Z" fill="#17282F"/>
<path d="M629.959 133.832C650.412 121.955 670.377 110.957 683.157 91.0583C690.237 111.001 704.038 120.861 722.341 131.484C740.645 142.103 761.131 148.271 781.405 154.345C771.14 164.295 769.783 180.392 772.152 194.485C774.518 208.582 779.919 222.164 780.801 236.43C781.979 255.483 775.012 274.165 774.571 293.248C773.967 319.407 785.532 344.12 796.842 367.712L845.966 339.094L838.893 211.508L839.483 121.232L762.903 50.0658L665.872 60.6722L629.959 133.832Z" fill="#17282F"/>
<path d="M693.995 81.5035C702.057 81.1684 725.954 81.5002 752.634 117.032C768.592 138.285 768.582 172.748 768.221 202.773C767.948 225.104 768.221 281.593 768.221 281.593C768.221 281.593 771.764 352.935 747.505 359.262C717.763 367.025 691.676 361.68 669.418 340.477C647.157 319.278 634.387 289.519 629.325 259.195C624.265 228.876 621.382 197.959 625.36 167.476C627.716 149.435 633.541 129.772 643.604 114.613C663.752 84.2439 693.995 81.5035 693.995 81.5035ZM619.033 402.036C643.952 427.247 641.315 472.134 668.705 494.637C685.499 508.432 710.016 509.743 730.602 502.769C751.188 495.799 768.542 481.702 784.417 466.862C800.295 452.016 815.334 436.032 833.419 423.975C850.989 412.264 881.023 405.058 885.273 384.376C888.385 369.225 872.487 351.024 869.491 335.853C864.734 311.777 890.777 293.151 895.126 269.002C903.819 220.754 878.346 164.089 851.818 122.861C825.29 81.6328 810.371 35.5179 743.099 31.613C682.875 28.9224 641.852 57.8156 621.84 99.6011C611.804 120.555 609.442 144.246 607.492 167.4C602.94 221.481 600.428 278.783 625.417 326.965C630.595 336.944 636.766 349.588 629.796 358.406C623.413 366.481 608.974 366.142 604.947 375.614C600.773 385.438 611.532 394.445 619.033 402.036Z" fill="#778B92"/>
<path d="M877.404 355.46C874.063 348.695 870.709 342.023 869.492 335.853C868.483 330.757 868.858 325.903 870.112 321.192C870.115 321.185 870.119 321.172 870.122 321.165C870.122 321.165 867.78 329.639 869.787 336.947C871.051 341.549 874.8 349.903 877.404 355.46Z" fill="#A4A6A5"/>
<path d="M758.497 442.66C740.668 442.66 722.786 435.133 714.296 419.782C719.976 420.747 725.745 421.212 731.544 421.212C789.327 421.212 850.77 375.233 870.111 321.192C868.857 325.903 868.483 330.757 869.491 335.853C870.709 342.023 874.063 348.695 877.404 355.46C878.936 358.731 880.071 361.03 880.071 361.03C860.132 371.862 846.41 387.946 830.191 403.811C813.971 419.679 795.91 435.03 773.944 440.719C768.96 442.01 763.729 442.66 758.497 442.66Z" fill="#566A72"/>
<path d="M629.08 359.242C629.08 359.238 629.08 359.238 629.08 359.235C629.08 359.235 631.273 356.584 632.255 353.698C631.757 355.353 630.961 356.933 629.796 358.406C629.568 358.694 629.329 358.973 629.08 359.242ZM632.683 351.84C633.051 348.43 632.484 344.634 632.484 344.634C632.487 344.651 632.49 344.667 632.494 344.681C632.948 347.136 633.064 349.548 632.683 351.84Z" fill="#A4A6A5"/>
<path d="M667.226 402.527C666.221 402.527 665.215 402.388 664.27 402.106C660.292 400.931 657.147 397.952 654.164 395.069C643.326 384.595 632.135 374.002 629.08 359.242C629.329 358.973 629.568 358.694 629.796 358.406C630.961 356.933 631.757 355.354 632.255 353.698C632.464 353.084 632.616 352.457 632.683 351.847C632.683 351.843 632.683 351.84 632.683 351.84C633.064 349.548 632.948 347.136 632.494 344.681C636.538 360.35 648.14 375.336 662.568 382.658C665.856 384.326 669.372 385.723 672.066 388.244C674.757 390.759 676.449 394.823 674.959 398.197C673.682 401.087 670.451 402.527 667.226 402.527Z" fill="#566A72"/>
<path d="M865.178 332.946C865.232 332.973 864.91 333.643 864.246 334.884C863.559 336.111 862.64 337.979 861.217 340.245C858.507 344.857 854.224 351.329 848.361 358.9C842.476 366.438 834.975 375.087 825.636 383.669C816.283 392.189 805.109 400.802 791.806 407.122C785.071 410.147 778.3 412.38 771.671 414.324C765.046 416.255 758.523 417.688 752.253 418.65C739.719 420.701 728.194 420.724 718.649 419.901C709.097 418.966 701.497 417.227 696.384 415.641C693.797 414.958 691.872 414.145 690.539 413.697C689.218 413.216 688.535 412.934 688.551 412.878C688.608 412.722 691.411 413.661 696.563 414.994C701.702 416.371 709.28 417.914 718.752 418.684C728.22 419.344 739.61 419.195 751.998 417.078C758.198 416.083 764.644 414.633 771.2 412.699C777.742 410.758 784.507 408.509 791.076 405.553C804.144 399.345 815.235 390.879 824.564 382.492C833.883 374.045 841.431 365.542 847.406 358.14C853.354 350.709 857.77 344.375 860.647 339.89C862.153 337.687 863.161 335.876 863.944 334.711C864.704 333.524 865.129 332.916 865.178 332.946Z" fill="#17282F"/>
<path d="M712.478 394.475C712.501 394.571 711.108 395.006 708.523 395.504C705.942 396.011 702.143 396.476 697.419 396.502C688.043 396.608 674.673 394.312 662.193 386.828C649.708 379.337 641.384 368.624 637.065 360.3C634.865 356.123 633.485 352.55 632.719 350.035C631.942 347.517 631.667 346.091 631.767 346.061C632.095 345.945 633.528 351.628 638.136 359.71C642.655 367.745 650.926 378.049 663.082 385.348C675.234 392.634 688.219 395.076 697.439 395.281C706.735 395.54 712.425 394.127 712.478 394.475Z" fill="#17282F"/>
<path d="M699.543 476.699C699.536 476.639 700.203 476.467 701.477 476.198C702.751 475.903 704.652 475.624 707.057 475.05C711.894 474.028 718.838 472.267 727.198 469.433C743.956 463.88 766.048 452.971 787.811 437.034C809.598 421.099 827.304 404.123 840.064 391.871C846.291 385.819 851.39 380.866 855.11 377.253C856.792 375.651 858.158 374.344 859.24 373.315C860.195 372.429 860.72 371.981 860.763 372.025C860.803 372.068 860.365 372.595 859.485 373.561C858.467 374.649 857.176 376.029 855.587 377.728C852.17 381.317 847.184 386.47 840.92 392.743C828.369 405.227 810.743 422.399 788.83 438.43C766.934 454.468 744.556 465.303 727.583 470.591C719.113 473.295 712.083 474.888 707.187 475.707C704.751 476.185 702.824 476.357 701.533 476.546C700.236 476.702 699.549 476.755 699.543 476.699Z" fill="#17282F"/>
<path d="M1706.82 703.668L1699.9 542.7L1793.18 639.22L1706.82 703.668ZM1343.83 628.447C1343.83 620.053 1388.96 567.135 1413.57 538.898L1426.36 661.083L1424.05 708.793L1343.83 628.447ZM1867.9 546.316L1750.85 408.28L1750.58 408.559C1745.96 404 1741.92 399.973 1739.87 397.594C1699.31 350.633 1667.1 334.695 1605.05 333.693H1605.05L1484.42 336.307C1462 338.142 1411.1 328.551 1364.03 390.955L1363.96 390.832C1278.24 498.3 1209.44 589.695 1213.31 632.813C1218.21 687.392 1426.36 843.008 1426.36 843.008L1712.46 842.755L1711.87 820.973L1835.28 740.978C1879.81 710.888 1903.07 684.615 1908.7 644.724C1913.7 609.335 1891.87 572.83 1867.9 546.316Z" fill="#4B5255"/>
<path d="M1606.27 772.542L1394.78 877.05C1389.16 879.823 1382.36 877.522 1379.58 871.905L1311.23 733.573C1308.45 727.959 1310.75 721.155 1316.37 718.378L1527.86 613.866C1533.48 611.093 1540.29 613.399 1543.06 619.013L1611.42 757.343C1614.19 762.96 1611.89 769.765 1606.27 772.542Z" fill="#DADBD8"/>
<path d="M1460.31 732.359C1466.48 728.583 1474.54 730.517 1478.32 736.678C1482.09 742.843 1480.16 750.904 1473.99 754.682C1467.83 758.458 1459.77 756.524 1455.99 750.361C1452.21 744.2 1454.15 736.138 1460.31 732.359Z" fill="white"/>
<path d="M1698.11 428.036C1698.14 428.036 1698.17 428.388 1698.2 429.085C1698.22 429.871 1698.25 430.889 1698.28 432.17C1698.32 434.997 1698.37 438.971 1698.45 444.027C1698.52 454.445 1698.62 469.314 1698.75 487.641C1698.94 524.46 1700.38 575.306 1703.24 631.414C1706.04 687.548 1709 738.347 1710.56 775.15C1711.37 793.546 1711.9 808.439 1712.19 818.734C1712.31 823.792 1712.41 827.764 1712.48 830.59C1712.49 831.868 1712.5 832.885 1712.51 833.672C1712.5 834.369 1712.49 834.727 1712.46 834.727C1712.43 834.727 1712.39 834.372 1712.33 833.679C1712.28 832.893 1712.21 831.877 1712.13 830.603C1711.99 827.777 1711.78 823.812 1711.52 818.76C1711 808.356 1710.25 793.51 1709.33 775.206C1707.33 738.334 1704.57 687.577 1701.51 631.503C1698.66 575.376 1697.41 524.483 1697.52 487.644C1697.63 469.317 1697.71 454.445 1697.77 444.027C1697.84 438.971 1697.9 434.997 1697.93 432.17C1697.97 430.889 1698 429.871 1698.02 429.085C1698.05 428.388 1698.08 428.036 1698.11 428.036Z" fill="#17282F"/>
<path d="M1400.2 355.855C1415.47 344.764 1433.21 348.118 1448.5 359.179C1463.79 370.24 1472.3 389.041 1473.83 407.848C1475.36 426.659 1470.57 445.5 1463.39 462.951C1451.88 490.922 1434.84 513.548 1409.4 542.365L1343.83 628.447L1470.36 751.986L1417.93 834.727L1311.95 749.455C1275.77 718.889 1244.98 687.63 1222.37 655.317L1400.2 355.855Z" fill="#4B5255"/>
<path d="M1222.37 655.317C1222.37 655.317 1222.65 655.635 1223.16 656.302C1223.68 657.015 1224.42 658.003 1225.38 659.29C1227.33 661.932 1230.24 665.83 1234.2 670.766C1242.05 680.686 1254.16 694.737 1270.8 711.234C1279.13 719.479 1288.58 728.331 1299.13 737.624C1309.59 747.005 1321.54 756.362 1334.16 766.487C1359.4 786.74 1387.73 809.477 1418.42 834.114L1417.27 834.305C1433.54 808.588 1451.22 780.656 1469.65 751.535L1469.77 752.592C1448.69 732.014 1426.85 710.705 1404.49 688.878C1383.52 668.401 1363.02 648.376 1343.24 629.057L1342.7 628.53L1343.15 627.933C1366.3 597.587 1388.32 568.713 1408.77 541.89L1408.79 541.864L1408.81 541.844C1421.63 527.346 1433.56 513.034 1443.46 498.343C1453.4 483.696 1460.97 468.521 1466.25 453.588C1471.52 438.672 1474.16 423.783 1473.4 410.054C1472.7 396.326 1468.42 383.985 1462.21 374.407C1456 364.756 1447.66 358.246 1439.71 354.249C1431.75 350.168 1423.98 348.934 1417.85 349.405C1411.68 349.942 1407.21 351.867 1404.41 353.379C1401.58 354.896 1400.26 355.937 1400.2 355.854C1400.2 355.854 1400.52 355.589 1401.2 355.118C1401.88 354.667 1402.84 353.894 1404.29 353.157C1407.07 351.561 1411.55 349.534 1417.81 348.907C1424.03 348.35 1431.94 349.531 1440.04 353.595C1448.11 357.57 1456.63 364.132 1462.99 373.892C1469.35 383.58 1473.75 396.071 1474.53 409.988C1475.36 423.902 1472.75 438.968 1467.48 454.016C1462.21 469.075 1454.63 484.386 1444.66 499.146C1434.74 513.949 1422.8 528.334 1409.99 542.879L1410.02 542.836C1389.6 569.685 1367.61 598.586 1344.5 628.961L1344.42 627.84C1364.21 647.155 1384.72 667.174 1405.7 687.643C1428.05 709.477 1449.88 730.796 1470.95 751.382L1471.44 751.86L1471.08 752.441C1452.61 781.539 1434.9 809.447 1418.59 835.148L1418.12 835.888L1417.44 835.337C1386.8 810.625 1358.52 787.812 1333.33 767.498C1320.75 757.337 1308.82 747.928 1298.37 738.477C1287.85 729.126 1278.43 720.213 1270.14 711.906C1253.56 695.28 1241.55 681.108 1233.81 671.078C1229.9 666.089 1227.06 662.131 1225.17 659.443C1224.25 658.12 1223.56 657.112 1223.05 656.379C1222.58 655.685 1222.37 655.317 1222.37 655.317Z" fill="#17282F"/>
<path d="M1838.52 636.831C1838.39 637.09 1835.95 636.015 1831.88 634.784C1827.81 633.573 1822.01 632.369 1815.57 632.684C1809.12 633.032 1803.48 634.833 1799.57 636.473C1795.65 638.132 1793.33 639.461 1793.18 639.22C1793.08 639.061 1795.18 637.351 1799.06 635.365C1802.93 633.398 1808.75 631.32 1815.48 630.959C1822.21 630.627 1828.21 632.086 1832.27 633.626C1836.34 635.189 1838.61 636.665 1838.52 636.831Z" fill="#17282F"/>
<path d="M1496.32 830.865C1493.01 832.524 1482.8 837.594 1473.3 842.308C1461.89 847.974 1448.21 846.445 1438.33 838.393L1423.92 826.658L1463.72 764.055C1468.4 766.092 1487.61 768.816 1494.25 771.158C1500 773.189 1506.06 774.177 1512.15 774.167C1518.59 774.157 1526.87 773.835 1532.41 772.502C1532.86 772.34 1533.43 772.206 1533.83 772.028C1534.79 771.602 1535.73 771.47 1536.66 771.457C1542.35 770.952 1546.86 776.894 1543.67 781.595C1540.41 786.413 1524.94 792.55 1505.11 791.986C1504.8 791.989 1504.51 792.029 1504.19 792.029C1486.77 792.006 1502.75 806.607 1513.07 815.256C1516.71 818.305 1518.77 822.996 1518.05 827.687C1517.78 829.495 1517.1 831.105 1515.73 831.967C1511.33 834.727 1496.32 830.865 1496.32 830.865Z" fill="#AD584B"/>
<path d="M1549.6 391.343C1519.08 391.343 1491.64 365.333 1491.9 326.593L1486.41 105.918L1487.02 106.017C1486.84 96.4461 1494.01 88.3213 1503.53 87.3127L1594.49 77.6916C1625.83 74.3773 1653.58 97.8561 1655.56 129.311C1657.76 164.258 1659.07 207.009 1654.93 233.086C1646.6 285.518 1606.42 292.186 1606.42 292.186L1607.4 328.816C1608.94 367.851 1579.74 391.343 1549.6 391.343Z" fill="#AD584B"/>
<path d="M1635.23 157.759C1635.35 161.309 1632.45 164.345 1628.74 164.544C1625.04 164.739 1621.94 162.032 1621.81 158.482C1621.69 154.929 1624.59 151.89 1628.29 151.695C1631.99 151.492 1635.1 154.209 1635.23 157.759Z" fill="#17282F"/>
<path d="M1646.28 151.552C1645.45 152.428 1640.36 148.659 1633.12 148.679C1625.89 148.593 1620.58 152.312 1619.8 151.429C1619.41 151.038 1620.26 149.452 1622.58 147.77C1624.85 146.091 1628.73 144.462 1633.24 144.482C1637.75 144.509 1641.54 146.167 1643.72 147.866C1645.94 149.571 1646.7 151.16 1646.28 151.552Z" fill="#17282F"/>
<path d="M1565.38 159.109C1565.51 162.659 1562.6 165.698 1558.89 165.894C1555.2 166.093 1552.09 163.383 1551.96 159.833C1551.84 156.283 1554.74 153.244 1558.44 153.042C1562.15 152.842 1565.25 155.56 1565.38 159.109Z" fill="#17282F"/>
<path d="M1575.16 152.899C1574.32 153.778 1569.23 150.009 1561.99 150.029C1554.77 149.939 1549.46 153.665 1548.67 152.779C1548.28 152.388 1549.13 150.802 1551.45 149.12C1553.72 147.445 1557.61 145.812 1562.11 145.832C1566.62 145.859 1570.41 147.518 1572.59 149.216C1574.81 150.922 1575.57 152.507 1575.16 152.899Z" fill="#17282F"/>
<path d="M1601.42 206.565C1601.39 206.15 1605.88 205.374 1613.17 204.441C1615.02 204.252 1616.77 203.884 1617.08 202.623C1617.52 201.286 1616.74 199.296 1615.84 197.146C1614.11 192.674 1612.29 187.989 1610.38 183.079C1602.8 163.047 1597.3 146.575 1598.11 146.274C1598.92 145.975 1605.73 161.969 1613.32 182.004C1615.14 186.944 1616.89 191.652 1618.55 196.157C1619.25 198.257 1620.45 200.639 1619.51 203.41C1619.01 204.79 1617.65 205.788 1616.47 206.11C1615.28 206.472 1614.25 206.492 1613.33 206.545C1606 206.94 1601.45 206.973 1601.42 206.565Z" fill="#17282F"/>
<path d="M1606.42 292.186C1606.42 292.186 1571.15 294.462 1536.2 273.458C1536.2 273.458 1554.37 312.911 1606.84 308.001L1606.42 292.186Z" fill="#984334"/>
<path d="M1578.41 140.232C1577.7 142.196 1570.48 141.264 1561.99 142.289C1553.48 143.142 1546.63 145.63 1545.5 143.861C1545 143.019 1546.19 141.168 1548.96 139.263C1551.7 137.359 1556.09 135.554 1561.18 134.987C1566.28 134.429 1570.94 135.239 1574.04 136.496C1577.15 137.754 1578.72 139.296 1578.41 140.232Z" fill="#17282F"/>
<path d="M1643.62 130.608C1642.35 132.25 1637.37 130.545 1631.37 130.465C1625.38 130.173 1620.3 131.57 1619.13 129.851C1618.62 129.015 1619.42 127.37 1621.64 125.814C1623.83 124.264 1627.48 122.997 1631.6 123.12C1635.72 123.252 1639.29 124.742 1641.37 126.424C1643.49 128.113 1644.19 129.808 1643.62 130.608Z" fill="#17282F"/>
<path d="M1487.04 156.064C1495.95 154.461 1503.09 157.208 1505.6 165.904C1509.38 178.998 1506.8 185.478 1507.44 194.505C1511.85 193.181 1516.27 191.854 1520.67 190.534C1517.39 160.304 1524.89 137.933 1521.6 107.706C1540.04 113.671 1565.38 102.282 1573.26 83.1656C1588.68 94.8635 1611.1 96.4394 1628 87.014C1632.88 96.2603 1644.02 99.3821 1650.53 97.5507C1660.6 94.7241 1671.02 80.5811 1673.91 70.5353C1679.1 52.451 1676.57 26.5105 1661.91 14.7196C1647.24 2.92876 1617.84 5.75871 1606.42 20.7113C1601.91 26.6133 1601.38 37.5349 1594.11 39.0312C1587.66 40.3549 1581.78 35.5676 1575.88 32.6514C1557.46 23.5478 1532.03 35.6405 1527.48 55.6757C1512.08 46.4991 1493.44 40.5009 1476.21 45.4508C1458.98 50.4007 1445.27 69.4771 1451.12 86.4202C1453.57 93.4967 1459.02 99.6111 1459.62 107.076C1460.77 121.511 1443.48 134.582 1449 147.969C1452.09 155.46 1461.14 158.784 1465.23 165.778C1469.82 173.611 1466.98 183.471 1467.35 192.534C1467.97 207.666 1475.7 230.06 1490.22 234.363" fill="#17282F"/>
<path d="M1488.36 155.885C1482.97 156.402 1480.4 159.952 1478.34 163.89C1476.29 167.825 1475.63 172.353 1475.63 176.796C1475.65 183.693 1477.37 190.866 1481.96 196.018C1486.55 201.167 1494.43 203.715 1500.67 200.785" fill="#AD584B"/>
<path d="M1497.42 189.386C1497.49 189.555 1495.46 190.295 1492.38 189.187C1490.88 188.636 1489.18 187.568 1487.84 185.863C1486.5 184.161 1485.59 181.872 1485.41 179.403C1485.22 176.938 1485.76 174.546 1486.78 172.655C1487.78 170.758 1489.17 169.364 1490.49 168.465C1493.18 166.654 1495.31 166.776 1495.29 166.962C1495.36 167.238 1493.45 167.573 1491.23 169.437C1489.02 171.225 1486.73 174.881 1487.14 179.274C1487.39 183.68 1490.27 186.911 1492.87 188.062C1495.46 189.33 1497.41 189.097 1497.42 189.386Z" fill="#984334"/>
<path d="M1578.38 232.193C1584.86 236.749 1597.56 234.337 1602.27 227.608C1592.17 222.098 1582.81 215.21 1574.56 207.195C1574.56 207.195 1565.13 222.881 1578.38 232.193Z" fill="#FAFAF9"/>
<path d="M1599.84 247.508C1599.55 247.916 1596.22 245.47 1591.41 245.517C1586.61 245.431 1583.26 247.843 1582.97 247.431C1582.83 247.269 1583.47 246.399 1584.95 245.494C1586.41 244.588 1588.76 243.782 1591.42 243.788C1594.08 243.802 1596.42 244.631 1597.87 245.55C1599.34 246.469 1599.98 247.348 1599.84 247.508Z" fill="#B85549"/>
<path d="M1519.07 459.952C1533.75 439.495 1549.83 409.627 1557.19 395.573C1570.9 369.427 1568.59 368.097 1565.3 366.935C1556.46 363.81 1539.47 411.972 1537.18 399.352C1534.91 386.735 1564.74 343.042 1555.38 340.159C1543.17 336.413 1526.29 387.176 1524.55 391.36C1522.86 395.424 1516.77 393.009 1518.54 389.323C1521.09 384.021 1546.5 327.658 1534.55 323.856C1527.92 321.753 1525.53 334.157 1525.53 334.157C1525.53 334.157 1505.6 388.749 1500.01 386.762C1494.34 384.748 1504.97 352.275 1509.32 341.595C1513.62 331.045 1510.4 324.583 1504.2 326.437C1499.97 327.704 1485.88 360.071 1481.83 370.737C1477.77 381.4 1467.15 410.867 1460.71 391.788L1460.37 390.928C1454.53 371.968 1443.76 359.295 1438.15 357.749C1432.67 356.243 1428.49 362.42 1430.8 367.655C1431.11 368.521 1431.54 369.377 1432.25 370.147C1432.54 370.462 1432.85 370.966 1433.15 371.341C1436.19 376.152 1439.16 383.895 1441.23 389.986C1443.2 395.756 1444.22 401.81 1444.13 407.901C1444.05 414.941 1447.62 435.524 1447.19 440.61" fill="#F78F92"/>
<path d="M1443.96 433.278L1363.71 592.425C1363.71 592.425 1318.33 461.126 1293.86 408.903C1284.51 388.958 1265.83 375.203 1247.86 366.05V365.691C1246.61 365.174 1245.36 364.699 1244.11 364.195C1224.06 354.607 1205.81 350.716 1203.68 350.281C1119 326.049 1039.24 334.509 946.908 366.803C946.908 366.803 898.972 379.698 875.739 442.232C854.808 498.572 831.379 584.807 827.358 600.135C798.581 696.943 839.669 750.865 896.816 744.223C920.377 740.513 940.416 721.142 949.281 713.438L979.504 685.033L980.168 707.032L946.368 842.861L1293.86 842.139L1231.15 681.251L1245.06 607.499L1268.91 664.181C1284.09 700.25 1319.03 724.041 1358.15 724.947C1398.01 725.87 1434.55 702.866 1450.96 666.521L1532.23 461.952L1443.96 433.278Z" fill="#778B92"/>
<path d="M1025.42 631.662C1025.52 631.732 1024.4 633.321 1022.3 636.131C1020.19 638.931 1017.06 642.932 1013.05 647.749C1005.06 657.42 993.528 670.379 980.151 684.068C966.768 697.756 954.038 709.546 944.5 717.698C939.746 721.792 935.801 724.99 933.018 727.123C930.237 729.263 928.665 730.398 928.592 730.305C928.515 730.213 929.945 728.899 932.593 726.606C935.24 724.313 939.052 720.983 943.694 716.783C953.003 708.412 965.563 696.518 978.917 682.856C992.26 669.198 1003.91 656.408 1012.12 646.96C1016.24 642.252 1019.51 638.377 1021.78 635.71C1024.04 633.036 1025.33 631.586 1025.42 631.662Z" fill="#17282F"/>
<path d="M1232.12 676.102C1232.07 676.091 1232.13 675.451 1232.32 674.243C1232.55 672.85 1232.85 671.108 1233.21 668.979C1234.1 664.182 1235.32 657.653 1236.8 649.684C1239.87 633.4 1244.04 610.897 1247.38 585.856C1248.21 579.593 1248.96 573.474 1249.62 567.552C1250.33 561.61 1250.87 555.974 1250.57 550.536C1250.09 539.668 1248.04 529.984 1246.3 521.915C1244.51 513.837 1242.86 507.331 1241.95 502.776C1241.48 500.5 1241.21 498.708 1241.08 497.491C1240.99 496.263 1240.97 495.623 1241.04 495.62C1241.09 495.616 1241.23 496.243 1241.43 497.441C1241.67 498.632 1242.04 500.384 1242.61 502.626C1243.71 507.118 1245.54 513.571 1247.49 521.64C1249.39 529.705 1251.58 539.416 1252.16 550.466C1252.51 555.987 1251.99 561.843 1251.31 567.738C1250.67 573.674 1249.92 579.812 1249.09 586.085C1245.75 611.182 1241.37 633.693 1238 649.922C1236.29 657.845 1234.89 664.344 1233.87 669.111C1233.38 671.219 1232.98 672.937 1232.66 674.311C1232.37 675.498 1232.18 676.115 1232.12 676.102Z" fill="#17282F"/>
<path d="M1356.54 631.318C1356.07 631.231 1357.31 622.502 1359.3 611.823C1361.29 601.136 1363.29 592.555 1363.76 592.64C1364.23 592.727 1362.99 601.455 1361 612.137C1359 622.82 1357.01 631.407 1356.54 631.318Z" fill="#17282F"/>
<path d="M1368.8 636.028C1368.32 636.084 1366.77 626.063 1365.33 613.647C1363.89 601.229 1363.11 591.121 1363.58 591.064C1364.05 591.011 1365.61 601.03 1367.05 613.448C1368.49 625.863 1369.27 635.971 1368.8 636.028Z" fill="#17282F"/>
<path d="M1112.47 842.139C1111.99 842.139 1111.61 788.801 1111.61 723.023C1111.61 657.221 1111.99 603.894 1112.47 603.894C1112.95 603.894 1113.34 657.221 1113.34 723.023C1113.34 788.801 1112.95 842.139 1112.47 842.139Z" fill="#17282F"/>
<path d="M1247.38 613.196C1246.66 611.468 1246.08 610.074 1245.66 609.086C1245.67 609.049 1245.67 609.009 1245.68 608.969L1247.43 613.12L1247.38 613.196Z" fill="#263F48"/>
<path d="M1275.93 677.856C1275.77 677.856 1275.2 676.841 1274.34 675.149C1274.87 676.061 1275.4 676.958 1275.95 677.847C1275.95 677.85 1275.95 677.85 1275.95 677.85C1275.94 677.854 1275.94 677.856 1275.93 677.856ZM1264.57 653.854C1263.4 651.185 1262.32 648.712 1261.47 646.691C1255.68 632.992 1250.35 620.276 1247.38 613.196L1247.43 613.12L1264.57 653.854Z" fill="#263F48"/>
<path d="M1275.95 677.847C1275.4 676.958 1274.87 676.062 1274.34 675.149C1272.09 670.681 1267.92 661.491 1264.57 653.854L1247.43 613.12L1245.68 608.969C1246.88 601.678 1248.04 594.01 1249.09 586.085C1249.92 579.812 1250.67 573.674 1251.31 567.738C1251.99 561.843 1252.51 555.987 1252.16 550.466C1251.58 539.416 1249.39 529.705 1247.49 521.64C1246.08 515.797 1244.73 510.801 1243.68 506.787C1259.6 537.485 1273.34 568.103 1274.6 602.699C1275.6 630.08 1264.64 652.895 1275.95 677.85" fill="#566A72"/>
<path d="M1245.66 609.086C1245.2 607.982 1244.95 607.38 1244.95 607.38C1244.95 607.38 1250.99 560.486 1251.49 552.494C1251.99 544.508 1242.86 505.221 1242.86 505.221C1243.14 505.745 1243.4 506.263 1243.68 506.787C1244.73 510.801 1246.08 515.797 1247.49 521.64C1249.39 529.705 1251.58 539.416 1252.16 550.466C1252.51 555.987 1251.99 561.843 1251.31 567.738C1250.67 573.674 1249.92 579.812 1249.09 586.085C1248.04 594.01 1246.88 601.678 1245.68 608.969C1245.67 609.009 1245.67 609.05 1245.66 609.086Z" fill="#111D23"/>
<path d="M839.248 666.772C837.476 666.772 831.11 626.171 839.046 615.093C845.422 606.2 856.397 601.923 867.003 599.226C877.613 596.532 888.734 594.85 898.159 589.282C910.325 582.1 918.008 569.483 926.578 558.25C935.144 547.012 946.454 499.345 960.547 498.337V567.917C927.394 588.785 892.32 609.759 855.654 626.745C855.654 626.745 839.646 639.346 839.669 663.85C839.673 665.874 839.51 666.772 839.248 666.772Z" fill="#566A72"/>
<path d="M979.504 685.033L981.76 682.415C994.453 669.337 1005.38 657.032 1013.05 647.749C1017.06 642.932 1020.19 638.931 1022.3 636.131C1024.03 633.821 1025.09 632.335 1025.36 631.841L1043.95 610.283L1112.18 611.049C1112.02 618.717 1111.89 632.153 1111.79 649.452C1109.73 649.508 1107.66 649.531 1105.59 649.531C1099.81 649.531 1094.02 649.346 1088.22 649.159C1082.43 648.973 1076.65 648.787 1070.88 648.787C1062.02 648.787 1053.21 649.225 1044.48 650.765C1018.81 655.296 1002.21 672.273 979.504 685.033ZM1113.15 649.408C1113.05 632.136 1112.92 618.717 1112.77 611.057L1115.54 611.086C1116.92 623.746 1118.3 636.403 1119.68 649.063C1117.51 649.222 1115.33 649.335 1113.15 649.408Z" fill="#566A72"/>
<path d="M981.76 682.415L1025.36 631.841C1025.09 632.335 1024.03 633.821 1022.3 636.131C1020.19 638.931 1017.06 642.932 1013.05 647.749C1005.38 657.032 994.453 669.337 981.76 682.415Z" fill="#111D23"/>
<path d="M1111.79 649.452C1111.89 632.153 1112.02 618.717 1112.18 611.049L1112.77 611.057C1112.92 618.717 1113.05 632.136 1113.15 649.408C1112.7 649.425 1112.25 649.438 1111.79 649.452Z" fill="#111D23"/>
<path d="M960.543 497.484C961.021 497.484 961.409 512.99 961.409 532.117C961.409 551.242 961.021 566.75 960.543 566.75C960.069 566.75 959.681 551.242 959.681 532.117C959.681 512.99 960.069 497.484 960.543 497.484Z" fill="#17282F"/>
<path d="M839.583 663.471C839.384 663.482 838.989 661.136 839.208 657.31C839.411 653.502 840.399 648.221 842.712 642.826C845.044 637.438 848.206 633.089 850.833 630.322C853.464 627.541 855.438 626.214 855.568 626.367C855.982 626.745 848.746 632.979 844.301 643.51C839.706 653.969 840.141 663.512 839.583 663.471Z" fill="#17282F"/>
<path d="M853.885 627.426C853.938 627.541 855.796 626.854 859.114 625.514C862.438 624.187 867.189 622.127 873.001 619.463C884.629 614.145 900.425 606.208 917.238 596.37C934.045 586.506 948.643 576.629 958.911 569.115C964.05 565.359 968.144 562.237 970.904 560.002C973.674 557.775 975.167 556.497 975.088 556.399C975.005 556.299 973.363 557.384 970.456 559.43C967.265 561.663 963.118 564.566 958.125 568.06C947.674 575.289 933.01 584.963 916.26 594.786C899.506 604.596 883.866 612.686 872.414 618.288C866.907 620.95 862.328 623.162 858.808 624.861C855.59 626.403 853.832 627.309 853.885 627.426Z" fill="#17282F"/>
<path d="M956.207 210.553L956.241 210.354L956.589 210.208L956.207 210.553ZM1289.82 200.291C1284.13 192.823 1275.07 187.15 1273.35 177.92C1271.07 165.672 1283.17 154.196 1281.06 141.918C1279.62 133.514 1271.87 127.629 1263.99 124.367C1256.12 121.106 1247.51 119.54 1240.16 115.214C1231.34 110.019 1225.11 101.217 1221.16 91.775C1220.06 89.1474 1219.15 86.4568 1218.32 83.7331C1217.43 77.8808 1216.36 71.9588 1214.31 66.5013C1214.03 65.0383 1213.75 63.5752 1213.48 62.1121L1213.84 65.3269C1212.72 62.5733 1211.35 59.9391 1209.54 57.5338C1203.48 49.4454 1191.32 44.9401 1182.97 50.6298L1186.93 47.9492C1177.16 23.6177 1153.77 5.29111 1127.81 1.6152C1122.83 0.908539 1117.8 0.75592 1112.8 1.10095C1094.93 0.181976 1069.08 5.40393 1058.16 12.3179C1044.23 21.1494 1029.95 33.2786 1022.97 48.2278C1019.21 56.2996 1016.67 65.6023 1009.57 70.9735C1000.08 78.1528 986.756 75.3694 974.935 76.703C955.408 78.9059 938.498 93.8817 931.8 112.351C925.101 130.82 927.941 152 937.231 169.311C939.284 173.146 941.709 177.546 940.084 181.576C938.826 184.698 935.555 186.414 932.636 188.092C924.935 192.518 917.872 198.742 914.561 206.983C911.25 215.224 912.514 225.688 919.209 231.52C924.637 236.254 932.692 236.961 939.473 234.426C937.539 239.443 936.378 244.714 936.361 250.099C936.332 261.81 942.26 273.856 952.644 279.271C963.032 284.685 977.576 281.822 983.687 271.833C983.591 286.48 992.064 300.872 1004.92 307.895C1017.77 314.915 1034.46 314.272 1046.73 306.279C1051.66 303.071 1056.7 298.573 1062.5 299.502C1068.18 300.404 1071.58 306.041 1075.57 310.181C1086.2 321.215 1104.3 322.509 1118.26 316.216C1132.23 309.919 1142.52 297.421 1149.93 284.012C1155.04 291.685 1164.74 296.038 1173.87 294.757C1183.01 293.48 1191.14 286.639 1193.95 277.851C1206.25 293.596 1230.69 298.198 1247.88 288.006C1259.57 281.065 1266.85 267.891 1267.82 254.402C1278.75 252.687 1288.75 245.444 1293.5 235.418C1298.8 224.231 1297.33 210.141 1289.82 200.291Z" fill="#17282F"/>
<path d="M1166.66 293.941C1166.66 293.941 1209.14 286.888 1217.94 231.467C1222.32 203.904 1220.93 158.711 1218.61 121.769C1216.51 88.5202 1187.18 63.7043 1154.05 67.2078L1057.9 77.3797C1047.83 78.4446 1040.26 87.0339 1040.46 97.1494L1050.56 337.943C1043.56 339.446 1027.66 342.912 1019.88 345.165C1019.88 345.165 1094.26 511.398 1112.47 509.471C1130.67 507.543 1203.47 350.241 1203.47 350.241C1203.47 350.241 1187.99 345.295 1164.93 340.793C1164.54 315.33 1166.66 293.941 1166.66 293.941Z" fill="#F78F92"/>
<path d="M1197.11 151.844C1197.25 155.599 1194.18 158.804 1190.26 159.017C1186.35 159.222 1183.06 156.359 1182.93 152.607C1182.8 148.851 1185.87 145.643 1189.78 145.431C1193.69 145.222 1196.98 148.092 1197.11 151.844Z" fill="#17282F"/>
<path d="M1208.8 145.278C1207.92 146.207 1202.53 142.22 1194.89 142.243C1187.25 142.153 1181.63 146.088 1180.8 145.149C1180.39 144.738 1181.29 143.062 1183.74 141.284C1186.14 139.512 1190.25 137.787 1195.01 137.807C1199.77 137.834 1203.78 139.589 1206.09 141.383C1208.44 143.188 1209.24 144.864 1208.8 145.278Z" fill="#17282F"/>
<path d="M1123.28 153.27C1123.42 157.023 1120.34 160.231 1116.43 160.443C1112.52 160.652 1109.23 157.789 1109.1 154.033C1108.97 150.281 1112.04 147.07 1115.95 146.861C1119.86 146.645 1123.15 149.518 1123.28 153.27Z" fill="#17282F"/>
<path d="M1133.62 146.708C1132.73 147.634 1127.34 143.649 1119.7 143.672C1112.06 143.583 1106.45 147.514 1105.62 146.579C1105.21 146.164 1106.1 144.492 1108.55 142.714C1110.96 140.939 1115.06 139.217 1119.83 139.237C1124.59 139.263 1128.6 141.015 1130.9 142.81C1133.25 144.615 1134.05 146.293 1133.62 146.708Z" fill="#17282F"/>
<path d="M1161.38 203.433C1161.34 202.995 1166.1 202.175 1173.8 201.19C1175.75 200.988 1177.6 200.6 1177.93 199.269C1178.39 197.856 1177.57 195.749 1176.63 193.48C1174.79 188.752 1172.87 183.799 1170.85 178.604C1162.83 157.431 1157.02 140.02 1157.88 139.705C1158.73 139.389 1165.93 156.296 1173.95 177.469C1175.88 182.694 1177.73 187.671 1179.48 192.432C1180.22 194.651 1181.49 197.169 1180.5 200.099C1179.97 201.555 1178.54 202.613 1177.28 202.952C1176.03 203.333 1174.94 203.357 1173.97 203.413C1166.22 203.831 1161.41 203.864 1161.38 203.433Z" fill="#17282F"/>
<path d="M1166.66 293.941C1166.66 293.941 1129.37 296.343 1092.44 274.141C1092.44 274.141 1110.44 312.215 1165.91 307.026L1166.66 293.941Z" fill="#F57978"/>
<path d="M1139.84 215.396C1141.59 214.331 1143.42 213.236 1145.46 212.981C1147.5 212.729 1149.82 213.558 1150.66 215.433C1150.95 216.063 1151.06 216.786 1151.47 217.347C1152.57 218.873 1154.94 218.332 1156.75 218.856C1159.59 219.683 1160.76 223.425 1159.68 226.178C1158.6 228.932 1155.93 230.753 1153.19 231.888C1149.46 233.431 1145.32 233.995 1141.3 233.517C1138.51 233.179 1135.56 232.193 1133.96 229.874C1132.04 227.107 1132.67 223.186 1134.54 220.389C1136.42 217.592 1139.32 215.675 1142.13 213.827" fill="#F57978"/>
<path d="M1138.87 208.721C1140.11 208.651 1140.13 216.952 1147.23 222.844C1154.33 228.756 1163.18 227.824 1163.24 228.985C1163.36 229.506 1161.27 230.597 1157.54 230.697C1153.87 230.823 1148.52 229.649 1144.17 226.042C1139.84 222.43 1137.97 217.606 1137.69 214.202C1137.37 210.732 1138.3 208.675 1138.87 208.721Z" fill="#17282F"/>
<path d="M1137.06 133.318C1136.31 135.395 1128.67 134.41 1119.7 135.491C1110.7 136.394 1103.46 139.021 1102.27 137.153C1101.74 136.261 1103 134.307 1105.93 132.293C1108.83 130.283 1113.46 128.372 1118.84 127.771C1124.23 127.184 1129.16 128.036 1132.43 129.367C1135.73 130.694 1137.39 132.329 1137.06 133.318Z" fill="#17282F"/>
<path d="M1205.99 127.997C1204.64 129.732 1199.37 127.93 1193.04 127.847C1186.71 127.539 1181.34 129.012 1180.1 127.197C1179.56 126.311 1180.41 124.573 1182.75 122.927C1185.06 121.292 1188.93 119.951 1193.28 120.081C1197.63 120.22 1201.4 121.796 1203.61 123.574C1205.85 125.359 1206.58 127.147 1205.99 127.997Z" fill="#17282F"/>
<path d="M1186.18 58.9836C1182.05 78.5609 1169.76 96.2803 1152.86 106.986C1135.96 117.692 1114.68 121.245 1095.23 116.611C1092.31 140.916 1075.64 163.097 1053.11 172.659C1068.4 200.212 1074.76 232.635 1071 263.923C1069.38 277.35 1065.48 291.38 1055.41 300.407C1040.03 314.192 1014.06 310.848 999.264 296.439C985.084 282.635 980.074 260.971 984.085 241.589C988.093 222.214 1000.26 205.155 1015.56 192.604C1002.75 190.411 991.587 180.531 987.844 168.097C984.102 155.663 987.967 141.261 997.432 132.373C1001.8 128.262 1007.29 125.2 1010.58 120.187C1013.68 115.453 1014.42 109.604 1016.31 104.269C1021.27 90.3053 1033.76 80.6277 1045.63 71.7664C1055.69 64.2553 1066.71 56.4124 1079.26 56.4456C1085.96 56.4622 1092.61 58.7746 1099.24 57.8788C1108.36 56.6447 1115.48 49.7307 1123.03 44.4789C1133.69 37.0739 1146.87 32.5222 1159.69 34.5293C1172.5 36.5398 1184.49 46.1245 1186.91 58.8708" fill="#17282F"/>
<path d="M1181.24 64.4641C1179.28 75.1635 1184.7 86.1449 1192.58 93.6427C1200.46 101.141 1210.55 105.802 1220.44 110.334C1216.56 99.9063 1212.59 89.343 1206.1 80.3058C1199.61 71.2686 1190.17 63.7841 1179.17 62.112" fill="#17282F"/>
<path d="M937.456 192.243C937.456 192.243 936.922 191.091 937.161 188.772C937.377 186.5 938.717 183.056 942.134 180.206C945.515 177.273 951.079 175.807 957.256 176.069C963.467 176.162 970.354 178.133 977.948 177.671C985.459 177.227 993.474 172.758 998.126 165.184C1000.52 161.435 1001.64 156.903 1001.9 152.152C1002.21 147.388 1001.79 142.412 1002.06 137.233C1002.26 132.101 1003.54 126.547 1006.9 122.085C1010.18 117.576 1015.01 114.345 1020.18 112.112C1030.62 107.391 1042.54 107.305 1053.96 105.175C1059.69 104.11 1065.26 102.451 1070.06 99.5348C1074.89 96.6551 1078.77 92.5545 1082.06 88.1852C1088.53 79.2873 1092.86 69.351 1098.81 60.9043C1104.62 52.3183 1112.52 45.9153 1120.73 41.8214C1128.96 37.6876 1137.52 35.7867 1145.33 35.6573C1153.15 35.5445 1160.17 37.0141 1165.96 39.1739C1171.79 41.2706 1176.39 44.0574 1179.93 46.5722C1186.95 51.7311 1189.7 55.7786 1189.7 55.7786C1189.68 55.7985 1189.45 55.5961 1189.04 55.1881C1188.55 54.707 1187.95 54.1098 1187.21 53.3667C1185.56 51.8141 1183.08 49.5548 1179.54 47.1197C1172.57 42.339 1160.78 36.5231 1145.36 36.8781C1137.73 37.0838 1129.37 39.0114 1121.37 43.0987C1113.38 47.1628 1105.75 53.4098 1100.11 61.8134C1094.31 70.1107 1090.02 80.0504 1083.42 89.1871C1080.05 93.6792 1076.02 97.9755 1070.95 101.008C1065.9 104.077 1060.11 105.785 1054.28 106.873C1042.61 109.03 1030.92 109.116 1020.85 113.665C1015.86 115.808 1011.29 118.877 1008.23 123.063C1005.1 127.204 1003.88 132.313 1003.65 137.323C1003.36 142.345 1003.76 147.345 1003.41 152.252C1003.13 157.129 1001.9 162.002 999.343 165.937C994.383 173.889 985.924 178.498 978.028 178.889C970.118 179.271 963.291 177.2 957.219 177.035C951.178 176.689 945.837 178.013 942.556 180.73C939.218 183.385 937.825 186.639 937.506 188.819C937.161 191.042 937.576 192.236 937.456 192.243Z" fill="#FAFAF9"/>
<path d="M1019.88 448.337L1023.38 536.725L1032.29 621.321L1126.27 617.314L1119.51 450.241L1019.88 448.337Z" fill="#17282F"/>
<path d="M1006.07 448.031L1009.58 536.725L1018.5 621.321L1112.47 617.314L1105.7 449.979L1006.07 448.031Z" fill="#33535F"/>
<path d="M997.263 631.662C1022.44 631.188 1055.99 626.195 1071.65 623.69C1100.81 619.032 1100.49 616.388 1099.46 613.056C1096.67 604.105 1047.91 619.294 1056.66 609.919C1065.4 600.547 1118.27 598.314 1114.97 589.087C1110.68 577.067 1059.9 593.907 1055.5 595.016C1051.23 596.091 1049.52 589.764 1053.54 588.98C1059.31 587.853 1119.68 574.489 1115.57 562.639C1113.3 556.07 1101.92 561.574 1101.92 561.574C1101.92 561.574 1046.26 578.265 1044.51 572.602C1042.72 566.852 1075.11 555.944 1086.27 553.037C1097.29 550.172 1100.55 543.728 1095.35 539.867C1091.81 537.236 1057.44 545.311 1046.47 548.443C1035.5 551.572 1005.53 560.695 1016.96 544.113L1017.45 543.33C1029.16 527.313 1032.86 511.093 1030.74 505.669C1028.67 500.38 1021.22 500.729 1018.41 505.708C1017.9 506.475 1017.47 507.331 1017.28 508.359C1017.2 508.787 1016.99 509.335 1016.86 509.799C1014.83 515.117 1010.4 522.121 1006.76 527.432C1003.31 532.458 999.065 536.894 994.138 540.477C988.442 544.617 974.09 559.793 969.757 562.49" fill="#F78F92"/>
<path d="M975.705 557.463L1025.42 631.662L943.511 715.207L946.284 579.705L975.705 557.463Z" fill="#566A72"/>
</svg>
