<svg width="150" height="150" viewBox="0 0 150 150" fill="none" xmlns="http://www.w3.org/2000/svg">
<path fill-rule="evenodd" clip-rule="evenodd" d="M131.674 0C141.788 0 150 8.21191 150 18.3264V131.674C150 141.788 141.788 150 131.674 150H18.3264C8.21191 150 0 141.788 0 131.674V18.3264C0 8.21191 8.21162 0 18.3264 0H131.674V0ZM133.503 96.8719C133.772 92.8219 133.442 88.9553 132.505 85.2524C131.559 81.544 130.041 78.2376 127.917 75.3475C125.789 72.4515 123.079 70.1382 119.779 68.4296C116.461 66.6987 112.597 65.85 108.182 65.85C104.182 65.85 100.57 66.5602 97.2946 67.972C94.0216 69.392 91.2117 71.3338 88.8401 73.7941C86.4741 76.2404 84.6712 79.1584 83.373 82.5398C82.0972 85.9099 81.4453 89.5547 81.4453 93.4573C81.4453 97.493 82.0723 101.218 83.3177 104.583C84.5769 107.964 86.3438 110.843 88.6184 113.278C90.9539 115.706 93.7274 117.564 97.0477 118.893C100.371 120.202 104.071 120.867 108.182 120.867C114.081 120.867 119.141 119.517 123.293 116.807C127.495 114.105 130.571 109.62 132.602 103.337H119.976C119.487 104.952 118.223 106.508 116.145 107.964C114.048 109.423 111.552 110.152 108.662 110.152C104.639 110.152 101.536 109.099 99.3861 107.002C97.2337 104.904 95.8412 100.999 95.8412 96.8719H133.503V96.8719ZM51.339 119.517C54.5733 119.517 57.7271 119.109 60.7641 118.305C63.8376 117.497 66.5751 116.255 68.9634 114.565C71.3323 112.89 73.2545 110.718 74.6663 108.039C76.067 105.39 76.766 102.245 76.766 98.5887C76.766 94.0787 75.6926 90.2341 73.5041 87.0193C71.3268 83.8269 68.037 81.5827 63.6073 80.3068C66.861 78.7647 69.2991 76.7815 70.9576 74.3628C72.6082 71.9385 73.4291 68.9068 73.4291 65.2787C73.4291 61.9251 72.8772 59.0877 71.7814 56.8216C70.6553 54.5221 69.0826 52.6969 67.0746 51.3237C65.0329 49.9509 62.6227 48.9495 59.7935 48.3504C56.9502 47.7319 53.838 47.4352 50.3903 47.4352H16.4062V119.517H51.339V119.517ZM49.5305 87.3911C52.945 87.3911 55.7215 88.176 57.8074 89.7571C59.8849 91.3576 60.9334 93.9981 60.9334 97.7121C60.9334 99.6067 60.6255 101.177 59.9848 102.386C59.3467 103.601 58.4648 104.561 57.4052 105.26C56.3399 105.986 55.0834 106.48 53.6634 106.788C52.2653 107.101 50.7785 107.24 49.217 107.24H32.2749V87.3911H49.5305ZM115.859 79.5773C114.154 77.6941 111.272 76.6731 107.752 76.6731C105.461 76.6731 103.566 77.0587 102.046 77.8438C100.559 78.6205 99.3445 79.5829 98.4152 80.7202C97.4889 81.8739 96.8619 83.0944 96.4931 84.3981C96.1269 85.6685 95.9051 86.8195 95.8412 87.8376H119.163C118.822 84.1819 117.571 81.4775 115.859 79.5773V79.5773ZM47.1255 59.7144C48.532 59.7146 49.8996 59.8143 51.2086 60.0694C52.5372 60.2997 53.6856 60.7213 54.7008 61.3345C55.7215 61.9251 56.5342 62.7656 57.1471 63.842C57.738 64.9181 58.0292 66.305 58.0292 67.9802C58.0292 71.0036 57.1471 73.2032 55.3222 74.5374C53.4776 75.8909 51.1477 76.5568 48.3378 76.5568H32.2749V59.7144H47.1255V59.7144ZM122.125 59.3845V52.2724H92.9065V59.3845H122.125Z" fill="#FEFEFE"/>
</svg>
