<svg width="150" height="150" viewBox="0 0 150 150" fill="none" xmlns="http://www.w3.org/2000/svg">
<path fill-rule="evenodd" clip-rule="evenodd" d="M131.674 0C141.788 0 150 8.21191 150 18.3264V131.674C150 141.788 141.788 150 131.674 150H100.482V93.4819H119.994L123.706 69.2766H100.482V53.5685C100.482 46.9465 103.726 40.4915 114.128 40.4915H124.688V19.8841C124.688 19.8841 115.104 18.2487 105.943 18.2487C86.8154 18.2487 74.3139 29.8412 74.3139 50.828V69.2766H53.0522V93.4819H74.3139V150H18.3264C8.21191 150 0 141.788 0 131.674V18.3264C0 8.21191 8.21162 0 18.3264 0H131.674V0Z" fill="#FEFEFE"/>
</svg>
