<svg width="150" height="150" viewBox="0 0 150 150" fill="none" xmlns="http://www.w3.org/2000/svg">
<path fill-rule="evenodd" clip-rule="evenodd" d="M131.674 0C141.788 0 150 8.21191 150 18.3264V131.674C150 141.788 141.788 150 131.674 150H18.3264C8.21191 150 0 141.788 0 131.674V18.3264C0 8.21191 8.21162 0 18.3264 0H131.674V0ZM47.0101 124.007V57.8792H25.0257V124.007H47.0101ZM126.27 124.007V86.0856C126.27 65.7732 115.424 56.3241 100.963 56.3241C89.3013 56.3241 84.0776 62.7375 81.1529 67.2419V57.8792H59.1741C59.4656 64.0846 59.1741 124.007 59.1741 124.007H81.1526V87.0768C81.1526 85.0998 81.295 83.124 81.8774 81.711C83.4636 77.7633 87.0826 73.6737 93.155 73.6737C101.105 73.6737 104.29 79.7402 104.29 88.626V124.007H126.27V124.007ZM36.1664 25.9928C28.6447 25.9928 23.7305 30.9378 23.7305 37.4191C23.7305 43.7643 28.4953 48.8455 35.8755 48.8455H36.0173C43.6828 48.8455 48.4544 43.7643 48.4544 37.4191C48.3123 30.9469 43.6963 26.0068 36.1664 25.9928V25.9928Z" fill="#FEFEFE"/>
</svg>
