<svg xmlns="http://www.w3.org/2000/svg" viewBox="0 0 203.91 166.26"><defs><style>.cls-1{fill:#1a1a1a;}</style></defs><title>Asset 3</title><g id="Layer_2" data-name="Layer 2"><g id="Layer_1-2" data-name="Layer 1"><path class="cls-1" d="M173.69,81.91A62,62,0,0,1,186.1,89,46.75,46.75,0,0,1,199,102.39q4.9,7.69,4.91,18.78c0,7.88-2,14.66-6,20.39a47.67,47.67,0,0,1-15.61,14.18A77.42,77.42,0,0,1,160.46,164a135,135,0,0,1-15.07,2.26H29.81V78.52a34.56,34.56,0,0,1,7.32-.76,57.33,57.33,0,0,1,14.16,1.87v81.88c16.53,0,79.44,2.15,97.65-1.59A73.11,73.11,0,0,0,166.69,154a35.81,35.81,0,0,0,12.49-9.76,20.91,20.91,0,0,0,4.67-13.35,21.15,21.15,0,0,0-8.29-17,67.19,67.19,0,0,0-18.92-11l-1.85-.75a39.6,39.6,0,0,0,4-2.4c6.36-4.32,11.19-11,14.87-17.83M29.81,3.27h74.9c1-.28,1.92-.54,2.9-.78A87,87,0,0,1,128.47,0a93.53,93.53,0,0,1,22.42,2.71,71.2,71.2,0,0,1,19.49,7.81,41.39,41.39,0,0,1,13.55,12.66,28.14,28.14,0,0,1,4.55,17.31,39.26,39.26,0,0,0-6.89-15.83,44.06,44.06,0,0,0-12-11,54.1,54.1,0,0,0-15.41-6.37,72.09,72.09,0,0,0-17-2A72.91,72.91,0,0,0,119.4,7.35a56.38,56.38,0,0,0-15.29,6.11,34.92,34.92,0,0,0-10.74,9.76,22,22,0,0,0-4.08,13,19,19,0,0,0,4.9,13.16,42,42,0,0,0,12.92,9.38,124.47,124.47,0,0,0,18.41,7.13c6.92,2.11,13.93,4.22,21.09,6.33,5.54,1.67,8.94,2.73,14.33,4.68-5.09,3.36-13.75,7.4-23.16,6.86-28.32-1.64-67.16-20.1-66-41.85.39-7.26,1.64-13.5,4.91-18.7a42.57,42.57,0,0,1,12.84-13C90.6,9.47,94.3,7.67,95.44,7,80.92,6.41,65.88,7,51.29,7V57.17a67.28,67.28,0,0,0-11.68-1.05,43.8,43.8,0,0,0-9.8,1.07ZM0,102.1Q5.57,78.6,15.78,70.23a36.5,36.5,0,0,1,23.83-8.35,73.81,73.81,0,0,1,23.82,4.33q12.69,4.33,25.69,9.9t26,9.9c32.41,10.81,48.33-.06,68.23-26.59-4.54,9.49-22.85,32.27-28.62,36.18a33.43,33.43,0,0,1-19.19,5.88,69.35,69.35,0,0,1-23.82-4.64Q99,92.21,86,86.63T60.65,76.42a67.1,67.1,0,0,0-23.52-4.64,35.75,35.75,0,0,0-21,6.5Q6.81,84.78,0,102.1"/></g></g></svg>