<svg width="250" height="70" viewBox="0 0 250 70" fill="none" xmlns="http://www.w3.org/2000/svg">
<path fill-rule="evenodd" clip-rule="evenodd" d="M18.7783 67.7063C18.7783 66.8998 18.693 58.8741 18.693 57.9509V53.0447L35.871 53.1585L35.6178 44.0403C26.1866 44.2125 20.545 44.5595 18.693 44.5595V35.6661L37.2181 35.3802L36.8809 25.8552C28.0387 26.0857 6.90335 26.7215 0 26.7215C0.167854 28.3958 0.335708 42.3092 0.335708 43.2309V50.9081C0.335708 52.2936 0.335708 64.648 0 67.7077H18.7783V67.7063V67.7063Z" fill="#E39E56"/>
<path fill-rule="evenodd" clip-rule="evenodd" d="M111.913 58.3537C107.955 58.587 95.2398 58.4703 93.0506 58.4703V51.6011C94.9013 51.6011 106.102 51.833 108.375 51.833L108.122 42.5953C104.418 42.8257 94.732 43.1145 93.0492 43.1145V35.4942C94.5656 35.4942 107.785 35.2069 110.9 35.2069L110.564 25.6819C107.448 25.8554 79.1514 26.7203 74.4387 26.7203C74.5241 28.3946 74.6905 42.308 74.6905 43.2297V50.9652C74.6905 52.2924 74.6905 64.6468 74.4387 67.7065C78.8186 67.7065 109.216 68.2841 112.249 68.2841L111.913 58.3537V58.3537Z" fill="#F1D34C"/>
<path fill-rule="evenodd" clip-rule="evenodd" d="M180.496 67.7068C180.329 66.5517 180.242 58.5872 180.242 52.6383V36.5912C181.59 36.5912 197.167 36.8799 198.768 36.9382V26.8357C194.642 27.0661 176.285 27.2966 174.685 27.2966H167.359C166.434 27.2966 146.43 27.1316 142.637 26.9026L142.687 36.9382C145.296 36.8799 157.254 36.5912 161.296 36.5912V51.7165C161.296 58.0082 161.212 66.2075 161.04 67.7068H180.496V67.7068Z" fill="#CC2A31"/>
<path fill-rule="evenodd" clip-rule="evenodd" d="M194.846 69.5539C196.697 66.8397 199.728 62.3376 200.399 61.5296L225.748 60.5481C226.59 61.5296 230.885 66.6676 233.324 69.497L250 62.743C246.464 59.4528 223.809 35.0343 213.707 24.5818H212.865C204.694 33.4169 181.369 60.4912 178.844 63.4343L194.846 69.5539V69.5539ZM205.789 52.9861C207.981 49.7556 210.926 45.4825 212.949 42.71C214.462 45.0771 217.663 49.1753 220.023 52.4655L205.789 52.9861Z" fill="#ECC74B"/>
<path fill-rule="evenodd" clip-rule="evenodd" d="M116.233 68.7466C141.832 66.7267 151.516 58.6441 151.516 52.2941C151.516 47.0992 144.273 44.5003 139.811 43.001C134.337 41.1532 131.643 40.2883 131.643 38.9014C131.643 36.5343 134.866 36.0265 145.545 36.8885L145.489 26.9226C115.933 24.9382 111.348 33.9952 111.348 40.4604C111.348 45.3097 117.496 48.1973 122.801 50.2756C129.62 52.93 131.051 53.6241 131.051 54.7778C131.051 57.4891 122.128 59.0481 113.958 58.876L116.233 68.7466V68.7466Z" fill="#57A957"/>
<path fill-rule="evenodd" clip-rule="evenodd" d="M5.03294 22.0401C4.93621 21.4142 4.93621 18.1681 4.93621 17.572V15.8153C14.1241 14.6844 20.2152 11.3785 20.2152 7.29738C20.2152 4.13945 16.1554 2.23331 9.67453 1.57755C6.67734 1.28024 2.61755 1.19204 0.584809 1.19204C0.584809 1.63728 0.729904 7.50507 0.729904 8.19071V11.4667C0.729904 13.5819 0.584809 20.7599 0.489502 22.0401H5.03294V22.0401ZM4.93621 3.39549C14.7045 3.48511 15.5267 6.8493 15.5267 7.74405C15.5267 11.0215 11.0287 12.9276 4.93621 13.7313V3.39549ZM30.8654 22.0401C30.817 21.3559 30.6719 15.8764 30.6719 14.535V12.6289L52.2383 12.0627V15.1609C52.2383 15.7256 52.0932 21.0287 51.9481 22.0401H56.7832C56.6864 21.4754 56.5897 14.0272 56.5897 13.6403V10.663C56.5897 9.94749 56.8315 1.90614 56.9766 1.19062H52.0434C52.1416 1.84497 52.2383 7.20634 52.2383 7.71133V10.094L30.6719 10.6616V8.33723C30.6719 7.80237 30.8184 1.72548 30.9152 1.1892H26.0787C26.1754 1.90329 26.3219 9.26042 26.3219 9.76683V12.9845C26.3219 13.7569 26.2722 20.7285 26.1754 22.0372H30.8654V22.0401V22.0401ZM71.8815 9.82941C71.8815 6.25469 72.0266 1.72832 72.1219 1.19204H67.2883C67.3836 1.90614 67.5287 9.26326 67.5287 9.76967V12.9873C67.5287 13.7598 67.4803 20.7314 67.3836 22.0401H72.0735C72.0252 21.3559 71.8801 16.0229 71.8801 13.0457V9.82941H71.8815V9.82941ZM82.6355 1.19204C82.7337 1.7582 82.829 8.93609 82.829 9.41262V13.3728C82.829 14.0884 82.829 20.4611 82.4421 22.0401C83.6512 22.0401 98.0127 22.3388 98.6883 22.3388V19.7755C94.0482 19.895 88.3426 19.895 87.1818 19.895V11.4653C87.1818 7.71133 87.3753 1.84497 87.5673 1.19062H82.6355V1.19204ZM109.397 9.82941C109.397 6.25469 109.543 1.72832 109.639 1.19204H104.804C104.9 1.90614 105.044 9.26326 105.044 9.76967V12.9873C105.044 13.7598 104.996 20.7314 104.9 22.0401H109.589C109.541 21.3559 109.395 16.0229 109.395 13.0457V9.82941H109.397V9.82941ZM124.696 22.0401C124.6 21.4142 124.6 18.1681 124.6 17.572V15.8153C133.787 14.6844 139.879 11.3785 139.879 7.29738C139.879 4.13945 135.818 2.23331 129.339 1.57755C126.342 1.28024 122.279 1.19204 120.249 1.19204C120.249 1.63728 120.396 7.50507 120.396 8.19071V11.4667C120.396 13.5819 120.249 20.7599 120.152 22.0401H124.696ZM124.6 3.39549C134.367 3.48511 135.189 6.8493 135.189 7.74405C135.189 11.0215 130.694 12.9276 124.6 13.7313V3.39549ZM150.82 22.0401C150.723 21.4142 150.723 18.1681 150.723 17.572V15.8153C159.911 14.6844 166.003 11.3785 166.003 7.29738C166.003 4.13945 161.939 2.23331 155.463 1.57755C152.466 1.28024 148.403 1.19204 146.372 1.19204C146.372 1.63728 146.517 7.50507 146.517 8.19071V11.4667C146.517 13.5819 146.372 20.7599 146.275 22.0401H150.82ZM150.723 3.39549C160.491 3.48511 161.311 6.8493 161.311 7.74405C161.311 11.0215 156.816 12.9276 150.723 13.7313V3.39549ZM176.462 9.82941C176.462 6.25469 176.607 1.72832 176.703 1.19204H171.867C171.964 1.90614 172.109 9.26326 172.109 9.76967V12.9873C172.109 13.7598 172.062 20.7314 171.964 22.0401H176.654C176.607 21.3559 176.462 16.0229 176.462 13.0457V9.82941V9.82941ZM190.358 22.2492C190.311 21.2677 190.696 6.70135 190.696 5.66009H190.79C191.66 6.40405 216.128 21.8623 217.434 22.6646H217.528C217.722 15.1609 218.641 2.97869 218.836 1.19204L214.338 1.04269C214.291 2.02421 214 16.0542 214 16.8878C212.452 15.9348 189.048 0.954492 187.695 0H187.601C187.359 3.06832 186.053 19.8082 185.812 22.0415L190.358 22.2492V22.2492ZM244.04 19.7769C240.075 19.9561 233.596 19.8665 232.435 19.8665V12.5976C233.403 12.5976 240.945 12.7171 242.009 12.7171L241.864 10.3643C239.494 10.5435 233.306 10.6914 232.434 10.6914V3.12663C233.209 3.12663 241.91 2.9787 243.461 2.9787L243.266 0.6259C241.718 0.743967 229.097 1.19204 227.936 1.19204C227.986 1.7582 228.084 8.93609 228.084 9.41262V13.4027C228.084 14.0884 228.084 20.4611 227.936 22.0401C228.906 22.0401 243.461 22.3388 244.233 22.3388L244.04 19.7769V19.7769Z" fill="#316EAF"/>
<path fill-rule="evenodd" clip-rule="evenodd" d="M43.905 63.3482L54.6633 65.8091H60.7743L70.0732 65.1946L80.8329 61.2756L76.1828 66.6498L69.342 67.8817L50.016 67.2672L43.905 63.3482V63.3482Z" fill="#CC2A31"/>
<path fill-rule="evenodd" clip-rule="evenodd" d="M62.467 12.835L69.9778 26.3131L70.837 40.3445L68.3747 49.7387L61.8895 64.0845L34.5222 44.4171L43.252 37.8324L52.6746 31.4867L60.8966 21.8834L62.467 12.835V12.835Z" fill="#CC2A31"/>
<path fill-rule="evenodd" clip-rule="evenodd" d="M64.5428 17.0056L70.0222 27.4865L70.8814 41.518L68.4191 50.9136L61.9339 65.258L41.4202 49.7741L55.7959 39.2762L63.9681 24.9474L64.5428 17.0056V17.0056Z" fill="#F1D34C"/>
<path fill-rule="evenodd" clip-rule="evenodd" d="M66.0002 19.9399L70.1624 27.3099L71.0202 41.3385L68.5578 50.7354L62.0727 65.0813L50.5264 56.3642L62.3444 42.8236L65.9632 30.0723L66.0002 19.9399V19.9399Z" fill="#316EAF"/>
<path fill-rule="evenodd" clip-rule="evenodd" d="M232.53 29.8635C233.328 29.8635 234.105 30.0684 234.868 30.4766C235.626 30.8877 236.22 31.4724 236.643 32.2348C237.065 32.9958 237.279 33.791 237.279 34.6189C237.279 35.4368 237.071 36.2249 236.651 36.9788C236.247 37.7215 235.638 38.3323 234.896 38.7384C234.143 39.1581 233.354 39.3658 232.532 39.3658C231.71 39.3658 230.92 39.1581 230.168 38.7384C229.425 38.3318 228.814 37.7213 228.407 36.9788C227.997 36.2596 227.781 35.4465 227.779 34.6189C227.779 33.791 227.99 32.9958 228.415 32.2348C228.826 31.4889 229.445 30.8782 230.196 30.4766C230.91 30.0786 231.713 29.8677 232.53 29.8635ZM232.53 30.6502C231.847 30.6543 231.177 30.831 230.58 31.1637C229.95 31.5051 229.455 31.9958 229.099 32.6303C228.75 33.2348 228.565 33.9205 228.563 34.6189C228.563 35.3017 228.738 35.9575 229.091 36.5848C229.441 37.2121 229.93 37.7029 230.56 38.0528C231.188 38.4027 231.843 38.5791 232.53 38.5791C233.213 38.5791 233.872 38.4027 234.503 38.0528C235.121 37.7126 235.629 37.2034 235.967 36.5848C236.311 35.9824 236.492 35.3002 236.49 34.6064C236.489 33.9125 236.305 33.2312 235.959 32.6303C235.617 32.0076 235.101 31.498 234.475 31.1637C233.88 30.8321 233.211 30.6555 232.53 30.6502V30.6502ZM230.446 37.242V32.131H232.202C232.802 32.131 233.239 32.1765 233.505 32.2704C233.774 32.3643 233.988 32.5307 234.149 32.7654C234.303 32.9854 234.386 33.2468 234.388 33.515C234.389 33.6963 234.355 33.876 234.286 34.0437C234.218 34.2115 234.116 34.364 233.988 34.4923C233.721 34.7683 233.365 34.9233 232.924 34.9575C233.105 35.0328 233.252 35.1225 233.361 35.2277C233.567 35.4297 233.816 35.7683 234.116 36.242L234.74 37.242H233.734L233.279 36.4354C232.923 35.8053 232.637 35.407 232.418 35.2476C232.269 35.1296 232.045 35.0713 231.757 35.0713H231.273V37.242H230.446V37.242ZM231.271 34.3671H232.272C232.749 34.3671 233.077 34.2932 233.25 34.1523C233.336 34.0851 233.404 33.9987 233.45 33.9001C233.496 33.8015 233.518 33.6935 233.515 33.5848C233.516 33.4391 233.471 33.2968 233.387 33.1779C233.299 33.0572 233.179 32.9643 233.04 32.9105C232.887 32.8508 232.611 32.8223 232.209 32.8223H231.273V34.3671H231.271Z" fill="black"/>
</svg>
