<svg width="451" height="451" viewBox="0 0 451 451" fill="none" xmlns="http://www.w3.org/2000/svg">
<path d="M0 225.5V446C0 448.761 2.23858 451 5 451H225.5H446C448.761 451 451 448.761 451 446V225.5V5.00001C451 2.23859 448.761 1.52588e-05 446 1.52588e-05H225.5H5C2.23857 1.52588e-05 0 2.23859 0 5.00001V225.5ZM139.88 40.96L133.954 52.741C133.105 54.429 131.377 55.4942 129.488 55.4942H79.5416H31.4258C28.6644 55.4942 26.4258 53.2556 26.4258 50.4942V40.96V31.4258C26.4258 28.6644 28.6644 26.4258 31.4258 26.4258H86.7646H139.035C142.747 26.4258 145.165 30.3272 143.513 33.651L139.88 40.96ZM424.574 67.8262V104.227C424.574 106.988 422.336 109.227 419.574 109.227H225.5H31.4258C28.6644 109.227 26.4258 106.988 26.4258 104.227V95.5733V86.9199C26.4258 84.1585 28.6644 81.9199 31.4258 81.9199H87.9098L146.194 81.8363C148.099 81.8336 149.837 80.7485 150.676 79.038L162.871 54.1729L175.065 29.2297C175.904 27.5139 177.647 26.4258 179.557 26.4258H300.549H419.574C422.336 26.4258 424.574 28.6644 424.574 31.4258V67.8262ZM212.287 280.113V419.574C212.287 422.336 210.049 424.574 207.287 424.574H119.356H31.4258C28.6644 424.574 26.4258 422.336 26.4258 419.574V280.113V140.652C26.4258 137.891 28.6644 135.652 31.4258 135.652H119.356H207.287C210.049 135.652 212.287 137.891 212.287 140.652V280.113ZM424.574 280.113V419.574C424.574 422.336 422.336 424.574 419.574 424.574H331.644H243.713C240.951 424.574 238.713 422.336 238.713 419.574V280.113V140.652C238.713 137.891 240.951 135.652 243.713 135.652H331.644H419.574C422.336 135.652 424.574 137.891 424.574 140.652V280.113Z" fill="#464646"/>
<path d="M277.471 66.0645V79.2773H290.684H303.896V66.0645V52.8516H290.684H277.471V66.0645Z" fill="#464646"/>
<path d="M326.799 66.0645V79.2773H340.012H353.313L353.048 66.2406L352.784 53.292L339.836 53.0277L326.799 52.7635V66.0645Z" fill="#464646"/>
<path d="M375.863 53.4682C375.51 53.7324 375.246 59.7223 375.246 66.6811V79.2773H388.459H401.672V66.0645V52.8516H389.076C382.117 52.8516 376.127 53.1158 375.863 53.4682Z" fill="#464646"/>
<path d="M107.906 212.375C100.154 213.52 89.5838 218.982 83.4178 225.236C76.8995 231.754 71.7024 241.884 70.4692 250.604C69.3241 258.62 69.4122 299.933 70.4692 307.684C73.0237 324.949 86.8532 340.452 103.501 344.856C117.419 348.468 133.891 344.856 144.285 335.96L147.985 332.789L154.856 338.426C158.555 341.509 162.079 344.328 162.695 344.68C163.4 345.121 166.571 341.773 171.768 335.431C176.084 329.97 179.608 325.213 179.52 324.949C179.343 324.597 175.115 320.985 170.094 316.933L161.022 309.446L160.845 279.585C160.669 253.423 160.493 249.107 159.084 244.879C156.441 236.951 153.534 232.018 147.985 226.117C137.679 215.106 123.233 210.173 107.906 212.375ZM123.761 240.21C127.549 242.148 130.28 244.791 132.394 248.843C134.243 252.19 134.331 253.423 134.331 278.792V305.306L132.041 309.622C130.72 312.265 128.342 315.083 126.051 316.669C122.616 319.047 121.647 319.312 115.481 319.312C109.491 319.312 108.17 319.047 104.999 316.933C103.061 315.612 100.242 312.617 98.921 310.327L96.4546 306.099V279.232C96.4546 254.656 96.6307 252.102 98.1282 249.283C103.413 239.33 114.248 235.542 123.761 240.21Z" fill="#464646"/>
<path d="M325.301 206.121C312.88 207.795 298.434 217.837 292.621 228.847C286.719 240.034 286.895 238.713 286.455 291.3L286.19 339.131H299.403H312.704V318.431V297.73H332.083H351.462V318.431V339.131H364.675H377.888V294.824C377.888 270.16 377.447 247.874 377.007 244.438C375.686 235.63 371.193 226.645 364.587 219.774C354.193 208.94 340.363 204.183 325.301 206.121ZM340.451 234.044C344.239 235.982 346.97 238.625 349.084 242.677C350.757 245.76 350.934 247.698 351.022 258.532V270.864H332.083H313.145L313.233 258.532C313.233 245.496 313.938 242.765 318.342 238.008C323.627 232.195 333.228 230.433 340.451 234.044Z" fill="#464646"/>
</svg>
