<svg width="250" height="63" viewBox="0 0 250 63" fill="none" xmlns="http://www.w3.org/2000/svg">
<path fill-rule="evenodd" clip-rule="evenodd" d="M0 42.9665L26.0186 0H47.5019L71.8387 41.2893L60.423 62.1002H11.2471L8.3936 57.2341L28.869 23.4974L39.6122 41.7917L34.0737 51.3585H55.7239L31.3887 9.56527L5.71015 52.0294L0 42.9665V42.9665Z" fill="#C52B30"/>
<path fill-rule="evenodd" clip-rule="evenodd" d="M91.1394 62.4362L106.243 20.9799C106.243 20.9799 138.552 20.9378 139.729 20.9799C140.902 21.022 143.674 22.3248 142.667 25.1767L135.953 43.6395C135.953 43.6395 134.945 48.841 128.064 48.1702L135.953 62.6047H122.86L112.119 41.4553H121.642C121.642 41.4553 123.698 41.9592 124.371 40.2821C125.041 38.6018 126.887 33.5672 126.887 33.5672C126.887 33.5672 127.39 31.553 125.881 31.3861H115.475L104.566 62.4346H91.1394V62.4362Z" fill="black"/>
<path fill-rule="evenodd" clip-rule="evenodd" d="M183.282 20.9778H153.828C149.882 21.399 147.785 25.1746 147.785 25.1746L136.371 56.8971C134.274 62.771 140.317 62.5199 140.317 62.5199H167.507C173.464 62.5199 174.893 57.2325 174.893 57.2325L186.219 25.5958C187.645 21.566 183.282 20.9778 183.282 20.9778V20.9778ZM171.116 33.4839L164.99 50.4349C164.99 50.4349 164.824 52.0279 162.806 52.1964H151.898C151.898 52.1964 150.389 51.9467 150.974 50.3522L157.519 32.8958C157.519 32.8958 157.519 31.6367 160.035 31.554L169.939 31.6383C169.939 31.6367 171.618 31.721 171.116 33.4839ZM195.285 21.0652H232.044L228.351 31.554H201.915C201.915 31.554 200.322 31.4698 199.986 32.2249L198.896 35.4138C198.896 35.4138 198.56 36.5886 199.734 36.5886H221.218C221.218 36.5886 226.506 36.5044 224.994 40.8681L218.53 58.9112C218.53 58.9112 217.19 62.6884 211.736 62.6884H176.489L180.179 52.5333L206.865 52.3648C206.865 52.3648 207.203 52.8703 208.208 51.7782L209.467 48.3381C209.467 48.3381 209.889 47.2476 208.796 47.2476H186.138C186.138 47.2476 182.36 47.4145 183.201 43.5563L190.167 24.8407C190.165 24.8391 191.254 21.6502 195.285 21.0652V21.0652ZM235.565 21.0652H250L235.149 62.5199H220.881L235.565 21.0652Z" fill="black"/>
</svg>
