<svg width="150" height="150" viewBox="0 0 150 150" fill="none" xmlns="http://www.w3.org/2000/svg">
<path fill-rule="evenodd" clip-rule="evenodd" d="M131.674 0C141.788 0 150 8.21191 150 18.3264V131.674C150 141.788 141.788 150 131.674 150H18.3264C8.21191 150 0 141.788 0 131.674V18.3264C0 8.21191 8.21162 0 18.3264 0H131.674V0ZM57.281 124.378C97.1068 124.378 118.883 91.3772 118.883 62.7762C118.883 61.8334 118.883 60.8903 118.838 59.9924C123.059 56.9394 126.74 53.1229 129.659 48.7676C125.798 50.4738 121.622 51.6413 117.222 52.1801C121.712 49.4859 125.124 45.2654 126.74 40.1918C122.565 42.6612 117.94 44.4574 113.001 45.445C109.05 41.2245 103.438 38.6203 97.1968 38.6203C85.2533 38.6203 75.5552 48.3188 75.5552 60.2619C75.5552 61.9682 75.7348 63.6293 76.1388 65.2008C58.1341 64.3028 42.1948 55.6822 31.5088 42.5716C29.6678 45.7594 28.5902 49.4859 28.5902 53.4372C28.5902 60.9354 32.4067 67.5806 38.2436 71.4419C34.6966 71.352 31.374 70.3644 28.4555 68.7478V69.0173C28.4555 79.5237 35.9089 88.2343 45.8317 90.2546C44.0358 90.7485 42.1052 91.0181 40.1294 91.0181C38.7375 91.0181 37.3907 90.8833 36.0437 90.6138C38.7826 99.2347 46.7745 105.475 56.2482 105.655C48.8399 111.447 39.501 114.904 29.3537 114.904C27.6026 114.904 25.8964 114.815 24.1901 114.59C33.6639 120.786 45.0683 124.378 57.281 124.378V124.378Z" fill="#FEFEFE"/>
</svg>
