<svg width="451" height="451" viewBox="0 0 451 451" fill="none" xmlns="http://www.w3.org/2000/svg">
<path d="M165.249 1.67365C159.612 5.46134 159.436 6.07794 159.436 31.0063V53.7324H150.451C143.052 53.7324 140.937 54.0848 138.823 55.4061C134.771 58.1367 133.01 61.484 133.01 66.9453C133.01 72.4067 134.771 75.7539 138.823 78.4846C140.937 79.8059 143.052 80.1582 150.098 80.1582H158.731L158.114 86.5004C154.855 122.968 139 158.907 114.6 185.245C107.201 193.261 106.584 194.406 106.584 199.955C106.584 205.681 107.201 206.65 115.745 215.811C127.108 227.79 141.202 247.433 150.098 263.641C161.197 283.725 166.923 297.202 186.302 348.38C194.229 369.168 201.541 388.371 202.51 391.013C203.567 393.568 204.271 395.858 204.095 396.034C203.655 396.563 190.706 394.096 182.602 392.071C123.937 377.096 76.2824 330.675 59.9865 272.978C57.7844 264.874 55.9346 255.713 54.2609 243.293L53.7324 239.594H62.2768C71.79 239.594 74.4326 238.537 77.6037 233.78C79.1893 231.402 79.2773 229.112 79.2773 199.955C79.2773 170.799 79.1893 168.508 77.6037 166.13C76.7228 164.809 74.785 162.871 73.4637 161.99C71.0853 160.405 68.7951 160.316 39.6387 160.316C10.4822 160.316 8.19199 160.405 5.81367 161.99C4.49238 162.871 2.55449 164.809 1.67363 166.13C0.0880859 168.508 0 170.799 0 199.955C0 229.112 0.0880859 231.402 1.67363 233.78C4.84473 238.625 7.4873 239.594 17.3529 239.594H26.3377L26.8662 244.615C33.4727 305.922 64.4789 357.805 114.512 391.278C119.621 394.713 123.937 397.62 124.113 397.796C124.289 397.972 114.336 398.148 101.915 398.148H79.2773V389.076C79.2773 379.21 78.3084 376.655 73.4637 373.396C71.0853 371.811 68.7951 371.723 39.6387 371.723C10.4822 371.723 8.19199 371.811 5.81367 373.396C4.49238 374.277 2.55449 376.215 1.67363 377.536C0.0880859 379.915 0 382.205 0 411.361C0 440.518 0.0880859 442.808 1.67363 445.186C2.55449 446.508 4.49238 448.446 5.81367 449.326C8.19199 450.912 10.4822 451 39.6387 451C68.7951 451 71.0853 450.912 73.4637 449.326C78.3084 446.067 79.2773 443.513 79.2773 433.559V424.574H225.5H371.723V433.559C371.723 443.513 372.692 446.067 377.536 449.326C379.915 450.912 382.205 451 411.361 451C440.518 451 442.808 450.912 445.186 449.326C446.508 448.446 448.445 446.508 449.326 445.186C450.912 442.808 451 440.518 451 411.361C451 382.205 450.912 379.915 449.326 377.536C448.445 376.215 446.508 374.277 445.186 373.396C442.808 371.811 440.518 371.723 411.361 371.723C382.205 371.723 379.915 371.811 377.536 373.396C372.692 376.655 371.723 379.21 371.723 389.076V398.148H349.085C336.664 398.148 326.711 397.972 326.887 397.796C327.063 397.62 331.379 394.713 336.488 391.278C386.521 357.805 417.527 305.922 424.134 244.703L424.662 239.594H433.647C443.513 239.594 446.155 238.625 449.326 233.78C450.912 231.402 451 229.112 451 199.955C451 170.799 450.912 168.508 449.326 166.13C448.445 164.809 446.508 162.871 445.186 161.99C442.808 160.405 440.518 160.316 411.361 160.316C382.205 160.316 379.915 160.405 377.536 161.99C376.215 162.871 374.277 164.809 373.396 166.13C371.811 168.508 371.723 170.799 371.723 199.955C371.723 229.112 371.811 231.402 373.396 233.78C376.567 238.537 379.21 239.594 388.723 239.594H397.268L396.739 243.293C392.511 273.771 385.376 294.383 371.458 316.581C348.292 353.665 310.591 381.236 268.398 392.071C260.294 394.096 247.345 396.563 246.905 396.034C246.729 395.858 247.433 393.568 248.49 391.013C249.459 388.371 256.77 369.168 264.698 348.38C284.077 297.202 289.803 283.725 300.902 263.641C309.798 247.433 323.892 227.79 335.255 215.811C343.799 206.65 344.416 205.681 344.416 199.955C344.416 194.406 343.799 193.261 336.4 185.245C312 158.907 296.145 122.968 292.886 86.5004L292.269 80.1582H300.902C307.948 80.1582 310.062 79.8059 312.177 78.4846C316.229 75.7539 317.99 72.4067 317.99 66.9453C317.99 61.484 316.229 58.1367 312.177 55.4061C310.062 54.0848 307.948 53.7324 300.637 53.7324H291.564V31.0063C291.564 6.07794 291.388 5.46134 285.751 1.67365C283.284 0.0881012 280.554 1.52588e-05 225.5 1.52588e-05C170.446 1.52588e-05 167.716 0.0881012 165.249 1.67365ZM265.139 40.0791V53.7324H225.5H185.861V40.0791V26.4258H225.5H265.139V40.0791ZM265.579 87.8217C268.486 125.082 284.341 165.249 307.244 193.701C309.798 196.784 311.824 199.603 311.824 199.867C311.824 200.219 309.182 203.655 306.011 207.442C282.844 235.278 266.812 265.403 246.464 318.871C243.029 327.856 239.946 335.96 239.594 336.929C239.153 337.898 238.801 310.063 238.801 275.092L238.713 211.494L242.501 209.821C252.014 205.505 260.294 196.167 263.377 186.126C266.636 175.467 265.315 161.814 260.206 153.534C252.014 140.497 240.387 133.891 225.5 133.891C202.95 133.891 185.861 150.803 185.861 173.177C185.861 189.561 194.494 203.39 208.587 209.821L212.287 211.494L212.199 275.092C212.199 310.063 211.847 337.898 211.406 336.929C211.054 335.96 207.971 327.856 204.536 318.871C194.67 292.974 190.618 283.372 182.338 266.46C170.887 242.941 159.171 224.443 144.989 207.442C141.818 203.655 139.176 200.219 139.176 199.867C139.176 199.603 141.202 196.784 143.756 193.701C166.659 165.249 182.514 125.082 185.421 87.8217L186.037 80.1582H225.5H264.962L265.579 87.8217ZM232.018 162.871C235.806 165.425 237.832 169.037 237.832 173.529C237.832 178.022 235.806 181.633 232.018 184.188C230.433 185.157 227.878 185.861 225.5 185.861C218.453 185.861 213.168 180.576 213.168 173.529C213.168 166.482 218.453 161.197 225.5 161.197C227.878 161.197 230.433 161.902 232.018 162.871ZM52.8516 199.955V213.168H39.6387H26.4258V199.955V186.742H39.6387H52.8516V199.955ZM424.574 199.955V213.168H411.361H398.148V199.955V186.742H411.361H424.574V199.955ZM52.8516 411.361V424.574H39.6387H26.4258V411.361V398.148H39.6387H52.8516V411.361ZM424.574 411.361V424.574H411.361H398.148V411.361V398.148H411.361H424.574V411.361Z" fill="#464646"/>
</svg>
