<svg width="191" height="250" viewBox="0 0 191 250" fill="none" xmlns="http://www.w3.org/2000/svg">
<path fill-rule="evenodd" clip-rule="evenodd" d="M11.2024 238.259V232.463C11.2024 231.205 10.7561 230.298 9.86348 229.542C9.14915 228.937 8.16792 228.585 7.05157 228.585H1.60718V249.596H5.84774V242.037H7.05157C8.16792 242.037 9.14915 241.786 9.86348 241.18C10.7561 240.526 11.2024 239.517 11.2024 238.259ZM7.18558 237.251C7.18558 237.856 6.96297 238.109 6.47236 238.109H5.84774V232.616H6.47236C6.96297 232.616 7.18558 232.867 7.18558 233.474V237.251ZM18.7887 228.586H12.764V249.596H17.0931V241.281H18.1187C18.7444 241.281 19.0113 241.535 19.0113 242.141V246.423C19.0113 247.58 19.1896 248.691 19.5473 249.597H23.5631C23.2065 248.186 23.0281 246.976 23.0281 246.069V241.887C23.0281 240.881 22.4478 240.024 21.2429 239.42C22.3581 238.915 22.9827 238.157 22.9827 237.101V232.466C22.9827 231.208 22.5375 230.3 21.6449 229.545C20.7966 228.937 19.9039 228.586 18.7887 228.586ZM18.2084 232.616C18.7444 232.616 18.967 232.867 18.967 233.474V236.748C18.967 237.351 18.7444 237.606 18.2084 237.606H17.0931V232.617H18.2084V232.616ZM24.5454 228.586V249.596H32.9346V245.666H28.7849V240.88H31.5071V236.847H28.7849V232.363H32.9346V228.586H24.5454ZM43.1091 229.592C42.1721 228.686 40.8786 228.283 39.4056 228.283C37.9327 228.283 36.6391 228.686 35.6125 229.592C34.6302 230.55 34.1838 231.558 34.1838 232.616V245.667C34.1838 246.725 34.6302 247.73 35.6125 248.588C36.6391 249.495 37.9327 250 39.4056 250C40.8786 250 42.1721 249.495 43.1091 248.588C44.0914 247.73 44.5377 246.725 44.5377 245.667V241.635H40.2983V244.961C40.2983 245.566 39.986 245.919 39.4056 245.919C38.8253 245.919 38.513 245.567 38.513 244.961V233.321C38.513 232.718 38.8253 232.363 39.4056 232.363C39.986 232.363 40.2983 232.717 40.2983 233.321V236.645H44.5377V232.615C44.5377 231.558 44.0914 230.549 43.1091 229.592V229.592Z" fill="black"/>
<path d="M45.9653 249.596H50.2491V228.586H45.9653V249.596Z" fill="black"/>
<path fill-rule="evenodd" clip-rule="evenodd" d="M61.852 232.867C61.852 231.809 61.4057 230.701 60.5131 229.795C59.575 228.786 58.4598 228.283 57.1208 228.283C55.4707 228.283 54.1317 228.786 53.1494 229.846C52.3464 230.853 51.9001 232.112 51.9001 233.624C51.9001 235.738 52.8825 237.856 54.712 239.922L57.1208 242.289C57.7011 243.045 58.0135 243.801 58.0135 244.557C58.0135 245.464 57.6125 245.917 56.8085 245.917C55.917 245.917 55.4707 245.415 55.4707 244.454V242.791H51.7661V245.312C51.7661 246.673 52.2124 247.73 53.1494 248.587C54.1317 249.494 55.381 249.999 56.9425 249.999C58.5052 249.999 59.7987 249.494 60.7368 248.436C61.6283 247.427 62.0746 246.17 62.0746 244.658C62.0746 242.541 60.9594 240.426 58.8175 238.158C57.5682 236.9 56.8085 236.094 56.4962 235.639C56.1396 235.085 56.0056 234.379 56.0056 233.574C56.0056 233.222 56.1396 232.971 56.3633 232.718C56.4591 232.601 56.5765 232.508 56.7074 232.447C56.8382 232.386 56.9793 232.358 57.1208 232.364C57.7908 232.364 58.0589 232.818 58.0589 233.574V235.388H61.852V232.867V232.867Z" fill="black"/>
<path d="M63.592 249.596H67.8315V228.586H63.592V249.596Z" fill="black"/>
<path fill-rule="evenodd" clip-rule="evenodd" d="M70.9998 232.419C72.0707 233.426 73.3211 233.931 74.7486 233.931C76.1318 233.931 77.3368 233.426 78.452 232.419C79.4344 231.51 79.8807 230.405 79.8807 229.347V216.799C79.8807 215.742 79.4355 214.634 78.452 213.727C77.3368 212.718 76.1318 212.216 74.7486 212.216C73.3211 212.216 72.0707 212.718 70.9998 213.727C70.0628 214.634 69.5268 215.742 69.5268 216.799V229.347C69.5268 230.405 70.0628 231.51 70.9998 232.419ZM75.5515 217.253V228.893C75.5515 229.498 75.2392 229.851 74.7486 229.851C74.124 229.851 73.856 229.5 73.856 228.893V217.253C73.856 216.651 74.124 216.296 74.7486 216.296C75.2392 216.296 75.5515 216.651 75.5515 217.253ZM88.5822 212.518V222.846L85.2786 212.518H81.4422V233.528H85.2343V223.449L88.6265 233.528H92.3753V212.518H88.5822V212.518ZM98.0877 233.528H101.971V220.177L104.244 233.528H106.922L109.6 220.177V233.528H113.84V212.518H107.772L105.986 222.191L104.111 212.518H98.0877V233.528V233.528ZM120.622 216.296C121.158 216.296 121.427 216.649 121.427 217.253V228.893C121.427 229.498 121.159 229.851 120.622 229.851C120.044 229.851 119.73 229.5 119.73 228.893V217.253C119.731 216.651 120.044 216.296 120.622 216.296ZM116.919 213.727C115.937 214.634 115.402 215.742 115.402 216.799V229.347C115.402 230.405 115.937 231.51 116.919 232.419C117.946 233.426 119.195 233.931 120.623 233.931C122.052 233.931 123.212 233.426 124.327 232.419C125.31 231.51 125.755 230.405 125.755 229.347V216.799C125.755 215.742 125.31 214.634 124.327 213.727C123.212 212.718 122.052 212.216 120.623 212.216C119.194 212.216 117.946 212.718 116.919 213.727ZM134.458 222.846L131.198 212.518H127.316V233.528H131.11V223.449L134.546 233.528H138.25V212.518H134.458V222.846ZM144.943 216.296C145.524 216.296 145.836 216.649 145.836 217.253V228.893C145.836 229.498 145.525 229.851 144.943 229.851C144.408 229.851 144.14 229.5 144.14 228.893V217.253C144.141 216.651 144.408 216.296 144.943 216.296ZM148.648 213.727C147.621 212.718 146.371 212.216 144.943 212.216C143.517 212.216 142.355 212.718 141.284 213.727C140.347 214.634 139.811 215.742 139.811 216.799V229.347C139.811 230.405 140.347 231.51 141.284 232.419C142.355 233.426 143.517 233.931 144.943 233.931C146.371 233.931 147.621 233.426 148.648 232.419C149.63 231.51 150.164 230.405 150.164 229.347V216.799C150.164 215.742 149.63 214.633 148.648 213.727ZM157.126 212.518H151.728V233.528H155.966V225.97H157.126C158.242 225.97 159.224 225.718 159.982 225.112C160.876 224.458 161.321 223.449 161.321 222.191V216.396C161.321 215.138 160.876 214.23 159.982 213.475C159.224 212.87 158.242 212.518 157.126 212.518ZM156.547 216.548C157.081 216.548 157.305 216.799 157.305 217.406V221.183C157.305 221.789 157.082 222.041 156.547 222.041H155.967V216.548H156.547ZM168.014 216.296C168.505 216.296 168.818 216.649 168.818 217.253V228.893C168.818 229.498 168.506 229.851 168.014 229.851C167.391 229.851 167.122 229.5 167.122 228.893V217.253C167.123 216.651 167.391 216.296 168.014 216.296ZM171.63 213.727C170.603 212.718 169.398 212.216 168.014 212.216C166.587 212.216 165.336 212.718 164.266 213.727C163.329 214.634 162.794 215.742 162.794 216.799V229.347C162.794 230.405 163.329 231.51 164.266 232.419C165.336 233.426 166.587 233.931 168.014 233.931C169.398 233.931 170.603 233.426 171.63 232.419C172.612 231.51 173.146 230.405 173.146 229.347V216.799C173.146 215.742 172.612 214.633 171.63 213.727ZM174.708 233.528H180.42C181.536 233.528 182.519 233.175 183.231 232.622C184.124 231.917 184.57 230.908 184.57 229.498V216.651C184.57 215.239 184.124 214.23 183.231 213.476C182.518 212.871 181.536 212.518 180.42 212.518H174.708V233.528ZM180.556 217.405V228.741C180.556 229.346 180.288 229.598 179.75 229.598H178.947V216.548H179.75C180.288 216.548 180.556 216.799 180.556 217.405V217.405ZM102.015 24.839C100.185 26.602 98.6692 28.5676 97.5517 30.8346C96.5251 33.0015 95.9913 35.1672 95.9913 37.3841V91.7984C95.9913 94.0653 96.5251 96.2323 97.5517 98.3992C98.6692 100.615 100.185 102.53 102.015 104.293C106.343 108.175 111.609 110.088 117.946 110.088C124.105 110.088 129.325 108.173 133.475 104.293C135.349 102.53 136.777 100.615 137.804 98.3992C138.786 96.2335 139.277 94.0653 139.277 91.7984V69.0251H121.649V92.2023C121.649 93.3101 121.293 94.2166 120.533 94.8718C119.864 95.5771 118.973 95.8796 117.945 95.8796C116.829 95.8796 115.847 95.5771 115.178 94.8718C114.464 94.2166 114.062 93.3101 114.062 92.2023V37.0315C114.062 35.8724 114.464 34.9158 115.178 34.2606C115.847 33.6054 116.829 33.2528 117.945 33.2528C118.973 33.2528 119.864 33.6054 120.533 34.2606C121.293 35.0159 121.649 35.9236 121.649 37.0315V61.1152H139.277V37.3841C139.277 35.1171 138.786 32.9002 137.804 30.8346C136.777 28.5676 135.349 26.602 133.475 24.839C129.325 21.0103 124.104 19.0447 117.946 19.0447C111.609 19.0447 106.343 21.009 102.015 24.839V24.839ZM21.3313 19.0447C27.356 19.0447 32.4881 21.009 36.8615 24.839C38.7085 26.4856 40.2545 28.5219 41.4133 30.8346C42.5285 33.0015 43.0646 35.1672 43.0646 37.3841V108.476H25.0358V70.7882H17.7618V108.477H0.491723V37.3841C0.491723 35.1672 1.02775 33.0015 2.00898 30.8346C3.03562 28.5676 4.46317 26.602 6.29273 24.839C10.3982 21.009 15.3974 19.0447 21.3313 19.0447V19.0447ZM23.9206 34.3619C23.2505 33.6554 22.3579 33.3541 21.3313 33.3541C20.35 33.3541 19.4574 33.6554 18.7885 34.3619C18.1185 35.0159 17.7618 35.9236 17.7618 37.0315V60.8626H25.0358V37.0315C25.0358 35.9236 24.6792 35.0159 23.9206 34.3619V34.3619ZM89.0728 132.408C83.7181 140.672 81.0413 149.891 81.0413 160.068C81.0413 170.196 83.7181 179.467 89.0728 187.679V203.648H72.2944V164.755H64.1721V203.648H47.438V115.882H64.1721V155.08H72.2944V115.882H89.0728V132.408ZM146.058 115.882H188.141V131.399H175.199V203.648H159.537V180.777C162.436 174.228 163.819 167.374 163.819 160.068C163.819 152.763 162.436 145.86 159.537 139.412V131.399H155.119C152.531 127.622 149.54 124.446 146.058 121.678V115.882V115.882ZM49.4459 30.8346C48.4193 33.0015 47.8843 35.1672 47.8843 37.3841V91.7984C47.8843 94.0653 48.4193 96.2323 49.4459 98.3992C50.5611 100.615 52.0341 102.53 53.9977 104.293C58.2814 108.175 63.5918 110.088 69.8845 110.088C76.0876 110.088 81.2196 108.173 85.458 104.293C87.2875 102.53 88.7162 100.615 89.7428 98.3992C90.7241 96.2335 91.2601 94.0653 91.2601 91.7984V69.0251H73.5437V92.2023C73.5437 93.3101 73.187 94.2166 72.517 94.8718C71.8481 95.5771 70.9555 95.8796 69.8856 95.8796C68.7693 95.8796 67.8324 95.5771 67.0737 94.8718C66.314 94.2166 65.9585 93.3101 65.9585 92.2023V37.0315C65.9585 35.8724 66.3151 34.9158 67.0737 34.2606C67.8324 33.6054 68.7693 33.2528 69.8856 33.2528C70.9566 33.2528 71.8492 33.6054 72.517 34.2606C73.187 34.9158 73.5437 35.8724 73.5437 37.0315V61.1152H91.2601V37.3841C91.2601 35.1171 90.7241 32.9002 89.7428 30.8346C88.7162 28.5676 87.2875 26.602 85.458 24.839C81.2196 21.0103 76.0876 19.0447 69.8845 19.0447C63.5918 19.0447 58.2803 21.009 53.9977 24.839C52.0341 26.602 50.5611 28.5676 49.4459 30.8346V30.8346ZM170.023 20.6564V92.2023C170.023 93.3101 169.622 94.2166 168.908 94.8718C168.239 95.5771 167.347 95.8796 166.363 95.8796C165.336 95.8796 164.446 95.5771 163.775 94.8718C163.433 94.5436 163.16 94.134 162.975 93.6725C162.789 93.2109 162.697 92.7089 162.704 92.2023V20.6564H144.586V91.7984C144.586 94.0653 145.077 96.2323 146.192 98.3992C147.309 100.615 148.826 102.53 150.834 104.293C155.207 108.175 160.338 110.088 166.362 110.088C172.253 110.088 177.296 108.173 181.401 104.293C183.23 102.53 184.659 100.615 185.64 98.3992C186.667 96.2335 187.203 94.0653 187.203 91.7984V20.6564H170.023ZM23.3403 128.981C22.6713 128.378 21.7787 128.075 20.7521 128.075C19.6811 128.075 18.8771 128.377 18.2082 128.981C17.4495 129.738 17.0929 130.593 17.0929 131.653V155.029H42.4399V187.778C42.4399 189.844 41.9493 192.062 40.8784 194.127C39.9403 196.342 38.5128 198.258 36.6389 199.921C32.5778 203.698 27.49 205.665 21.555 205.665C15.5303 205.665 10.3982 203.699 6.07013 199.921C4.15085 198.157 2.67901 196.243 1.60696 194.127C0.565475 192.218 0.00988441 190.021 0.00110688 187.778V169.691H17.9845V188.081C17.9845 189.19 18.3422 190.095 19.1008 190.853C19.7697 191.455 20.6624 191.808 21.689 191.808C22.6713 191.808 23.5629 191.457 24.2329 190.853C24.9018 190.096 25.2595 189.19 25.2595 188.081V164.753H0V132.105C0 129.89 0.490616 127.721 1.47296 125.606C2.52059 123.397 3.96395 121.457 5.7113 119.911C9.81786 116.133 14.8602 114.219 20.7509 114.219C26.7757 114.219 31.9066 116.133 36.2801 119.911C38.0952 121.476 39.6384 123.407 40.8319 125.606C41.9482 127.721 42.4388 129.89 42.4388 132.105V150.043H24.4555V131.653C24.4555 130.593 24.0989 129.739 23.3403 128.981V128.981Z" fill="black"/>
<path fill-rule="evenodd" clip-rule="evenodd" d="M72.2949 154.324V115.127H89.0732V202.945H72.2949V164.1H64.1726V202.945H47.4385V115.127H64.1726V154.324H72.2949ZM146.149 115.882H188.232V131.399H175.2V203.648H159.582V131.399H146.149V115.882Z" fill="black"/>
<path d="M1.25024 12.6965H3.34782V2.66968H1.25024V12.6965Z" fill="black"/>
<path fill-rule="evenodd" clip-rule="evenodd" d="M4.59741 6.80095V12.6965H6.60528V6.80095H7.40932V5.29049H6.60528V4.88661C6.60528 4.534 6.73929 4.38396 6.963 4.38396H7.40932V2.66968H6.51668C6.02607 2.66968 5.57975 2.87349 5.17773 3.27486C4.82112 3.67749 4.59741 4.13138 4.59741 4.6853V5.29049H4.01709V6.80095H4.59741V6.80095ZM14.3256 5.29049H12.4074L11.8271 9.32048L11.157 5.29049H9.28318L10.9344 12.2426L10.6221 13.4518C10.5324 13.7043 10.3984 13.7544 10.1758 13.7544H9.59549V15.4674H10.5324C11.5148 15.4674 12.0951 14.9635 12.3177 14.0069L14.3256 5.29049V5.29049ZM17.5384 7.15481V10.8322C17.5384 11.0848 17.4044 11.2348 17.0932 11.2348C16.8695 11.2348 16.7354 11.0848 16.7354 10.8322V7.15481C16.7354 6.90224 16.8695 6.80095 17.0932 6.80095C17.4044 6.80095 17.5384 6.90224 17.5384 7.15481ZM17.0932 5.18921C16.5119 5.18041 15.9401 5.35492 15.4419 5.69311C14.9956 6.04572 14.7719 6.44835 14.7719 6.9535V10.9835C14.7719 11.4874 14.9956 11.94 15.4419 12.3439C15.8882 12.6965 16.4231 12.8478 17.0932 12.8478C17.7621 12.8478 18.3424 12.6965 18.7887 12.3439C19.235 11.94 19.4576 11.4874 19.4576 10.9835V6.9535C19.4576 6.44835 19.235 6.04572 18.7887 5.69311C18.2743 5.35515 17.6883 5.181 17.0932 5.18921V5.18921ZM21.6881 12.8478C22.223 12.8478 22.6705 12.5952 23.0271 12.0913L23.1157 12.6965H24.9009V5.29049H22.9817V10.8322C22.9817 11.0848 22.8034 11.2348 22.5365 11.2348C22.3127 11.2348 22.1344 11.0848 22.1344 10.8322V5.29049H20.2152V11.5874C20.2163 12.4452 20.7523 12.8478 21.6881 12.8478V12.8478ZM30.0341 7.15481V12.6965H31.9534V6.44835C31.9534 5.6431 31.4617 5.18921 30.4804 5.18921C29.9444 5.18921 29.5878 5.44178 29.2323 5.89442V2.66968H27.2687V12.6965H29.2323V7.15481C29.2323 6.90224 29.3652 6.80095 29.6764 6.80095C29.9001 6.80095 30.0341 6.90224 30.0341 7.15481ZM35.3888 10.8322C35.3888 11.0848 35.2548 11.2348 34.9425 11.2348C34.7199 11.2348 34.5859 11.0848 34.5859 10.8322V10.3283C34.5859 10.077 34.8539 9.82439 35.3888 9.47178V10.8322V10.8322ZM37.5318 12.6965C37.3847 12.2098 37.3091 11.6991 37.3081 11.1848V6.9535C37.3081 5.79439 36.5938 5.18921 35.0765 5.18921C34.4076 5.18921 33.917 5.39052 33.4707 5.69311C33.0243 6.04572 32.8006 6.44835 32.8006 6.9535V7.65872H34.8096V7.15481C34.8096 6.90224 34.855 6.80095 35.0765 6.80095C35.3002 6.80095 35.3888 6.90224 35.3888 7.15481V7.96006C34.2736 8.56525 33.6047 8.91911 33.2923 9.16919C32.8006 9.57306 32.578 10.077 32.578 10.5809V10.9835C32.578 12.2426 33.2469 12.8478 34.6313 12.8478C35.1662 12.8478 35.6136 12.5952 35.9259 12.0913L35.9702 12.6965H37.5318V12.6965ZM42.6628 5.29049H40.8786L40.2983 9.16919L39.6283 5.29049H37.709L39.4057 12.6965H40.9672L42.6628 5.29049V5.29049ZM45.787 7.15481V8.16138H44.9841V7.15481C44.9841 6.90224 45.117 6.80095 45.3407 6.80095C45.653 6.80095 45.787 6.90224 45.787 7.15481ZM42.9751 6.9535V10.9835C42.9751 11.4874 43.1988 11.94 43.7337 12.3439C44.18 12.6965 44.6718 12.8478 45.3407 12.8478C46.0096 12.8478 46.5456 12.6965 47.0805 12.3439C47.5269 11.94 47.7506 11.4874 47.7506 10.9835V10.227H45.787V10.8322C45.787 11.0848 45.653 11.2348 45.3407 11.2348C45.117 11.2348 44.9841 11.0848 44.9841 10.8322V9.47178H47.7506V6.9535C47.7506 6.44835 47.5269 6.04572 47.0805 5.69311C46.6342 5.39052 46.0096 5.18921 45.3407 5.18921C44.6718 5.18921 44.18 5.39052 43.7337 5.69311C43.1977 6.04572 42.9751 6.44835 42.9751 6.9535ZM52.7032 7.15481V10.8322C52.7032 11.0848 52.5692 11.2348 52.258 11.2348C52.0343 11.2348 51.9003 11.0848 51.9003 10.8322V7.15481C51.9003 6.90224 52.0343 6.80095 52.258 6.80095C52.5703 6.80095 52.7032 6.90224 52.7032 7.15481ZM49.8924 6.9535V10.9835C49.8924 11.4874 50.115 11.94 50.6511 12.3439C51.0974 12.6965 51.588 12.8478 52.258 12.8478C52.9269 12.8478 53.4619 12.6965 53.9979 12.3439C54.4442 11.94 54.6668 11.4874 54.6668 10.9835V6.9535C54.6668 6.44835 54.4442 6.04572 53.9979 5.69311C53.5516 5.39052 52.9269 5.18921 52.258 5.18921C51.588 5.18921 51.0974 5.39052 50.6511 5.69311C50.1139 6.04572 49.8924 6.44835 49.8924 6.9535ZM58.1465 7.15481V12.6965H60.0658V6.44835C60.0658 5.6431 59.5752 5.18921 58.5928 5.18921C58.0579 5.18921 57.6116 5.44178 57.255 5.89442L57.1653 5.29049H55.38V12.6965H57.3436V7.15481C57.3436 6.90224 57.4776 6.80095 57.7899 6.80095C58.0136 6.80095 58.1465 6.90224 58.1465 7.15481ZM63.592 7.15481V8.16138H62.7448V7.15481C62.7448 6.90224 62.9231 6.80095 63.1911 6.80095C63.4137 6.80095 63.592 6.90224 63.592 7.15481ZM61.4944 5.69311C61.0492 6.04572 60.8255 6.44835 60.8255 6.9535V10.9835C60.8255 11.4874 61.0492 11.94 61.4944 12.3439C61.9419 12.6965 62.5211 12.8478 63.1911 12.8478C63.86 12.8478 64.3961 12.6965 64.8424 12.3439C65.2887 11.94 65.5113 11.4874 65.5113 10.9835V10.227H63.592V10.8322C63.592 11.0848 63.4137 11.2348 63.1911 11.2348C62.9231 11.2348 62.7448 11.0848 62.7448 10.8322V9.47178H65.5113V6.9535C65.5113 6.44835 65.2887 6.04572 64.8424 5.69311C64.3441 5.3551 63.7723 5.1806 63.1911 5.18921C62.5211 5.18921 61.9419 5.39052 61.4944 5.69311V5.69311ZM67.7418 7.20483C67.7418 8.16138 68.0984 8.81658 68.857 9.32048L70.0619 9.97569C70.1521 10.0727 70.2227 10.1904 70.269 10.321C70.3152 10.4515 70.336 10.5917 70.33 10.7322C70.33 11.0848 70.196 11.2348 69.8848 11.2348C69.6167 11.2348 69.4384 11.0848 69.4384 10.8322V10.227H67.6532V10.9835C67.6532 12.2426 68.4129 12.8478 69.9734 12.8478C71.4463 12.8478 72.2049 12.1926 72.2049 10.7322C72.2049 9.72436 71.67 8.91786 70.5537 8.31267L69.8405 7.80877C69.6167 7.70873 69.527 7.45616 69.527 7.20483C69.527 6.9535 69.661 6.80095 69.9734 6.80095C70.2868 6.80095 70.4197 6.90224 70.4197 7.15481V7.70874H72.2049V6.9535C72.2049 6.44835 71.9823 6.04572 71.536 5.69311C71.1783 5.39052 70.6434 5.18921 69.9734 5.18921C68.5015 5.18921 67.7418 5.89442 67.7418 7.20483V7.20483ZM72.8739 12.6965H74.7931V7.15481C74.7931 6.90224 74.9714 6.80095 75.2394 6.80095C75.4632 6.80095 75.6415 6.90224 75.6415 7.15481V12.6965H77.6493V6.44835C77.6493 5.6431 77.1133 5.18921 76.0878 5.18921C75.5518 5.18921 75.1951 5.44178 74.7931 5.89442V2.66968H72.8739V12.6965V12.6965ZM81.0416 7.15481V10.8322C81.0416 11.0848 80.9064 11.2348 80.6838 11.2348C80.3715 11.2348 80.2375 11.0848 80.2375 10.8322V7.15481C80.2375 6.90224 80.3715 6.80095 80.6838 6.80095C80.9064 6.80095 81.0416 6.90224 81.0416 7.15481ZM80.6838 5.18921C80.0149 5.18921 79.4346 5.39052 78.9883 5.69311C78.542 6.04572 78.3183 6.44835 78.3183 6.9535V10.9835C78.3183 11.4874 78.542 11.94 78.9883 12.3439C79.4789 12.6965 80.0149 12.8478 80.6838 12.8478C81.3528 12.8478 81.8888 12.6965 82.3351 12.3439C82.7814 11.94 83.004 11.4874 83.004 10.9835V6.9535C83.004 6.44835 82.7814 6.04572 82.3351 5.69311C81.8369 5.3551 81.265 5.1806 80.6838 5.18921ZM86.6177 10.9835C86.3951 10.9835 86.2622 10.9335 86.2622 10.6809V6.80095H87.2435V5.29049H86.2622V4.0301H84.343V5.29049H83.4503V6.80095H84.343V10.8322C84.343 11.3361 84.477 11.7387 84.8336 12.0913C85.2345 12.4952 85.6819 12.6965 86.2622 12.6965H87.1549V10.9835H86.6177ZM89.6988 12.6965V10.6809H87.9124V12.6965H88.6267L87.8238 13.9557H88.4041L89.6988 12.6965ZM99.5155 6.44835C99.5155 5.6431 98.9806 5.18921 97.9983 5.18921C97.419 5.18921 96.9727 5.44178 96.615 6.04572C96.1687 5.44178 95.7224 5.18921 95.1875 5.18921C94.6514 5.18921 94.2051 5.44178 93.9382 5.89442L93.8485 5.29049H91.9735V12.6965H93.9382V7.15481C93.9382 6.90224 94.0711 6.80095 94.3834 6.80095C94.6503 6.80095 94.8286 6.90224 94.8286 7.15481V12.6965H96.7479V7.20483C96.7479 6.9535 96.8819 6.80095 97.1942 6.80095C97.4168 6.80095 97.5497 6.9535 97.5497 7.20483V12.6965H99.5133V6.44835H99.5155ZM102.907 7.15481V7.96006L100.853 9.16919C100.318 9.57306 100.094 10.077 100.094 10.5809V10.9835C100.094 12.2426 100.764 12.8478 102.192 12.8478C102.682 12.8478 103.085 12.5952 103.442 12.0913L103.531 12.6965H105.093C104.915 12.2426 104.869 11.7387 104.869 11.1848V6.9535C104.869 5.79439 104.11 5.18921 102.639 5.18921C102.057 5.18041 101.486 5.35492 100.987 5.69311C100.541 6.04572 100.318 6.44835 100.318 6.9535V7.65872H102.326V7.15481C102.326 6.90224 102.415 6.80095 102.639 6.80095C102.861 6.80095 102.907 6.90224 102.907 7.15481ZM102.907 10.8322C102.907 11.0848 102.773 11.2348 102.461 11.2348C102.238 11.2348 102.104 11.0848 102.104 10.8322V10.3283C102.104 10.077 102.416 9.82439 102.908 9.47178V10.8322H102.907ZM105.673 2.66968V12.6965H107.594L107.682 10.4796L107.772 9.97569L108.575 12.6965H110.583L109.244 8.41395L110.449 5.29049H108.44L107.594 7.96006V2.66968H105.673ZM113.617 7.15481V8.16138H112.813V7.15481C112.813 6.90224 112.947 6.80095 113.17 6.80095C113.483 6.80095 113.617 6.90224 113.617 7.15481ZM113.171 5.18921C112.502 5.18921 112.01 5.39052 111.565 5.69311C111.029 6.04572 110.805 6.44835 110.805 6.9535V10.9835C110.805 11.4874 111.028 11.94 111.565 12.3439C112.01 12.6965 112.502 12.8478 113.171 12.8478C113.84 12.8478 114.376 12.6965 114.911 12.3439C115.357 11.94 115.58 11.4874 115.58 10.9835V10.227H113.617V10.8322C113.617 11.0848 113.483 11.2348 113.171 11.2348C112.948 11.2348 112.814 11.0848 112.814 10.8322V9.47178H115.581V6.9535C115.581 6.44835 115.358 6.04572 114.912 5.69311C114.465 5.39052 113.84 5.18921 113.171 5.18921V5.18921ZM117.811 12.6965H119.729V5.29049H117.811V12.6965ZM117.811 4.38271H119.729V2.66968H117.811V4.38271V4.38271ZM120.265 6.80095H121.159V10.8322C121.159 11.3361 121.293 11.7387 121.605 12.0913C121.961 12.4952 122.498 12.6965 123.077 12.6965H123.97V10.9835H123.435C123.212 10.9835 123.078 10.9335 123.078 10.6809V6.80095H124.061V5.29049H123.078V4.0301H121.16V5.29049H120.266V6.80095H120.265V6.80095ZM128.879 7.15481V7.96006C127.764 8.56525 127.094 8.91911 126.782 9.16919C126.291 9.57306 126.066 10.077 126.066 10.5809V10.9835C126.066 12.2426 126.736 12.8478 128.075 12.8478C128.565 12.8478 129.012 12.5952 129.414 12.0913L129.459 12.6965H130.976C130.886 12.2426 130.798 11.7387 130.798 11.1848V6.9535C130.798 6.44835 130.574 6.04572 130.217 5.69311C129.859 5.39052 129.325 5.18921 128.655 5.18921C127.986 5.18921 127.405 5.39052 126.959 5.69311C126.514 6.04572 126.29 6.44835 126.29 6.9535V7.65872H128.297V7.15481C128.297 6.90224 128.341 6.80095 128.565 6.80095C128.789 6.80095 128.879 6.90224 128.879 7.15481ZM128.879 10.8322C128.879 11.0848 128.745 11.2348 128.433 11.2348C128.212 11.2348 128.078 11.0848 128.078 10.8322V10.3283C128.078 10.077 128.343 9.82439 128.88 9.47178V10.8322H128.879V10.8322ZM134.368 7.15481V12.6965H136.332V6.44835C136.332 5.6431 135.797 5.18921 134.77 5.18921C134.234 5.18921 133.876 5.44178 133.475 5.89442L133.431 5.29049H131.646V12.6965H133.565V7.15481C133.565 6.90224 133.699 6.80095 133.922 6.80095C134.234 6.80095 134.368 6.90224 134.368 7.15481ZM139.589 2.66968L138.25 12.6965H140.034L140.169 11.2348H141.239L141.284 12.6965H143.383L142.044 2.66968H139.589V2.66968ZM140.393 9.22045L140.794 6.04572L141.016 9.22045H140.393ZM144.409 5.69311C143.918 6.04572 143.694 6.44835 143.694 6.9535V10.9835C143.694 11.4874 143.917 11.94 144.409 12.3439C144.854 12.6965 145.391 12.8478 146.059 12.8478C146.729 12.8478 147.309 12.6965 147.754 12.3439C148.201 11.94 148.424 11.4874 148.424 10.9835V9.92567H146.505V10.8322C146.505 11.0848 146.371 11.2348 146.059 11.2348C145.836 11.2348 145.703 11.0848 145.703 10.8322V7.15481C145.703 6.90224 145.836 6.80095 146.059 6.80095C146.371 6.80095 146.505 6.90224 146.505 7.15481V8.06134H148.424V6.9535C148.424 6.44835 148.201 6.04572 147.754 5.69311C147.24 5.3548 146.654 5.18063 146.059 5.18921C145.391 5.18921 144.854 5.39052 144.409 5.69311V5.69311ZM149.72 12.3439C150.164 12.6965 150.746 12.8478 151.414 12.8478C152.083 12.8478 152.619 12.6965 153.067 12.3439C153.511 11.94 153.736 11.4874 153.736 10.9835V9.92567H151.772V10.8322C151.772 11.0848 151.638 11.2348 151.416 11.2348C151.103 11.2348 150.97 11.0848 150.97 10.8322V7.15481C150.97 6.90224 151.103 6.80095 151.416 6.80095C151.638 6.80095 151.772 6.90224 151.772 7.15481V8.06134H153.736V6.9535C153.736 6.44835 153.512 6.04572 153.067 5.69311C152.619 5.39052 152.083 5.18921 151.414 5.18921C150.746 5.18921 150.164 5.39052 149.72 5.69311C149.273 6.04572 149.05 6.44835 149.05 6.9535V10.9835C149.049 11.4874 149.273 11.94 149.72 12.3439ZM157.081 5.29049V10.8322C157.081 11.0848 156.903 11.2348 156.681 11.2348C156.414 11.2348 156.234 11.0848 156.234 10.8322V5.29049H154.316V11.5874C154.316 12.4452 154.851 12.8478 155.878 12.8478C156.414 12.8478 156.771 12.5952 157.127 12.0913L157.305 12.6965H159.09V5.29049H157.081Z" fill="black"/>
<path d="M159.805 8.91773H162.349V6.95337H159.805V8.91773Z" fill="black"/>
<path fill-rule="evenodd" clip-rule="evenodd" d="M165.025 5.03808C165.025 4.63546 165.158 4.43415 165.56 4.43415C165.828 4.43415 166.006 4.63546 166.006 5.03808V5.94586H167.835V4.68547C167.835 4.18157 167.613 3.67766 167.166 3.17376C166.721 2.77113 166.229 2.51855 165.56 2.51855C164.712 2.51855 164.132 2.77113 163.685 3.27504C163.33 3.67766 163.107 4.28285 163.107 5.03808C163.107 6.14717 163.553 7.15499 164.446 8.06151L165.561 9.22062C165.829 9.57323 166.007 9.92584 166.007 10.2272C166.007 10.6811 165.784 10.9337 165.383 10.9337C165.026 10.9337 164.802 10.6811 164.802 10.2272V9.42194H163.018V10.6811C163.018 11.235 163.242 11.7389 163.687 12.1928C164.135 12.5954 164.715 12.848 165.472 12.848C166.277 12.848 166.901 12.5954 167.258 12.0915C167.704 11.6889 167.927 11.0849 167.927 10.3285C167.927 9.42069 167.392 8.31284 166.364 7.205L165.249 6.04589C165.096 5.73867 165.018 5.39059 165.025 5.03808V5.03808ZM171.362 7.15499V12.6967H173.28V6.44852C173.28 5.64327 172.745 5.18938 171.807 5.18938C171.273 5.18938 170.915 5.44196 170.513 5.8946V2.66985H168.506V12.6967H170.513V7.15499C170.513 6.90241 170.692 6.80113 170.915 6.80113C171.184 6.80113 171.362 6.90241 171.362 7.15499V7.15499ZM174.708 12.3441C175.154 12.6967 175.647 12.848 176.315 12.848C176.984 12.848 177.608 12.6967 178.055 12.3441C178.501 11.9402 178.724 11.4876 178.724 10.9837V6.95367C178.724 6.44852 178.501 6.04589 178.055 5.69328C177.608 5.39069 176.984 5.18938 176.315 5.18938C175.646 5.18938 175.154 5.39069 174.708 5.69328C174.174 6.04589 173.949 6.44852 173.949 6.95367V10.9837C173.95 11.4876 174.174 11.9402 174.708 12.3441ZM176.762 7.15499V10.8324C176.762 11.0849 176.628 11.235 176.316 11.235C176.092 11.235 175.959 11.0849 175.959 10.8324V7.15499C175.959 6.90241 176.092 6.80113 176.316 6.80113C176.628 6.80113 176.762 6.90241 176.762 7.15499ZM182.964 5.29066H181.982V4.03027H179.975V5.29066H179.171V6.80113H179.975V10.8324C179.975 11.3363 180.108 11.7389 180.51 12.0915C180.866 12.4954 181.314 12.6967 181.893 12.6967H182.874V10.9837H182.341C182.117 10.9837 181.983 10.9337 181.983 10.6811V6.80113H182.965V5.29066H182.964V5.29066Z" fill="black"/>
<path d="M183.546 12.6963H185.42V10.6807H183.546V12.6963Z" fill="black"/>
<path fill-rule="evenodd" clip-rule="evenodd" d="M190.016 0L189.123 2.16567L188.141 0H187.204V0.151297C187.426 0.151297 187.56 0.352609 187.56 0.655202V2.51828C187.56 2.87214 187.426 3.02343 187.204 3.02343V3.12347H188.232V3.02343H188.141C187.918 3.02343 187.784 2.87214 187.784 2.51828V0.603937L188.811 3.12347H188.989L190.016 0.603937V2.51828C190.016 2.87214 189.882 3.02343 189.569 3.02343V3.12347H190.998V3.02343C190.774 3.02343 190.597 2.87214 190.597 2.51828V0.655202C190.597 0.352609 190.774 0.151297 190.998 0.151297V0H190.016V0ZM185.91 0.251328H186.134C186.535 0.251328 186.759 0.402624 186.803 0.755233H186.981L186.894 0H184.349L184.304 0.755233H184.437C184.527 0.402624 184.661 0.251328 185.018 0.251328H185.329V2.51828C185.329 2.77086 185.241 2.92215 185.018 3.02343V3.12347H186.223V3.02343C186 3.02343 185.91 2.87214 185.91 2.51828V0.251328Z" fill="black"/>
<path fill-rule="evenodd" clip-rule="evenodd" d="M145.703 155.28H154.985C154.092 147.019 151.058 139.963 145.747 134.119C140.571 128.123 134.323 124.697 127.005 123.691V134.17L124.996 136.436V157.449H143.739L145.703 155.28ZM164.222 159.968C164.222 166.266 163.151 172.311 161.01 178.106C158.912 183.748 155.967 188.686 152.084 192.97C148.291 197.353 143.918 200.677 138.919 203.046C133.833 205.454 128.37 206.687 122.854 206.673C117.276 206.673 111.921 205.463 106.788 203.046C101.79 200.677 97.4176 197.353 93.6234 192.97C89.8313 188.708 86.8014 183.661 84.6993 178.106C82.5574 172.311 81.4854 166.266 81.4854 159.968C81.4854 153.67 82.5574 147.623 84.6993 141.83C86.8003 136.274 89.8303 131.228 93.6234 126.967C97.3976 122.684 101.867 119.263 106.788 116.89C111.875 114.481 117.338 113.247 122.854 113.261C128.432 113.261 133.787 114.471 138.919 116.89C143.84 119.262 148.31 122.684 152.084 126.967C155.878 131.228 158.908 136.274 161.01 141.83C163.143 147.573 164.235 153.741 164.222 159.968V159.968ZM99.9615 155.28L101.969 157.449H120.622V136.387L118.705 134.17V123.691C111.386 124.697 105.138 128.123 99.9615 134.119C94.65 139.963 91.6155 147.018 90.6354 155.28H99.9615V155.28ZM124.996 183.649L127.005 185.812V196.243C134.322 195.234 140.571 191.808 145.747 185.812C151.058 179.968 154.092 172.916 154.985 164.653H145.747L143.739 162.485H124.996V183.649V183.649ZM101.881 162.485L99.9626 164.653H90.6365C91.6177 172.915 94.6511 179.968 99.9626 185.812C105.139 191.808 111.386 195.234 118.706 196.243V185.812L120.623 183.649V162.485H101.881V162.485Z" fill="#CC2229"/>
</svg>
