<svg width="451" height="451" viewBox="0 0 451 451" fill="none" xmlns="http://www.w3.org/2000/svg">
<path d="M86.9613 1.85025C80.8804 5.02209 80.0872 7.92966 80.0872 27.7538V44.9348H67.7491C47.127 44.9348 44.8356 47.2256 44.8356 67.8427V80.1778H27.6505C7.64519 80.1778 4.82506 80.9707 1.65242 87.2263C-0.550806 91.6317 -0.550806 95.156 1.65242 99.5614C4.82506 105.817 7.64519 106.61 27.6505 106.61H44.8356V119.826V133.042H27.6505C7.64519 133.042 4.82506 133.835 1.65242 140.091C-0.550806 144.496 -0.550806 148.021 1.65242 152.426C4.82506 158.681 7.64519 159.474 27.6505 159.474H44.8356V172.691V185.907H27.6505C7.64519 185.907 4.82506 186.7 1.65242 192.955C-0.550806 197.361 -0.550806 200.885 1.65242 205.29C4.82506 211.546 7.64519 212.339 27.6505 212.339H44.8356V225.555V238.771H27.6505C7.64519 238.771 4.82506 239.564 1.65242 245.82C-0.550806 250.225 -0.550806 253.749 1.65242 258.155C4.82506 264.41 7.64519 265.203 27.6505 265.203H44.8356V278.42V291.636H27.6505C7.64519 291.636 4.82506 292.429 1.65242 298.684C-0.550806 303.09 -0.550806 306.614 1.65242 311.019C4.82506 317.275 7.64519 318.068 27.6505 318.068H44.8356V331.284V344.5H27.6505C7.64519 344.5 4.82506 345.293 1.65242 351.549C-0.550806 355.954 -0.550806 359.478 1.65242 363.884C4.82506 370.139 7.64519 370.932 27.6505 370.932H44.8356V383.267C44.8356 403.885 47.127 406.175 67.7491 406.175H80.0872V423.356C80.0872 443.357 80.8804 446.176 87.1375 449.348C91.544 451.551 95.0691 451.551 99.4756 449.348C105.733 446.176 106.526 443.357 106.526 423.356V406.175H119.745H132.965V423.356C132.965 443.357 133.758 446.176 140.015 449.348C144.421 451.551 147.947 451.551 152.353 449.348C158.61 446.176 159.403 443.357 159.403 423.356V406.175H172.623H185.842V423.356C185.842 443.357 186.635 446.176 192.892 449.348C197.299 451.551 200.824 451.551 205.23 449.348C211.487 446.176 212.281 443.357 212.281 423.356V406.175H225.5H238.719V423.356C238.719 443.357 239.513 446.176 245.77 449.348C250.176 451.551 253.701 451.551 258.108 449.348C264.365 446.176 265.158 443.357 265.158 423.356V406.175H278.377H291.597V423.356C291.597 443.357 292.39 446.176 298.647 449.348C303.053 451.551 306.579 451.551 310.985 449.348C317.242 446.176 318.035 443.357 318.035 423.356V406.175H331.255H344.474V423.356C344.474 443.357 345.267 446.176 351.524 449.348C355.931 451.551 359.456 451.551 363.862 449.348C370.12 446.176 370.913 443.357 370.913 423.356V406.175H383.251C403.873 406.175 406.164 403.885 406.164 383.267V370.932H423.35C443.355 370.932 446.175 370.139 449.348 363.884C451.551 359.478 451.551 355.954 449.348 351.549C446.175 345.293 443.355 344.5 423.35 344.5H406.164V331.284V318.068H423.35C443.355 318.068 446.175 317.275 449.348 311.019C451.551 306.614 451.551 303.09 449.348 298.684C446.175 292.429 443.355 291.636 423.35 291.636H406.164V278.42V265.203H423.35C443.355 265.203 446.175 264.41 449.348 258.155C451.551 253.749 451.551 250.225 449.348 245.82C446.175 239.564 443.355 238.771 423.35 238.771H406.164V225.555V212.339H423.35C443.355 212.339 446.175 211.546 449.348 205.29C451.551 200.885 451.551 197.361 449.348 192.955C446.175 186.7 443.355 185.907 423.35 185.907H406.164V172.691V159.474H423.35C443.355 159.474 446.175 158.681 449.348 152.426C451.551 148.021 451.551 144.496 449.348 140.091C446.175 133.835 443.355 133.042 423.35 133.042H406.164V119.826V106.61H423.35C443.355 106.61 446.175 105.817 449.348 99.5614C451.551 95.156 451.551 91.6317 449.348 87.2263C446.175 80.9707 443.355 80.1778 423.35 80.1778H406.164V67.8427C406.164 47.2256 403.873 44.9348 383.251 44.9348H370.913V27.7538C370.913 12.2469 370.737 10.1323 369.15 7.04858C367.123 3.08374 362.1 -3.05176e-05 357.693 -3.05176e-05C353.287 -3.05176e-05 348.264 3.08374 346.237 7.04858C344.65 10.1323 344.474 12.2469 344.474 27.7538V44.9348H331.255H318.035V27.7538C318.035 7.75345 317.242 4.93399 310.985 1.76212C306.579 -0.440552 303.053 -0.440552 298.647 1.76212C292.39 4.93399 291.597 7.75345 291.597 27.7538V44.9348H278.377H265.158V27.7538C265.158 7.75345 264.365 4.93399 258.108 1.76212C253.701 -0.440552 250.176 -0.440552 245.77 1.76212C239.513 4.93399 238.719 7.75345 238.719 27.7538V44.9348H225.5H212.281V27.7538C212.281 7.75345 211.487 4.93399 205.23 1.76212C200.824 -0.440552 197.299 -0.440552 192.892 1.76212C186.635 4.93399 185.842 7.75345 185.842 27.7538V44.9348H172.623H159.403V27.7538C159.403 12.2469 159.227 10.1323 157.641 7.04858C155.614 3.08374 150.59 -3.05176e-05 146.184 -3.05176e-05C141.777 -3.05176e-05 136.754 3.08374 134.727 7.04858C133.141 10.1323 132.965 12.2469 132.965 27.7538V44.9348H119.745H106.526V27.7538C106.526 12.2469 106.35 10.1323 104.763 7.04858C101.503 0.61673 93.5709 -1.67407 86.9613 1.85025ZM379.726 225.555V379.743H225.5H71.2743V225.555V71.367H225.5H379.726V225.555Z" fill="#464646"/>
<path d="M104.587 99.6497C102.56 100.707 100.533 102.733 99.4755 104.848C97.7129 108.284 97.7129 109.87 97.7129 225.555C97.7129 341.328 97.7129 342.826 99.4755 346.262C100.621 348.553 102.472 350.403 104.763 351.549C108.2 353.311 109.698 353.311 225.5 353.311C341.301 353.311 342.8 353.311 346.237 351.549C348.528 350.403 350.379 348.553 351.524 346.262C353.287 342.826 353.287 341.328 353.287 225.555C353.287 109.782 353.287 108.284 351.524 104.848C350.379 102.557 348.528 100.707 346.237 99.5616C342.8 97.7995 341.301 97.7995 225.324 97.7995C110.139 97.8876 107.76 97.8876 104.587 99.6497ZM326.848 225.555V326.879H225.5H124.152V225.555V124.232H225.5H326.848V225.555Z" fill="#464646"/>
<path d="M196.594 161.325C194.567 162.382 192.099 164.232 191.218 165.554C190.336 166.787 180.378 191.898 169.185 221.326C154.644 259.564 148.828 275.864 148.828 278.419C148.828 287.406 156.847 293.486 165.484 290.843C170.331 289.433 172.446 286.613 176.676 276.041L180.378 266.525L203.291 266.261L226.205 266.084L229.906 275.512C231.933 280.798 234.577 286.085 235.811 287.406C243.919 295.953 258.108 290.138 258.108 278.243C258.108 274.807 218.009 168.197 215.453 165.025C213.25 162.206 207.433 159.562 203.468 159.474C201.793 159.474 198.709 160.355 196.594 161.325ZM209.901 222.647C213.162 231.282 215.806 238.595 215.806 238.947C215.806 239.388 210.254 239.652 203.468 239.652C196.682 239.652 191.13 239.388 191.13 238.947C191.041 237.626 202.939 207.052 203.468 207.052C203.732 207.052 206.64 214.101 209.901 222.647Z" fill="#464646"/>
<path d="M283.665 160.973C279.523 163.087 276.879 167.404 276.174 172.955C275.91 175.51 275.734 200.885 275.91 229.52C276.174 279.653 276.263 281.592 277.937 284.499C280.757 289.345 284.018 291.195 289.394 291.195C294.77 291.195 298.03 289.345 300.851 284.499C302.525 281.592 302.613 279.918 302.613 225.555C302.613 171.193 302.525 169.519 300.851 166.611C297.061 160.268 289.746 157.801 283.665 160.973Z" fill="#464646"/>
</svg>
