<svg width="250" height="136" viewBox="0 0 250 136" fill="none" xmlns="http://www.w3.org/2000/svg">
<path d="M71.4831 33.2081C71.4831 29.0408 68.5971 25.7169 63.8545 25.7169C59.3035 25.7169 56.3267 29.1412 56.3267 33.2081C56.3267 37.1846 59.3035 40.6992 63.8545 40.6992C68.5971 40.6992 71.4831 37.1846 71.4831 33.2081ZM57.1643 1.00418V14.7011C59.7677 12.4819 63.0169 11.0961 67.6688 11.0961C79.5659 11.0961 88.0321 20.6258 88.0321 33.2081C88.0321 45.7904 79.1017 55.32 67.1138 55.32C61.8161 55.32 57.5376 53.2815 54.2783 50.3192L53.7233 54.4866H40.6153V1.00418C40.6153 1.00418 49.1118 -1.25522 57.1643 1.00418ZM105.6 28.1169H118.799C118.426 25.4358 116.286 23.3973 112.2 23.3973C109.233 23.3973 106.72 24.6927 105.6 28.1169ZM134.339 37.3754H105.701C106.912 40.5185 109.788 42.6473 115.277 42.6473C121.503 42.6473 124.571 39.9662 125.691 39.1327L132.018 49.3151C130.06 51.3535 124.298 55.3301 113.33 55.3301C98.4559 55.3301 89.1521 45.5193 89.1521 33.2181C89.1521 19.8927 98.8191 11.1062 112.119 11.1062C126.064 11.1062 134.531 20.6358 134.531 33.7704C134.52 35.3369 134.339 37.3754 134.339 37.3754ZM151.907 28.1169H165.106C164.732 25.4358 162.593 23.3973 158.506 23.3973C155.53 23.3973 153.027 24.6927 151.907 28.1169ZM180.635 37.3754H151.998C153.209 40.5185 156.085 42.6473 161.574 42.6473C167.8 42.6473 170.868 39.9662 171.988 39.1327L178.315 49.3151C176.357 51.3535 170.595 55.3301 159.626 55.3301C144.753 55.3301 135.449 45.5193 135.449 33.2181C135.449 19.8927 145.116 11.1062 158.416 11.1062C172.361 11.1062 180.827 20.6358 180.827 33.7704C180.827 35.3369 180.635 37.3754 180.635 37.3754ZM214.672 33.2081C214.49 29.0408 211.786 25.7169 207.043 25.7169C202.482 25.7169 199.515 29.1412 199.515 33.2081C199.515 37.1846 202.492 40.6992 207.043 40.6992C211.786 40.6992 214.853 37.1846 214.672 33.2081ZM200.444 62.3794C191.685 59.8489 183.895 62.3794 183.895 62.3794V11.9296H196.912L197.467 16.0969C200.716 13.1346 204.995 11.0961 210.303 11.0961C222.3 11.0961 231.221 20.6258 231.221 33.2081C231.221 45.7904 222.765 55.32 210.858 55.32C206.67 55.32 203.229 53.8439 200.444 51.6146V62.3794ZM72.3207 63.7451L70.9281 81.5089C69.6264 80.9566 68.5063 80.4947 66.2763 80.4947C61.6244 80.4947 57.1643 82.9951 57.1643 89.6528V106.774H40.5144V64.207H54.1875L54.7425 71.7985C56.0442 66.7074 61.5336 63.3836 68.2238 63.3836C69.7172 63.3735 71.0189 63.4739 72.3207 63.7451Z" fill="#1B2343"/>
<path d="M102.543 85.4954C102.543 80.9666 99.657 77.6327 94.9143 77.6327C90.3634 77.6327 87.3866 81.0569 87.3866 85.4954C87.3866 89.7531 90.3634 93.2677 94.9143 93.2677C99.657 93.2677 102.543 89.7531 102.543 85.4954ZM71.1101 85.4954C71.1101 72.4512 81.6146 63.1023 94.9143 63.1023C108.214 63.1023 118.628 72.4512 118.628 85.4954C118.628 98.4493 108.214 107.798 94.9143 107.798C81.6146 107.798 71.1101 98.4493 71.1101 85.4954ZM151.534 85.4954C151.534 81.3281 148.648 78.0043 143.905 78.0043C139.344 78.0043 136.378 81.4285 136.378 85.4954C136.378 89.4719 139.354 92.9865 143.905 92.9865C148.658 92.9865 151.534 89.4719 151.534 85.4954ZM139.677 112.096C140.222 112.116 141.09 112.136 141.675 112.136C146.7 112.136 150.787 109.917 150.787 106.212V103.159C148.093 105.288 144.652 106.583 140.373 106.583C128.194 106.583 119.728 98.0677 119.728 85.4854C119.728 72.903 128.194 63.3734 140.555 63.3734C145.944 63.3734 150.131 65.3115 153.481 68.1834L153.855 64.3876H167.054V103.631C167.054 116.394 158.224 125.652 142.876 125.652C136.378 125.652 131.897 124.829 128.547 123.624L139.677 112.096ZM186.408 80.4042H199.607C199.233 77.7231 197.094 75.6846 193.007 75.6846C190.03 75.6846 187.518 76.98 186.408 80.4042ZM215.136 89.6527H186.499C187.71 92.7958 190.585 94.9246 196.075 94.9246C202.301 94.9246 205.368 92.2435 206.489 91.41L212.815 101.592C210.868 103.631 205.096 107.607 194.127 107.607C179.253 107.607 169.95 97.7965 169.95 85.4954C169.95 72.17 179.627 63.6445 192.916 63.3835C206.569 63.1123 215.257 72.8528 215.328 86.0477C215.328 87.6243 215.136 89.6527 215.136 89.6527ZM250 63.745L248.608 81.5088C247.306 80.9565 246.186 80.4946 243.956 80.4946C239.304 80.4946 234.844 82.995 234.844 89.6527V106.774H218.204V64.2069H231.867L232.422 71.7984C233.724 66.7073 239.213 63.3835 245.903 63.3835C247.397 63.3734 248.698 63.4738 250 63.745Z" fill="#1B2343"/>
<path d="M0 126.918L202.654 27.8359L213.33 37.4861L125.53 126.556L0 126.918Z" fill="white"/>
<path d="M178.315 49.3053L173.754 41.9547L149.798 53.6634C152.704 54.7278 156.004 55.3102 159.627 55.3102C170.595 55.3203 176.357 51.3437 178.315 49.3053ZM189.808 61.3453L211.261 39.5849C210.091 40.2878 208.668 40.7095 207.043 40.7095C202.482 40.7095 199.516 37.1949 199.516 33.2184C199.516 31.5113 200.04 29.9347 200.979 28.6594L183.895 37.0142V62.3897C183.895 62.3796 186.236 61.6165 189.808 61.3453ZM57.1645 98.9617L41.1907 106.774H57.1645V98.9617ZM94.9142 107.788C108.214 107.788 118.628 98.4396 118.628 85.4857C118.628 79.9728 116.761 75.1226 113.613 71.357L98.8597 78.5669C101.211 79.8623 102.543 82.3929 102.543 85.4757C102.543 89.7334 99.6569 93.248 94.9142 93.248C90.3633 93.248 87.3865 89.7334 87.3865 85.4757C87.3865 85.0137 87.4268 84.5619 87.4874 84.12L71.9778 91.7016C74.7528 101.332 83.8648 107.788 94.9142 107.788ZM143.915 92.9869C139.364 92.9869 136.387 89.4723 136.387 85.4957C136.387 81.4288 139.364 78.0046 143.915 78.0046C148.658 78.0046 151.544 81.3385 151.544 85.4957C151.534 89.4723 148.658 92.9869 143.915 92.9869ZM153.865 64.398L153.491 68.1938C150.141 65.3219 145.964 63.3838 140.565 63.3838C128.204 63.3838 119.738 72.9134 119.738 85.4957C119.738 98.0781 128.204 106.593 140.383 106.593C142.482 106.593 144.369 106.282 146.075 105.71L167.074 84.4112V64.398H153.865ZM170.323 81.1075L187.124 64.0666C178.285 66.0348 171.897 72.1703 170.323 81.1075ZM54.6317 123.775L51.3219 132.16H49.6771L47.4067 126.697L45.1564 132.16H43.4309L40.1211 123.775H42.7548L44.5711 128.836L46.6196 123.604H48.2644L50.4238 128.956L52.0686 123.765L54.6317 123.775ZM57.6589 127.099H61.5742C61.4632 126.155 60.7164 125.512 59.7578 125.512C58.7185 125.512 57.9314 126.054 57.6589 127.099ZM63.8244 128.625H57.6387C57.9112 129.589 58.8496 130.322 60.1615 130.322C61.3925 130.322 62.0283 129.76 62.3915 129.469L63.3804 131.186C62.8658 131.638 61.8264 132.33 59.8991 132.33C57.225 132.33 55.2674 130.433 55.2674 127.972C55.2674 125.532 57.0838 123.614 59.6569 123.614C62.1998 123.614 63.8547 125.472 63.8547 127.992C63.8648 128.294 63.8244 128.625 63.8244 128.625ZM72.2502 127.972C72.2502 126.737 71.3118 125.783 70.0908 125.783C68.7689 125.783 67.9314 126.727 67.9314 127.972C67.9314 129.248 68.7689 130.161 70.0908 130.161C71.3118 130.151 72.2502 129.228 72.2502 127.972ZM74.662 127.972C74.662 130.453 72.8658 132.33 70.5449 132.33C69.2835 132.33 68.3249 131.798 67.669 131.055L67.5782 132.17H65.6408V119.156H68.0424V124.709C68.6478 124.066 69.5055 123.614 70.6256 123.614C72.9465 123.614 74.662 125.492 74.662 127.972ZM80.9687 119.146H83.0373V134.058H80.9687V119.146ZM96.0747 127.972C96.0747 126.697 95.2371 125.783 93.9152 125.783C92.6841 125.783 91.7558 126.717 91.7558 127.972C91.7558 129.207 92.6942 130.161 93.9152 130.161C95.227 130.151 96.0948 129.228 96.0747 127.972ZM98.3754 123.775V132.16H96.2563L96.1655 131.015C95.5399 131.778 94.6317 132.33 93.3804 132.33C91.0595 132.33 89.334 130.453 89.334 127.972C89.334 125.492 91.11 123.614 93.4309 123.614C94.551 123.614 95.4288 124.016 96.0444 124.578L96.1554 123.775H98.3754V123.775ZM107.255 127.972C107.255 126.717 106.317 125.783 105.096 125.783C103.774 125.783 102.936 126.697 102.936 127.972C102.936 129.207 103.774 130.161 105.096 130.161C106.327 130.151 107.255 129.207 107.255 127.972ZM109.677 127.972C109.677 130.453 107.952 132.33 105.631 132.33C104.511 132.33 103.653 131.879 103.047 131.236V135.715H100.646V123.775H102.664L102.755 124.799C103.411 124.106 104.329 123.614 105.56 123.614C107.881 123.614 109.677 125.492 109.677 127.972ZM118.103 127.972C118.103 126.717 117.164 125.783 115.943 125.783C114.622 125.783 113.784 126.697 113.784 127.972C113.784 129.207 114.622 130.161 115.943 130.161C117.164 130.151 118.103 129.207 118.103 127.972ZM120.515 127.972C120.515 130.453 118.789 132.33 116.468 132.33C115.348 132.33 114.49 131.879 113.885 131.236V135.715H111.483V123.775H113.502L113.592 124.799C114.248 124.106 115.166 123.614 116.398 123.614C118.718 123.614 120.515 125.492 120.515 127.972Z" fill="#F03555"/>
</svg>
