<svg width="190" height="250" viewBox="0 0 190 250" fill="none" xmlns="http://www.w3.org/2000/svg">
<path d="M28.8216 189.095C21.2204 189.083 16.2626 191.748 13.3371 197.417C11.0337 201.882 10.118 206.597 9.51504 217.111C9.38745 219.354 9.19664 220.661 8.99791 220.667C7.63057 220.708 2.41412 221.518 2.21427 221.72C2.07539 221.86 1.87554 222.913 1.7694 224.06C1.49842 227.02 1.51197 227.03 5.86014 227.03C9.98023 227.03 9.79167 226.885 9.81539 230.066L9.83006 232.098L6.28017 232.436C3.83905 232.669 2.59365 232.912 2.29218 233.217C1.77279 233.742 1.72424 236.269 2.22669 236.584C2.4096 236.698 4.18003 236.869 6.16387 236.963C8.1477 237.057 9.90233 237.268 10.0638 237.43C10.2252 237.595 10.4725 240.108 10.6114 243.017C10.7548 245.99 11.0167 248.623 11.2098 249.033C11.4277 249.491 11.8726 249.818 12.4134 249.915C13.6238 250.134 16.6419 249.897 17.071 249.55C17.3363 249.334 17.4289 247.735 17.4289 243.375C17.4289 239.722 17.5384 237.421 17.7191 237.309C17.8783 237.209 21.33 237.054 25.3891 236.964C29.5532 236.871 32.9247 236.675 33.1268 236.513C33.5378 236.185 33.6123 233.185 33.2262 232.567C33.0286 232.252 31.4524 232.138 25.7041 232.024C21.7048 231.944 18.2012 231.759 17.919 231.61C17.4842 231.382 17.4176 231.02 17.4899 229.257L17.5723 227.175L24.741 227C28.6827 226.903 32.7474 226.666 33.7727 226.472C40.0516 225.283 45.5232 219.796 47.2575 212.948C49.2019 205.268 46.1431 196.426 40.1182 192.305C36.5525 189.867 33.8574 189.1 28.8216 189.095V189.095ZM28.607 196.519C31.4716 196.502 31.7188 196.549 33.5728 197.477C40.4411 200.912 42.0953 210.547 36.7987 216.267C35.3534 217.826 32.7666 219.25 30.4757 219.742H30.4746C29.6842 219.913 26.4922 220.137 23.3793 220.242L17.7157 220.432L17.7168 216.852C17.7236 207.871 18.8911 202.281 21.3379 199.534C22.0718 198.709 23.3285 197.7 24.1324 197.288C25.4173 196.631 25.9582 196.537 28.607 196.52V196.519ZM100.506 197.206C99.203 197.224 97.9102 197.347 97.6234 197.562C97.2847 197.815 97.0058 198.836 96.693 200.952C96.448 202.62 96.1172 204.14 95.9591 204.333C95.801 204.524 94.7442 204.829 93.6106 205.009C89.4306 205.669 89.3934 205.7 89.4002 208.588C89.4035 209.731 89.5153 210.842 89.6497 211.056C89.8111 211.313 90.9143 211.532 92.871 211.695C94.5082 211.832 95.8789 211.95 95.9196 211.957C95.958 211.964 95.9907 217.956 95.9907 225.274C95.9907 239.655 96.1217 241.197 97.5602 243.683C98.9061 246.011 101.348 247.876 103.841 248.477V248.476C104.334 248.595 107.076 248.704 109.939 248.721C114.435 248.746 115.163 248.688 115.313 248.292C115.41 248.042 115.488 246.824 115.488 245.587C115.488 242.67 115.344 242.543 111.479 242.097C107.171 241.601 105.674 240.838 104.648 238.615C104.244 237.738 104.167 235.901 104.081 225.036C104.016 216.982 104.082 212.369 104.265 212.185C104.421 212.027 106.949 211.797 109.882 211.673C113.36 211.527 115.364 211.325 115.639 211.094C116.128 210.683 116.242 206.048 115.782 205.308C115.567 204.964 114.345 204.814 109.837 204.585L104.162 204.295L104.019 201.025C103.91 198.55 103.77 197.688 103.445 197.482C103.121 197.275 101.809 197.188 100.506 197.206V197.206ZM144.322 204.072C143.606 204.094 142.848 204.17 142.082 204.297C138.131 204.954 135.834 206.025 132.449 208.789C131.449 209.605 130.589 210.232 130.539 210.18C130.489 210.129 130.236 209.05 129.978 207.782C129.718 206.513 129.382 205.324 129.229 205.136C128.787 204.599 123.604 204.295 123.032 204.773C122.607 205.13 122.583 207.031 122.764 226.739C122.945 246.348 123.004 248.349 123.437 248.679C124.183 249.248 129.941 249.172 130.521 248.586C130.918 248.184 130.97 246.394 130.97 233.269V218.408L132.047 217.434C133.749 215.893 136.722 214.059 138.554 213.423C139.943 212.94 140.971 212.839 144.474 212.839C146.806 212.839 148.78 212.732 148.86 212.6C148.939 212.47 149.092 210.872 149.199 209.053C149.374 206.07 149.34 205.679 148.855 205.094C148.257 204.37 146.472 203.998 144.322 204.071V204.072ZM70.1783 204.221C69.0335 204.207 67.8884 204.226 66.7447 204.279C60.9027 204.554 58.4345 205.356 55.8206 207.826C54.0197 209.526 52.8737 211.379 52.1782 213.708C51.0333 217.54 50.8537 219.393 50.8695 227.175C50.8842 233.791 50.9599 235.033 51.4985 237.41C52.9098 243.643 56.0295 247.214 61.4402 248.792C62.943 249.23 64.2483 249.28 71.7624 249.187C81.3056 249.069 84.1329 248.81 84.7178 248.004C85.2417 247.281 85.2213 243.708 84.6907 243.172C84.2661 242.743 77.688 242.38 70.3432 242.38C65.0364 242.38 62.2904 241.411 60.6216 238.954C59.8606 237.831 59.0025 234.053 59.0025 231.818V230.586L67.963 230.421C76.1084 230.27 77.1065 230.198 78.93 229.622C82.3275 228.547 84.2684 226.802 85.4743 223.737C86.3324 221.557 86.3166 215.836 85.4449 212.981C84.3034 209.242 81.9187 206.469 78.8295 205.289C77.1855 204.661 73.8547 204.268 70.1783 204.221V204.221ZM170.41 204.287C167.015 204.287 163.588 204.474 162.224 204.847C158.475 205.872 156.091 207.621 154.352 210.618C152.623 213.598 151.849 216.841 151.335 223.265C151.053 226.795 151.071 228.179 151.453 231.947C152.17 239.03 153.633 242.792 156.811 245.731C159.191 247.932 161.822 248.89 166.668 249.319C177.152 250.247 184.057 247.723 186.975 241.899C188.674 238.505 189.608 232.847 189.594 226.016C189.572 213.541 186.218 207.193 178.408 204.844C177.17 204.472 173.806 204.287 170.41 204.287V204.287ZM69.1124 210.952C71.54 210.967 74.1821 211.374 75.3902 211.995C77.4339 213.044 78.5009 215.414 78.5009 218.901C78.5009 221.216 77.8912 222.579 76.4934 223.4C75.5596 223.947 74.9194 223.995 67.2777 224.084C61.5237 224.151 59.007 224.084 58.8704 223.862C58.7631 223.686 58.8207 222.34 58.9968 220.872C59.8945 213.414 61.1941 211.787 66.8192 211.075C67.5802 210.985 68.3462 210.944 69.1124 210.952V210.952ZM170.415 211.535C174.975 211.535 175.043 211.544 176.693 212.404C178.031 213.1 178.525 213.565 179.184 214.749C180.58 217.256 181.135 220.618 181.137 226.595C181.143 237.248 179.211 241.398 173.992 241.939H173.991C170.894 242.259 170.084 242.279 167.776 242.082C162.523 241.638 160.849 239.624 159.778 232.462C159.244 228.888 159.243 224.76 159.776 221.237C160.628 215.61 161.738 213.393 164.287 212.23C165.689 211.59 166.168 211.535 170.415 211.535V211.535Z" fill="#333133"/>
<path d="M95.9093 0.00194054C90.2807 0.0258912 83.8392 0.283643 81.3665 0.6794C66.3178 3.08815 51.9353 8.87052 40.4094 17.1438C33.5897 22.0411 25.9772 29.2354 21.0498 35.4466C6.56684 53.6982 -0.729415 75.694 0.0575694 98.7288C0.348878 107.262 1.37636 114.077 3.48665 121.484C8.49987 139.073 17.7066 154.078 31.1993 166.637C45.7941 180.224 65.3637 188.97 85.9552 191.112C90.3112 191.564 103.653 191.241 108.032 190.576C119.436 188.847 127.642 186.189 138.139 180.823C158.036 170.651 173.969 153.17 182.543 132.1C185.642 124.483 187.498 117.705 188.919 108.799C189.793 103.318 190.001 91.8527 189.332 85.9848C186.747 63.2955 177.468 43.7176 161.807 27.9044C152.634 18.6435 143.893 12.6867 131.545 7.2875C123.358 3.70631 113.401 1.14473 104.13 0.230043C102.371 0.0566858 99.2865 -0.0128861 95.9105 0.00194054H95.9093ZM104.366 33.3777C113.264 33.274 120.292 35.247 126.849 39.6175C133.593 44.1133 139.233 52.1322 141.535 60.499C143.579 67.926 143.542 76.4136 141.43 83.8224C140.5 87.0888 138.061 92.2587 136.076 95.1727C132.947 99.7678 127.008 104.959 122.655 106.905C120.28 107.966 116.517 109.186 113.767 109.786C111.265 110.331 109.781 110.39 95.4882 110.521L79.9348 110.661V122.188H96.0098C106.542 122.188 112.276 122.291 112.639 122.488C113.147 122.762 113.194 123.131 113.194 126.977C113.194 129.281 113.162 131.196 113.122 131.231C113.083 131.269 105.632 131.367 96.5642 131.449L80.077 131.601L80.0037 144.607C79.9517 153.623 79.8298 157.734 79.6085 158.002C79.3635 158.3 78.0977 158.39 74.1628 158.39C69.4206 158.39 68.9949 158.348 68.4642 157.812C68.0973 157.441 67.8884 156.841 67.8861 156.147C67.8748 153.763 66.4691 131.999 66.3088 131.736C66.2038 131.565 62.9474 131.456 58.0054 131.456C53.533 131.456 49.6703 131.376 49.4208 131.28C48.7637 131.025 48.7524 125.045 49.4095 124.494C49.6963 124.254 52.6342 123.899 57.7953 123.477C62.165 123.12 65.7894 122.815 65.847 122.798C65.9746 122.762 65.6483 114.968 65.4123 112.414L65.244 110.603H57.4137C50.6764 110.603 49.519 110.54 49.1317 110.148C48.767 109.779 48.6801 108.951 48.6801 105.785C48.6801 101.862 48.8551 100.972 49.6873 100.651C49.9334 100.555 53.3839 100.143 57.3561 99.7347C61.3272 99.3276 64.6569 98.86 64.7563 98.698C64.8556 98.5361 65.0182 94.9252 65.1176 90.6745C65.4631 75.8468 67.2121 64.1657 70.3589 55.6507C75.66 41.31 84.6533 34.7007 100.435 33.5488C101.743 33.4517 103.054 33.3947 104.366 33.3777V33.3777ZM104.646 46.9384C104.127 46.9429 103.549 46.9657 102.871 47.0022C98.7637 47.2224 96.4863 47.7561 93.5529 49.1897C86.3232 52.7242 82.2336 61.2563 80.8053 75.7864C80.4068 79.8317 79.8377 96.8515 80.0691 97.7822L80.2543 98.5315L91.2044 98.3479C97.227 98.2464 103.316 98.0171 104.736 97.8358C115.788 96.433 124.077 89.9024 127.076 80.2355C128.775 74.7217 128.696 68.8054 126.85 63.34C125.744 60.0782 124.595 58.0401 122.316 55.2972C119.098 51.4251 114.164 48.5032 109.022 47.4242C107.264 47.0547 106.208 46.9201 104.646 46.9372V46.9384Z" fill="#D2BE5D"/>
</svg>
