<svg width="251" height="107" viewBox="0 0 251 107" fill="none" xmlns="http://www.w3.org/2000/svg">
<path d="M21.6019 0.364908C20.4546 0.586394 18.9154 0.946309 18.2158 1.16779C17.4882 1.38928 16.7606 1.58308 16.5647 1.58308C15.8371 1.58308 12.0032 3.38266 10.2681 4.54546C6.15435 7.31404 3.10401 11.6607 1.62082 16.8103C0.445462 20.9631 0.473446 20.4925 0.473446 51.0022V80.3491H25.6597L25.7437 67.0599C25.7717 59.7786 25.9116 53.6877 26.0515 53.5493C26.2194 53.3831 37.4693 53.2447 41.9189 53.3555C42.0868 53.3555 42.3107 53.8815 42.4226 54.5183C43.1502 59.3633 44.6334 63.6269 46.5644 66.5893C46.9841 67.2537 47.3479 67.8351 47.3479 67.9182C47.3479 68.5273 51.3777 72.957 53.3647 74.5351C54.1482 75.1442 54.8199 75.6979 54.9038 75.7809C55.8553 76.7223 61.3403 79.6569 62.1239 79.6569C62.2918 79.6569 62.8515 79.8231 63.3552 80.0445C65.4261 80.9305 68.2526 81.3181 72.4223 81.3181C74.717 81.3181 77.0957 81.1797 77.7114 81.0135C78.3271 80.8474 79.3345 80.6259 79.9502 80.4875C82.3569 79.9892 85.715 78.5218 88.6255 76.6669C90.8922 75.2272 95.2019 71.1574 96.769 68.9702C97.3847 68.1673 98.0283 67.4752 98.1963 67.4752C98.4761 67.4752 98.5601 69.0256 98.616 73.926L98.7 80.3491L110.454 80.4321C116.918 80.4598 122.487 80.4321 122.823 80.3491L123.411 80.2107L123.55 67.4198C123.662 53.7154 123.634 53.9092 125.174 50.4485C125.621 49.4518 127.664 46.7663 128.504 46.0464C129.399 45.3266 131.834 43.9423 132.226 43.9423C132.422 43.9423 132.925 43.7485 133.373 43.527C134.437 42.9733 134.744 43.3055 134.576 44.8282C134.492 45.465 134.297 47.2092 134.129 48.6489C133.933 50.4485 133.905 52.0819 134.101 53.7707C134.52 57.8406 134.912 60.2492 135.22 60.8306C135.36 61.1075 135.5 61.5504 135.5 61.7996C135.5 62.0488 135.668 62.6579 135.892 63.1285C136.088 63.6269 136.563 64.7066 136.899 65.5372C137.767 67.669 139.782 70.576 141.936 72.8462C143.616 74.6181 148.345 77.9958 149.101 77.9958C149.296 77.9958 149.8 78.1619 150.248 78.3834C151.311 78.9371 153.69 79.5739 156.069 79.9615C159.231 80.4598 166.255 79.9338 167.291 79.0755C167.878 78.6049 167.878 57.6468 167.291 57.4253C167.067 57.3422 166.311 57.453 165.556 57.6744C163.821 58.1728 163.205 58.1728 161.75 57.536C156.265 55.2104 155.845 47.7353 161.05 44.7729C164.044 43.084 167.654 44.0254 169.334 46.9877C170.453 48.9257 170.565 50.3654 170.677 63.1839C170.789 73.8983 170.733 76.0024 170.341 78.1896C169.529 82.647 168.214 84.3635 164.464 85.8032C162.897 86.3846 162.393 86.44 156.768 86.44C152.011 86.4123 150.276 86.3292 148.513 85.9139C144.735 85.0834 140.677 83.9759 139.278 83.3945C138.83 83.2284 138.27 83.1177 138.103 83.173C137.823 83.2838 137.739 85.471 137.739 92.9738V102.608L138.606 103.051C139.082 103.301 140.061 103.605 140.761 103.744C141.489 103.882 142.72 104.131 143.476 104.297C144.259 104.463 145.49 104.74 146.246 104.906C147.002 105.072 148.457 105.294 149.464 105.432C150.472 105.543 152.431 105.792 153.802 105.958C156.88 106.374 166.955 106.18 169.921 105.682C171.069 105.488 172.608 105.183 173.335 104.962C174.063 104.74 174.847 104.574 175.07 104.574C175.294 104.574 175.91 104.408 176.414 104.187C176.917 103.965 178.009 103.522 178.848 103.19C183.718 101.252 188.027 97.2097 190.378 92.3924C191.525 90.0668 192.225 87.935 192.953 84.7788C193.54 82.1487 193.764 79.8784 193.96 73.8429C194.072 70.2992 194.24 68.7211 194.436 68.7211C194.632 68.7211 195.471 69.607 196.339 70.6868C197.85 72.6248 201.068 75.4764 203.391 76.9437C204.79 77.8297 208.708 79.6569 209.212 79.6569C209.436 79.6569 209.967 79.8507 210.387 80.0722C210.835 80.2937 211.479 80.4875 211.814 80.4875C212.15 80.4875 213.158 80.6813 214.053 80.9028C216.292 81.4842 224.128 81.4842 226.842 80.8751C230.704 80.0445 232.355 79.4908 235.965 77.7743C239.239 76.2239 244.137 73.0954 245.34 71.7942C245.508 71.6281 246.599 70.6314 247.803 69.607C248.978 68.5549 249.958 67.5859 249.958 67.4475C249.958 67.143 248.922 66.0909 241.758 59.2525C239.156 56.7608 236.945 54.7397 236.805 54.7397C236.665 54.7397 236.021 55.2658 235.35 55.9302C230.928 60.36 225.415 62.4641 220.49 61.6889C214.613 60.7476 211.059 56.2902 211.059 49.8671C211.059 43.4716 214.893 38.4051 219.734 38.4051C221.945 38.4051 225.331 39.9279 225.331 40.9246C225.331 41.1737 224.687 41.7274 223.876 42.1704C223.064 42.6134 222.141 43.1117 221.833 43.3055C221.525 43.4716 220.909 43.8316 220.434 44.053C219.986 44.2745 218.978 44.8559 218.195 45.2989C217.439 45.7696 216.46 46.2956 216.04 46.4617C215.229 46.7663 214.977 47.7076 215.508 48.2336C215.676 48.3997 216.264 49.3687 216.824 50.4485C217.383 51.5005 218.307 53.2447 218.867 54.2691C219.426 55.2935 220.042 56.484 220.266 56.8992C220.462 57.3145 220.825 57.8682 221.049 58.1174C221.497 58.6158 221.189 58.7542 226.031 56.124C226.954 55.6257 228.409 54.8505 229.249 54.4075C230.088 53.9645 231.544 53.1893 232.467 52.6633C233.391 52.165 234.79 51.4175 235.545 51.0022C236.329 50.6146 237.7 49.8671 238.624 49.341C239.547 48.8427 240.947 48.0952 241.702 47.7076C242.486 47.32 243.857 46.5724 244.78 46.0464C245.704 45.5204 247.243 44.6898 248.195 44.2192C249.146 43.7208 250.07 43.1671 250.237 42.9733C250.489 42.6688 250.181 41.7828 248.838 39.125C245.312 31.9821 240.331 26.8048 234.09 23.7594C233.363 23.3995 232.411 22.9288 231.991 22.735C231.6 22.5135 231.068 22.3474 230.844 22.3474C230.62 22.3474 230.06 22.1536 229.641 21.9321C229.193 21.7106 228.521 21.5168 228.13 21.5168C227.738 21.5168 226.814 21.323 226.059 21.1015C224.156 20.5201 216.404 20.5201 213.885 21.1015C211.451 21.6553 209.156 22.3197 208.12 22.735C203.307 24.7561 200.369 26.9709 195.919 31.9267C195.024 32.9234 193.764 34.8337 192.981 36.3841C192.337 37.6853 191.777 38.4051 191.469 38.4051C191.33 38.4051 190.966 37.8237 190.602 37.0762C189.818 35.4428 188.167 32.6742 187.412 31.7606C181.143 24.2577 172.552 20.354 163.149 20.7416C160.071 20.8801 158.839 21.1015 155.649 21.9875C151.311 23.2333 147.226 25.5313 143.979 28.5213C141.824 30.5147 141.629 30.3209 141.657 26.3065C141.685 24.5069 141.685 22.7627 141.685 22.4028C141.657 21.8214 141.545 21.7937 139.642 21.7937C137.319 21.7937 133.317 22.4028 131.526 23.0119C128.532 24.0086 126.405 25.559 123.662 28.6598C123.215 29.1304 122.739 29.5457 122.599 29.5457C122.487 29.5457 122.319 27.8292 122.291 25.7251L122.207 21.9321L110.398 21.8491L98.5601 21.7937V28.2998C98.5601 32.4527 98.4481 34.806 98.2802 34.806C97.8884 34.806 97.1608 34.0308 96.2933 32.7019C95.2299 31.1238 91.7318 27.6354 89.7448 26.1957C87.702 24.7284 87.2822 24.4792 85.6871 23.704C84.9874 23.3718 84.2039 23.0119 83.952 22.8734C83.1125 22.4581 80.314 21.5999 78.2431 21.1292C75.5286 20.5201 69.26 20.5201 66.5455 21.1292C63.4951 21.8214 61.5642 22.5135 58.9616 23.8424C55.0158 25.8635 52.9449 27.5523 48.9431 31.9821C48.0196 33.0064 47.7677 33.0618 47.3479 32.3143C47.0681 31.7883 46.7603 31.7606 36.8536 31.7606C31.2567 31.7606 26.4993 31.6775 26.2474 31.5945C25.7157 31.4006 25.6317 29.435 26.1075 27.4139C26.5552 25.4759 27.6467 24.0639 29.4377 23.0672L30.9768 22.209L39.1764 22.0982C47.264 22.0152 47.3479 22.0152 47.4879 21.4061C47.5718 21.1015 47.5998 16.1458 47.5718 10.4425L47.4879 0.0603643L35.5943 0.00499285C26.3034 -0.0226929 23.253 0.0603643 21.6019 0.364908V0.364908ZM75.1928 45.1051C77.3476 46.1572 78.411 48.0675 78.411 50.8637C78.411 53.4939 77.6834 54.9059 75.5006 56.5393C74.5491 57.2592 74.1853 57.3422 72.4223 57.3699C70.6592 57.3699 70.2395 57.2592 69.232 56.5947C66.9373 55.0997 65.7339 52.1096 66.4056 49.3964C67.413 45.1328 71.3589 43.1948 75.1928 45.1051Z" fill="#25477F"/>
<path d="M6.91133 83.4773C4.05689 84.6955 2.54571 86.0521 1.25841 88.5161C0.167003 90.6756 -0.000906016 94.2471 0.894607 96.3512C2.23788 99.452 4.16883 101.279 7.19118 102.331L8.84228 102.913H126.994L128.645 102.331C131.667 101.279 133.598 99.452 134.942 96.3512C135.837 94.2471 135.669 90.6756 134.578 88.5161C133.542 86.5227 131.919 84.8893 129.96 83.9203L128.365 83.1174L68.198 83.062C12.0046 83.0066 7.94677 83.0343 6.91133 83.4773V83.4773ZM14.0754 88.793C14.3553 89.6235 14.6911 90.8694 14.831 91.5615L15.0549 92.8074L15.6426 91.5615C16.2023 90.3434 16.9299 88.5992 17.2377 87.6025C17.3497 87.2149 17.7414 87.1318 19.4765 87.1318C20.6519 87.1318 21.6593 87.2702 21.7433 87.4364C21.8552 87.5748 21.8552 90.0111 21.7433 92.8351L21.5194 97.957L20.0922 97.8739L18.6649 97.7908L18.7769 95.133C18.8328 93.4165 18.7489 92.3921 18.553 92.2814C18.3851 92.1706 18.1892 92.4198 18.0773 92.8628C17.8254 93.9979 16.8459 96.8772 16.5381 97.4309C16.3422 97.7908 15.9224 97.9293 14.943 97.9293C13.4598 97.9293 12.9281 97.597 12.9281 96.6004C12.9281 96.2404 12.6482 95.05 12.3124 93.9702L11.6687 91.9768L11.4169 94.9392L11.193 97.9293H9.82175C9.06616 97.9293 8.4505 97.8462 8.4505 97.7078C8.47848 95.4929 9.06616 88.3777 9.29004 87.824C9.56989 87.1318 9.62586 87.1041 11.5568 87.1872L13.5717 87.2702L14.0754 88.793ZM33.1611 87.6025C34.6163 88.4054 35.3159 89.1252 35.9036 90.4264C36.5472 91.8938 36.5752 92.8628 35.9595 94.3855C35.3998 95.8528 34.9241 96.4065 33.4969 97.3202C32.4894 97.9846 32.0976 98.04 29.579 98.0677C26.9204 98.0677 26.7246 98.0123 25.5212 97.2371C23.2544 95.7421 22.4709 93.1119 23.5343 90.7033C24.6537 88.2116 26.5007 87.1872 29.9428 87.1595C31.6779 87.1318 32.5174 87.2702 33.1611 87.6025ZM47.2094 88.3777V89.4851L45.7542 89.5682C44.9706 89.6235 44.187 89.7896 44.0471 89.9834C43.8792 90.1772 43.6553 92.0045 43.5154 94.0533L43.2915 97.7908L41.5565 97.8739L39.7934 97.957L39.8214 96.3512C39.8214 95.4652 39.9334 93.6933 40.0453 92.4475C40.2132 90.3434 40.1852 90.0942 39.7095 89.845C39.4017 89.7066 38.842 89.6235 38.4502 89.7066C38.0584 89.7896 37.5547 89.7896 37.3588 89.7066C36.967 89.5682 36.8271 87.6578 37.1909 87.2979C37.3028 87.2149 39.5975 87.1595 42.2841 87.1872L47.2094 87.2702V88.3777ZM57.7597 87.8516C59.3268 88.8483 59.8585 89.5128 60.3623 91.1463C60.754 92.3921 60.754 92.6413 60.3343 93.9148C59.6906 95.7975 59.2149 96.4619 57.8716 97.3202C56.8362 97.9846 56.4444 98.04 53.8698 98.0677C51.1553 98.0677 50.9874 98.04 49.812 97.2371C46.174 94.69 46.6217 89.9004 50.7355 87.6855C51.4351 87.3256 52.3586 87.1872 54.1496 87.1595C56.3324 87.1318 56.7242 87.2149 57.7597 87.8516ZM70.5487 87.7963C72.3117 88.9037 72.3677 91.2847 70.6606 92.6136C69.5972 93.4719 69.5972 94.0256 70.7166 96.2404C71.0804 96.9326 71.3043 97.597 71.2483 97.7078C71.1644 97.8185 70.3248 97.9293 69.3733 97.9293H67.6383L67.1066 96.1851C66.7987 95.2438 66.323 93.9979 66.0432 93.4165L65.5114 92.3921L66.2391 92.1153C66.6588 91.9491 67.1346 91.8384 67.3305 91.8384C68.254 91.8384 68.7297 90.1219 67.8902 89.7896C67.2745 89.5682 66.0152 89.5958 65.6234 89.845C65.3995 89.9834 65.2596 91.2016 65.2316 93.638C65.2316 95.6037 65.1476 97.3756 65.0637 97.5694C64.9797 97.8185 64.3641 97.9293 63.2727 97.9293C61.6495 97.9293 61.6216 97.9016 61.6216 97.1541C61.6216 95.576 62.2092 87.5748 62.3492 87.3533C62.4331 87.2426 64.0562 87.1318 65.9872 87.1318C69.2054 87.1318 69.5413 87.1872 70.5487 87.7963ZM80.2035 87.7409C80.4833 88.7653 80.3993 89.6235 80.0355 89.6512C79.8397 89.6789 79.0841 89.6789 78.3565 89.6235C76.2576 89.5405 76.2856 90.1496 78.5244 92.1983C80.2594 93.8041 80.3714 93.9979 80.3714 95.1053C80.3714 97.4032 78.2445 98.5384 74.6905 98.0954C73.0673 97.9293 72.5356 97.4309 72.5356 96.2127V95.4099L74.4666 95.4929C75.53 95.5483 76.4815 95.4929 76.5934 95.3822C76.9572 95.0499 76.4535 94.1917 75.474 93.4995C73.9349 92.3921 73.2353 91.3124 73.2353 89.9281C73.2353 88.9037 73.3752 88.6268 74.2147 87.9347C75.1102 87.1872 75.3341 87.1318 77.6009 87.1318C79.8676 87.1318 80.0355 87.1595 80.2035 87.7409V87.7409ZM90.222 87.9347C91.0895 88.6822 91.1455 88.876 91.1455 90.4264C91.1175 91.9491 91.0336 92.226 90.278 92.9458C89.1866 94.0533 86.6679 94.4409 86.0803 93.638C85.4086 92.752 85.6045 92.1153 86.6959 91.6723C87.5355 91.34 87.6754 91.1463 87.5914 90.5095C87.5355 89.9558 87.3396 89.7343 86.8079 89.6789C85.6605 89.5682 85.4646 89.9004 85.4086 92.1153C85.3806 93.2504 85.2967 95.0499 85.2127 96.0743L85.0448 97.957L83.4777 97.8739L81.9105 97.7908L81.9385 96.8218C81.9945 94.4962 82.3863 87.7963 82.4702 87.464C82.5542 87.2149 83.5057 87.1318 85.9683 87.1318C89.2705 87.1318 89.3265 87.1318 90.222 87.9347V87.9347ZM102.06 87.6855C103.515 88.3777 104.214 89.1529 104.802 90.6756C105.39 92.1429 105.39 92.5859 104.83 94.2471C104.298 95.7975 103.851 96.3789 102.339 97.3202C101.332 97.9846 100.94 98.04 98.4215 98.0677C95.763 98.0677 95.5671 98.0123 94.3638 97.2371C92.097 95.7421 91.3134 93.1119 92.3768 90.7033C93.4962 88.2392 95.3432 87.1872 98.6734 87.1595C100.38 87.1318 101.192 87.2702 102.06 87.6855V87.6855ZM115.072 87.7409C116.808 88.9037 116.864 91.2847 115.212 92.5859C114.177 93.4165 114.149 93.8595 115.017 95.576C115.856 97.2371 115.912 97.3756 115.912 97.6524C115.912 97.8462 115.212 97.9293 114.037 97.8739L112.162 97.7908L111.91 96.8218C111.77 96.2958 111.546 95.7421 111.406 95.576C111.267 95.4375 111.155 95.0776 111.155 94.8008C111.155 94.4962 110.903 93.8595 110.595 93.3334C109.979 92.3644 110.007 92.2814 111.351 92.0045C112.442 91.7553 112.918 91.2293 112.778 90.3987C112.722 89.8727 112.498 89.7343 111.602 89.6789C111.015 89.6235 110.399 89.7066 110.231 89.8727C110.091 90.0111 109.867 91.8661 109.783 93.9702L109.615 97.7908L107.824 97.8739L106.033 97.957L106.229 96.0743C106.313 95.0499 106.481 92.752 106.565 91.0078C106.649 89.2636 106.761 87.6578 106.845 87.464C106.901 87.2149 107.908 87.1318 110.539 87.1318C113.813 87.1318 114.233 87.1872 115.072 87.7409V87.7409ZM127.218 87.5748C127.526 88.3777 127.386 89.3744 126.938 89.5405C126.686 89.6235 125.903 89.7343 125.175 89.7343L123.888 89.762L123.748 93.7764L123.608 97.7908H119.97L120.11 95.7144C120.194 94.5793 120.25 92.752 120.25 91.7V89.762L118.99 89.7066C118.291 89.6789 117.563 89.6512 117.395 89.6512C117.003 89.6235 116.864 87.6578 117.227 87.3256C117.311 87.2149 119.578 87.1318 122.237 87.1318C126.35 87.1318 127.078 87.1872 127.218 87.5748V87.5748Z" fill="#25477F"/>
<path d="M27.9001 90.3158C27.1445 90.9249 27.0885 91.1464 27.0605 92.6691C27.0605 94.801 27.6762 95.4377 29.6911 95.4377C31.5661 95.4377 32.3777 94.5518 32.3777 92.5307C32.3777 91.3402 32.2377 90.8973 31.706 90.3435C30.7825 89.3745 29.0754 89.3745 27.9001 90.3158ZM52.4707 90.039C51.7431 90.5373 50.9875 91.9493 50.9875 92.8076C50.9875 93.1398 51.2674 93.8319 51.6312 94.358C52.2188 95.2162 52.4147 95.2993 53.814 95.3823C55.1572 95.4654 55.4371 95.3824 56.0248 94.7456C56.5845 94.1642 56.6964 93.7489 56.6964 92.4753C56.6964 91.1464 56.6125 90.8696 55.9408 90.2882C55.0173 89.513 53.3942 89.4022 52.4707 90.039V90.039ZM96.8545 90.2605C95.7351 91.1741 95.3713 92.6138 95.9031 93.8596C96.4068 95.0778 97.0224 95.4377 98.6456 95.4377C100.437 95.4377 101.22 94.5241 101.22 92.4753C101.22 91.1464 101.108 90.8696 100.437 90.2882C99.4291 89.4299 97.862 89.4022 96.8545 90.2605Z" fill="#25477F"/>
</svg>
