<svg width="250" height="83" viewBox="0 0 250 83" fill="none" xmlns="http://www.w3.org/2000/svg">
<path d="M150.813 54.0522C150.769 53.5253 150.689 52.2229 148.6 52.2229C147.102 52.2229 146.599 53.1815 146.599 53.8357C146.599 55.1378 148.339 55.8807 150.216 56.4458C154.219 57.5769 158.49 58.7958 158.49 64.0223C158.49 69.1224 154.095 72.2597 148.848 72.2597C145.268 72.2597 139.854 70.6021 139.22 64.2447H146.25C146.549 66.4672 148.637 66.4672 148.936 66.4672C150.129 66.4672 151.41 65.7686 151.41 64.5939C151.41 62.7206 149.663 62.4984 145.138 60.7142C142.073 59.7166 139.519 57.6655 139.519 54.4012C139.519 49.6067 143.776 46.4313 148.681 46.4313C151.789 46.4313 157.166 47.6954 157.763 54.0522H150.813V54.052H150.813V54.0522ZM125.445 52.5281C129.113 52.5281 130.517 55.2271 130.816 56.6627H120.075C120.373 55.2269 121.778 52.5281 125.445 52.5281V52.5281ZM129.517 64.2449C128.603 65.3119 127.478 66.1182 125.533 66.1182C122.76 66.1182 120.417 64.416 119.988 61.5398H137.728C137.809 60.9804 137.897 60.5873 137.897 59.6271C137.897 52.2672 132.607 46.4307 125.409 46.4307C118.198 46.4307 112.995 52.6541 112.995 59.4052C112.995 66.5943 118.751 72.2145 125.533 72.2145C127.963 72.2145 130.307 71.4716 132.271 70.0366C134.173 68.7156 135.77 66.753 136.908 64.2445L129.517 64.2449V64.2449ZM74.9592 47.2563H81.5668V49.8289H81.6536C82.2067 48.8253 83.7422 46.4309 88.1744 46.4309C90.2688 46.4309 93.1218 47.1677 94.9993 50.7366C96.4474 48.3872 98.8776 46.4309 102.502 46.4309C104.168 46.4309 106.809 46.8187 108.73 48.8633C110.943 51.2639 111.284 52.8707 111.284 58.2369V71.4278H104.211V58.5801C104.211 56.6244 104.211 53.2267 100.587 53.2267C96.6589 53.2267 96.6589 56.8845 96.6589 58.2373V71.4282H89.585V58.2753C89.585 56.9736 89.585 53.2267 86.0481 53.2267C82.0389 53.2267 82.0389 57.1449 82.0389 58.5803V71.4278H74.9588V47.2563H74.9592V47.2563ZM60.1591 65.5022C64.5911 65.5022 66.0831 61.6729 66.0831 59.323C66.0831 56.4016 64.1248 53.1821 60.1154 53.1821C56.0624 53.1821 54.2723 56.6623 54.2723 59.4056C54.2727 61.6729 55.8949 65.5022 60.1591 65.5022ZM73.163 71.4278H66.0831V68.8235H65.9963C64.8027 71.1672 61.8626 72.2597 59.0904 72.2597C51.5878 72.2597 47.1991 66.2453 47.1991 59.323C47.1991 51.391 52.7811 46.4309 59.0904 46.4309C62.9691 46.4309 65.1447 48.343 65.9963 49.8289H66.0831V47.2563H73.163V71.4278ZM32.6099 65.4642C29.6695 65.4642 26.941 63.108 26.941 59.2341C26.941 55.7094 29.6262 53.2261 32.6534 53.2261C35.8115 53.2261 38.4096 55.5759 38.4096 59.4496C38.4092 62.9369 36.0227 65.4642 32.6099 65.4642ZM38.4092 47.2563V49.5175H38.3226C37.0483 47.4278 34.4437 46.4751 31.7959 46.4751C25.6609 46.4751 19.8611 51.2193 19.8611 59.5005C19.8611 67.2487 25.3622 72.2145 31.7959 72.2145C35.5067 72.2145 37.5518 70.1632 38.2789 68.7722H38.3659V69.5151C38.3659 76.0061 33.5049 76.0885 32.6099 76.0885C32.1689 76.0885 29.794 76.0885 28.6688 74.0884H20.3519C20.9984 77.5048 24.1747 82.192 32.1003 82.192C37.9369 82.192 42.2448 79.5371 44.0784 76.4826C45.2281 74.4376 45.4832 72.1323 45.4832 68.5124V47.2565L38.4092 47.2563" fill="#4A2991"/>
<path d="M199.216 65.4195C202.287 65.4195 204.885 62.8475 204.885 59.3226C204.885 55.7917 202.287 53.2197 199.216 53.2197C196.146 53.2197 193.541 55.7913 193.541 59.3226C193.541 62.8473 196.145 65.4195 199.216 65.4195ZM199.216 46.4691C207.826 46.4691 211.965 53.3981 211.965 59.323C211.965 65.2423 207.826 72.1705 199.216 72.1705C190.601 72.1705 186.467 65.2417 186.467 59.323C186.467 53.3977 190.601 46.4691 199.216 46.4691V46.4691ZM213.675 47.2503H220.282V49.8221H220.369C220.928 48.8187 222.457 46.4244 226.896 46.4244C228.984 46.4244 231.837 47.1608 233.714 50.73C235.163 48.3804 237.593 46.4244 241.217 46.4244C242.877 46.4244 245.524 46.812 247.445 48.857C249.665 51.2575 250 52.8644 250 58.2309V71.4212H242.92V58.5737C242.92 56.6171 242.92 53.2201 239.302 53.2201C235.38 53.2201 235.38 56.8783 235.38 58.2305V71.4212H228.3V58.2689C228.3 56.9672 228.3 53.2199 224.757 53.2199C220.754 53.2199 220.754 57.1385 220.754 58.5735V71.421H213.674V47.2503H213.675ZM177.467 62.6187C176.658 64.0034 175.253 65.4578 172.562 65.4578C169.193 65.4578 166.93 62.8477 166.93 59.3174C166.93 55.83 169.193 53.004 172.562 53.1761C175.328 53.1761 176.733 54.7133 177.528 56.2754H184.77C183.465 50.509 178.46 46.425 172.307 46.425C165.227 46.425 159.807 52.1725 159.807 59.2729C159.807 66.4621 165.308 72.2095 172.475 72.2095C178.715 72.2095 183.378 67.9351 184.783 62.6197H177.467V62.6187ZM12.824 13.1023C9.89011 16.0935 9.89011 20.9516 12.824 23.9494C15.7578 26.9471 20.5069 26.9471 23.4412 23.9494C26.3751 20.9585 26.3751 16.1 23.4412 13.1023C20.5134 10.1047 15.7584 10.1047 12.824 13.1023ZM5.31555 5.42454C12.3954 -1.80922 23.8763 -1.80922 30.9564 5.4308C38.0365 12.664 38.0365 24.3939 30.9503 31.6273C27.4134 35.2469 22.7764 37.0507 18.1332 37.0507V31.6212C21.4151 31.6212 24.6971 30.3447 27.2023 27.792C32.2062 22.6729 32.2062 14.3793 27.2023 9.26673C22.1922 4.14805 14.0742 4.14805 9.07029 9.26673C4.06634 14.3793 4.06041 22.6729 9.06436 27.7855L18.1334 37.0511V44.7226L5.30962 31.6206C-1.77086 24.3875 -1.77086 12.6577 5.31555 5.42454" fill="#26BAF2"/>
</svg>
