<svg width="150" height="150" viewBox="0 0 150 150" fill="none" xmlns="http://www.w3.org/2000/svg">
<path fill-rule="evenodd" clip-rule="evenodd" d="M131.674 0C141.788 0 150 8.21191 150 18.3264V131.674C150 141.788 141.788 150 131.674 150H18.3264C8.21191 150 0 141.788 0 131.674V18.3264C0 8.21191 8.21162 0 18.3264 0H131.674V0ZM75 23.7305C61.0761 23.7305 59.33 23.7894 53.8617 24.039C48.4046 24.288 44.6777 25.1546 41.4164 26.4223C38.0449 27.7324 35.1858 29.4855 32.3355 32.3355C29.4853 35.1858 27.7321 38.0452 26.422 41.4164C25.1546 44.6777 24.288 48.4046 24.0387 53.8617C23.7894 59.33 23.7305 61.0761 23.7305 75C23.7305 88.9239 23.7894 90.67 24.0387 96.1383C24.288 101.595 25.1546 105.322 26.422 108.584C27.7321 111.955 29.4853 114.814 32.3355 117.664C35.1858 120.515 38.0449 122.268 41.4164 123.578C44.6777 124.845 48.4046 125.712 53.8617 125.961C59.33 126.211 61.0761 126.27 75 126.27C88.9239 126.27 90.67 126.211 96.1383 125.961C101.595 125.712 105.322 124.845 108.584 123.578C111.955 122.268 114.814 120.515 117.664 117.664C120.515 114.814 122.268 111.955 123.578 108.584C124.845 105.322 125.712 101.595 125.961 96.1383C126.211 90.67 126.27 88.9239 126.27 75C126.27 61.0761 126.211 59.33 125.961 53.8617C125.712 48.4046 124.845 44.6777 123.578 41.4164C122.268 38.0452 120.515 35.1858 117.664 32.3355C114.814 29.4855 111.955 27.7324 108.584 26.4223C105.322 25.1546 101.595 24.288 96.1383 24.039C90.67 23.7894 88.9239 23.7305 75 23.7305V23.7305ZM75 32.9684C88.6896 32.9684 90.3111 33.0205 95.7173 33.2672C100.716 33.4954 103.431 34.3307 105.237 35.0323C107.631 35.9625 109.338 37.0737 111.132 38.8676C112.927 40.6617 114.038 42.3697 114.968 44.7627C115.67 46.5694 116.505 49.2841 116.733 54.2827C116.979 59.6889 117.032 61.3104 117.032 75C117.032 88.6896 116.979 90.3111 116.733 95.7173C116.505 100.716 115.67 103.431 114.968 105.237C114.038 107.631 112.927 109.338 111.132 111.132C109.338 112.927 107.631 114.038 105.237 114.968C103.431 115.67 100.716 116.505 95.7173 116.733C90.312 116.979 88.6904 117.032 75 117.032C61.3096 117.032 59.6883 116.979 54.2827 116.733C49.2841 116.505 46.5694 115.67 44.7627 114.968C42.3694 114.038 40.6617 112.927 38.8676 111.132C37.0734 109.338 35.9622 107.631 35.0323 105.237C34.3304 103.431 33.4951 100.716 33.2669 95.7173C33.0202 90.3111 32.9681 88.6896 32.9681 75C32.9681 61.3104 33.0202 59.6889 33.2669 54.2827C33.4951 49.2841 34.3304 46.5694 35.0323 44.7627C35.9622 42.3697 37.0734 40.6617 38.8676 38.8676C40.6617 37.0737 42.3694 35.9625 44.7627 35.0323C46.5694 34.3307 49.2841 33.4954 54.2827 33.2672C59.6889 33.0205 61.3104 32.9684 75 32.9684V32.9684ZM75 48.6724C60.4597 48.6724 48.6724 60.4597 48.6724 75C48.6724 89.5403 60.4597 101.328 75 101.328C89.5403 101.328 101.328 89.5403 101.328 75C101.328 60.4597 89.5403 48.6724 75 48.6724ZM75 92.0897C65.5614 92.0897 57.9103 84.4386 57.9103 75C57.9103 65.5614 65.5614 57.9103 75 57.9103C84.4386 57.9103 92.0897 65.5614 92.0897 75C92.0897 84.4386 84.4386 92.0897 75 92.0897V92.0897ZM108.52 47.6323C108.52 51.0302 105.766 53.7844 102.368 53.7844C98.9701 53.7844 96.2156 51.0302 96.2156 47.6323C96.2156 44.2345 98.9701 41.48 102.368 41.48C105.766 41.48 108.52 44.2345 108.52 47.6323Z" fill="#FEFEFE"/>
</svg>
