<svg width="994" height="810" viewBox="0 0 994 810" fill="none" xmlns="http://www.w3.org/2000/svg">
<g clip-path="url(#clip0_147:9)">
<path d="M846.687 399.056C868.116 408.201 888.416 419.791 907.182 433.597C932.302 450.915 953.686 473.099 970.065 498.832C985.989 523.809 993.968 554.307 994 590.326C994 628.717 984.251 661.748 964.752 689.664C944.866 718.081 918.865 741.686 888.658 758.747C855.41 777.463 819.514 791.031 782.194 798.989C757.934 804.039 733.408 807.715 708.733 810H145.315V382.54C157.043 380.04 169.005 378.799 180.998 378.837C204.296 378.987 227.485 382.047 250.023 387.948V786.858C330.602 786.858 637.269 797.333 726.038 779.112C755.997 773.241 785.077 763.548 812.564 750.27C836.158 739.165 856.962 722.917 873.449 702.721C888.365 684.341 896.415 661.345 896.214 637.681C896.371 621.688 892.801 605.879 885.787 591.504C878.773 577.129 868.507 564.583 855.802 554.859C828.196 532.078 797.04 513.974 763.573 501.268L754.555 497.614C761.279 494.103 767.789 490.199 774.054 485.922C805.057 464.875 828.601 432.331 846.54 399.056H846.687ZM145.315 15.9306H510.43C515.304 14.5664 519.789 13.2997 524.566 12.1305C557.847 3.99662 591.991 -0.076739 626.253 -0.000505956C663.083 -0.0274335 699.78 4.40581 735.543 13.2023C768.92 21.1232 800.938 33.9458 830.551 51.2518C856.953 66.5537 879.537 87.6423 896.603 112.93C912.983 137.879 920.77 167.488 918.783 197.262C913.452 169.383 901.979 143.038 885.197 120.14C869.198 98.8004 849.36 80.6267 826.7 66.5495C803.416 52.3872 778.075 41.9182 751.581 35.5156C724.443 28.9899 696.624 25.719 668.711 25.7718C639.518 25.5468 610.408 28.9176 582.039 35.8079C555.871 42.0315 530.758 52.0608 507.505 65.5751C486.914 77.5859 469.078 93.7856 455.151 113.125C441.982 131.601 435.018 153.776 435.262 176.459C434.74 200.095 443.286 223.035 459.148 240.573C477.025 259.691 498.405 275.204 522.129 286.272C551.076 300.207 581.085 311.822 611.872 321.008C645.605 331.288 679.777 341.568 714.68 351.847C741.686 359.983 758.26 365.147 784.534 374.648C759.722 391.017 717.507 410.7 671.636 408.069C533.585 400.079 344.251 310.144 349.906 204.18C351.807 168.81 357.9 138.41 373.841 113.076C389.872 87.6856 411.227 66.0764 436.432 49.7415C441.648 46.1363 459.684 37.3669 465.241 34.1027C394.461 31.2283 321.145 34.1027 250.023 34.1027V278.525C231.23 275.167 212.178 273.456 193.087 273.41C177.017 273.345 160.992 275.094 145.315 278.623V15.9306ZM0 497.419C18.1014 421.093 43.7423 369.337 76.9228 342.152C109.568 315.212 150.756 300.788 193.087 301.472C232.69 302.068 271.923 309.196 309.202 322.567C350.442 336.631 392.186 352.708 434.433 370.799C476.681 388.89 518.928 404.967 561.175 419.031C719.164 471.696 796.77 418.738 893.776 289.487C871.645 335.721 782.389 446.703 754.262 465.752C726.752 484.651 694.098 494.651 660.717 494.399C620.983 493.743 581.676 486.09 544.601 471.793C503.264 456.755 461.472 440.175 419.224 422.051C376.977 403.928 335.786 387.347 295.651 372.309C259.101 357.957 220.263 350.299 180.998 349.704C144.394 349.252 108.577 360.332 78.6289 381.371C48.3408 402.482 22.1311 441.165 0 497.419Z" fill="#FEFEFE"/>
</g>
<defs>
<clipPath id="clip0_147:9">
<rect width="994" height="810" fill="white"/>
</clipPath>
</defs>
</svg>
