<svg width="451" height="451" viewBox="0 0 451 451" fill="none" xmlns="http://www.w3.org/2000/svg">
<path d="M290.062 1.39484C279.2 4.34055 268.246 12.9015 263.091 22.5671C257.752 32.4168 257.752 32.7851 257.752 97.1304V156.137L250.111 156.689C245.877 156.965 240.262 158.07 237.5 159.082C227.558 162.857 218.445 171.878 214.303 182.188C212.277 187.159 212.185 188.263 211.725 233.369L211.265 279.488L208.503 283.999C205.834 288.325 200.126 292.652 195.432 294.033L193.314 294.585V235.855C193.314 171.786 193.222 170.313 187.975 160.647C182.268 150.153 170.025 141.132 158.426 138.923C155.48 138.37 130.534 138.002 95.8298 138.002C32.9573 138.002 32.4971 138.002 22.6474 143.341C16.6639 146.563 8.56318 154.664 5.34131 160.647C-0.273945 171.049 0.0022147 165.158 0.0022147 294.493C0.0022147 397.869 0.186321 413.518 1.38302 418.305C5.34131 433.493 16.7559 445.092 32.0368 449.235C37.7441 450.892 42.5309 450.984 96.6583 450.984C146.275 450.984 156.033 450.8 160.635 449.603C175.916 445.552 187.699 433.862 191.657 418.857C193.038 413.518 193.222 406.982 193.222 362.981L193.314 313.18L199.482 311.615C212.646 308.393 222.864 299.28 228.018 286.208C229.399 282.526 229.675 276.911 230.136 235.947L230.596 189.828L233.358 185.318C237.408 178.874 243.023 175.652 251.308 175.008L257.752 174.547V224.716C257.752 279.212 257.844 280.501 263.091 290.258C266.313 296.242 274.413 304.343 280.397 307.564C290.247 312.904 290.615 312.904 354.408 312.904C404.025 312.904 413.782 312.719 418.385 311.523C433.666 307.472 445.449 295.782 449.407 280.777C450.788 275.162 450.972 265.22 450.972 156.873C451.064 28.1824 451.248 32.693 445.725 22.5671C440.017 12.073 427.774 3.05182 416.176 0.842529C413.138 0.290192 388.468 -0.0780029 353.119 0.0140381C305.435 0.0140381 294.113 0.290192 290.062 1.39484ZM418.477 20.8181C423.356 23.3956 427.59 27.6301 430.076 32.5089C431.641 35.4546 432.193 38.4003 432.469 45.6725L432.837 55.154H354.408H275.978L276.347 45.6725C276.623 37.2036 276.899 35.7308 279.476 31.2202C282.422 25.881 288.498 20.9102 294.021 19.3452C295.678 18.7929 321.913 18.5168 355.789 18.6088C414.703 18.7929 414.703 18.7929 418.477 20.8181ZM432.653 156.413V239.261H354.408H276.162V207.042V174.823H310.682H345.11L342.901 178.137C339.311 183.476 340.324 189.368 345.295 191.945C351.186 194.983 353.855 193.51 367.111 180.07C376.224 170.773 377.421 169.208 377.421 166.447C377.329 162.028 376.501 160.923 364.258 149.048C354.04 139.107 353.119 138.462 349.621 138.462C346.583 138.462 345.479 139.015 343.269 141.5C339.955 145.182 339.863 148.588 342.901 153.099L345.11 156.413H310.682H276.162V114.989V73.5647H354.408H432.653V156.413ZM160.727 158.898C165.606 161.476 169.841 165.71 172.326 170.589C173.891 173.535 174.443 176.48 174.72 183.753L175.088 193.234H96.6583H18.2288L18.597 183.753C18.8732 175.284 19.1493 173.811 21.7268 169.3C24.6725 163.961 30.748 158.99 36.2713 157.425C37.9282 156.873 64.1634 156.597 98.0391 156.689C156.953 156.873 156.953 156.873 160.727 158.898ZM174.904 253.069V294.493H151.522H128.141L125.379 288.601C121.513 280.225 116.174 274.885 107.889 270.743C101.261 267.521 100.432 267.337 92.1477 267.337C84.139 267.337 82.7582 267.613 77.143 270.283C68.582 274.333 63.2429 279.488 59.1005 287.865C55.8786 294.493 55.6945 295.321 55.6945 303.698C55.6945 312.075 55.8786 312.904 59.1005 319.531C63.2429 327.908 68.582 333.063 77.143 337.114C82.7582 339.783 84.139 340.059 92.1477 340.059C100.432 340.059 101.261 339.875 107.889 336.653C116.174 332.511 121.513 327.172 125.379 318.795L128.141 312.904H151.522H174.904V345.122V377.341H96.6583H18.4129V294.493V211.645H96.6583H174.904V253.069ZM432.653 264.852C432.653 275.438 430.72 281.053 424.921 286.852C417.004 294.769 419.121 294.585 352.014 294.309C294.297 294.033 294.113 294.033 290.339 292.007C285.46 289.43 281.225 285.195 278.74 280.317C277.175 277.371 276.623 274.425 276.347 267.061L275.978 257.672H354.316H432.653V264.852ZM102.181 288.417C107.613 292.007 110.006 296.61 110.006 303.698C110.006 310.878 107.613 315.389 101.905 319.163C96.7503 322.569 87.8212 322.753 82.5741 319.439C75.5781 315.113 72.3562 306.552 74.4734 298.359C75.7622 293.664 81.3774 287.589 85.796 286.3C90.6748 284.827 98.2232 285.748 102.181 288.417ZM174.904 402.932C174.904 413.518 172.971 419.133 167.171 424.933C159.255 432.849 161.372 432.665 94.2649 432.389C36.5474 432.113 36.3633 432.113 32.5891 430.088C27.7103 427.51 23.4758 423.276 20.9904 418.397C19.4255 415.451 18.8732 412.505 18.597 405.141L18.2288 395.752H96.5662H174.904V402.932Z" fill="#464646"/>
<path d="M145.262 38.6762C141.304 40.7014 138.082 46.1326 138.082 50.5511C138.082 55.1538 141.304 60.4008 145.446 62.5181C147.379 63.5307 150.325 64.3591 151.89 64.3591C158.886 64.3591 165.698 57.5472 165.698 50.5511C165.698 45.9485 162.476 40.7014 158.334 38.5842C153.823 36.2828 149.681 36.2828 145.262 38.6762Z" fill="#464646"/>
<path d="M32.3127 47.2372C24.3041 51.6558 27.7101 64.3591 36.8233 64.3591C41.5181 64.3591 46.0287 59.8485 46.0287 55.2458C46.0287 48.3418 38.3883 43.8312 32.3127 47.2372Z" fill="#464646"/>
<path d="M216.421 84.058C208.412 88.4766 211.818 101.18 220.931 101.18C225.626 101.18 230.137 96.6693 230.137 92.0666C230.137 85.1626 222.496 80.652 216.421 84.058Z" fill="#464646"/>
<path d="M234.83 351.014C226.822 355.432 230.228 368.136 239.341 368.136C244.036 368.136 248.546 363.625 248.546 359.022C248.546 352.118 240.906 347.608 234.83 351.014Z" fill="#464646"/>
<path d="M412.218 351.658C408.26 353.683 405.038 359.114 405.038 363.533C405.038 370.529 411.85 377.341 418.846 377.341C425.842 377.341 432.654 370.529 432.654 363.533C432.654 358.93 429.432 353.683 425.29 351.566C420.779 349.265 416.637 349.265 412.218 351.658Z" fill="#464646"/>
<path d="M336.089 424.656C328.08 429.074 331.486 441.778 340.6 441.778C345.294 441.778 349.805 437.267 349.805 432.664C349.805 425.76 342.165 421.25 336.089 424.656Z" fill="#464646"/>
</svg>
